%TF.GenerationSoftware,KiCad,Pcbnew,8.0.5*%
%TF.CreationDate,2025-01-19T22:36:25+08:00*%
%TF.ProjectId,Servo Breakout Board ,53657276-6f20-4427-9265-616b6f757420,rev?*%
%TF.SameCoordinates,Original*%
%TF.FileFunction,Copper,L1,Top*%
%TF.FilePolarity,Positive*%
%FSLAX46Y46*%
G04 Gerber Fmt 4.6, Leading zero omitted, Abs format (unit mm)*
G04 Created by KiCad (PCBNEW 8.0.5) date 2025-01-19 22:36:25*
%MOMM*%
%LPD*%
G01*
G04 APERTURE LIST*
G04 Aperture macros list*
%AMRoundRect*
0 Rectangle with rounded corners*
0 $1 Rounding radius*
0 $2 $3 $4 $5 $6 $7 $8 $9 X,Y pos of 4 corners*
0 Add a 4 corners polygon primitive as box body*
4,1,4,$2,$3,$4,$5,$6,$7,$8,$9,$2,$3,0*
0 Add four circle primitives for the rounded corners*
1,1,$1+$1,$2,$3*
1,1,$1+$1,$4,$5*
1,1,$1+$1,$6,$7*
1,1,$1+$1,$8,$9*
0 Add four rect primitives between the rounded corners*
20,1,$1+$1,$2,$3,$4,$5,0*
20,1,$1+$1,$4,$5,$6,$7,0*
20,1,$1+$1,$6,$7,$8,$9,0*
20,1,$1+$1,$8,$9,$2,$3,0*%
%AMHorizOval*
0 Thick line with rounded ends*
0 $1 width*
0 $2 $3 position (X,Y) of the first rounded end (center of the circle)*
0 $4 $5 position (X,Y) of the second rounded end (center of the circle)*
0 Add line between two ends*
20,1,$1,$2,$3,$4,$5,0*
0 Add two circle primitives to create the rounded ends*
1,1,$1,$2,$3*
1,1,$1,$4,$5*%
%AMRotRect*
0 Rectangle, with rotation*
0 The origin of the aperture is its center*
0 $1 length*
0 $2 width*
0 $3 Rotation angle, in degrees counterclockwise*
0 Add horizontal line*
21,1,$1,$2,0,0,$3*%
G04 Aperture macros list end*
%TA.AperFunction,ComponentPad*%
%ADD10C,3.600000*%
%TD*%
%TA.AperFunction,ConnectorPad*%
%ADD11C,5.600000*%
%TD*%
%TA.AperFunction,ComponentPad*%
%ADD12R,1.700000X1.700000*%
%TD*%
%TA.AperFunction,ComponentPad*%
%ADD13O,1.700000X1.700000*%
%TD*%
%TA.AperFunction,ComponentPad*%
%ADD14R,1.350000X1.350000*%
%TD*%
%TA.AperFunction,ComponentPad*%
%ADD15O,1.350000X1.350000*%
%TD*%
%TA.AperFunction,ComponentPad*%
%ADD16RoundRect,0.250000X0.106066X-0.954594X0.954594X-0.106066X-0.106066X0.954594X-0.954594X0.106066X0*%
%TD*%
%TA.AperFunction,ComponentPad*%
%ADD17HorizOval,1.700000X-0.106066X0.106066X0.106066X-0.106066X0*%
%TD*%
%TA.AperFunction,ComponentPad*%
%ADD18RotRect,2.000000X2.000000X315.000000*%
%TD*%
%TA.AperFunction,ComponentPad*%
%ADD19C,2.000000*%
%TD*%
%TA.AperFunction,ComponentPad*%
%ADD20RoundRect,0.250000X-0.600000X-0.725000X0.600000X-0.725000X0.600000X0.725000X-0.600000X0.725000X0*%
%TD*%
%TA.AperFunction,ComponentPad*%
%ADD21O,1.700000X1.950000*%
%TD*%
%TA.AperFunction,SMDPad,CuDef*%
%ADD22RoundRect,0.325000X0.777817X-1.237437X1.237437X-0.777817X-0.777817X1.237437X-1.237437X0.777817X0*%
%TD*%
%TA.AperFunction,ViaPad*%
%ADD23C,1.500000*%
%TD*%
%TA.AperFunction,Conductor*%
%ADD24C,1.600000*%
%TD*%
%TA.AperFunction,Conductor*%
%ADD25C,1.000000*%
%TD*%
%TA.AperFunction,Conductor*%
%ADD26C,0.200000*%
%TD*%
G04 APERTURE END LIST*
D10*
%TO.P,M3,1*%
%TO.N,N/C*%
X52960000Y-62500000D03*
D11*
X52960000Y-62500000D03*
%TD*%
D12*
%TO.P,M1,1,PWM*%
%TO.N,Net-(J2-Pin_1)*%
X23960000Y-49960000D03*
D13*
%TO.P,M1,2,+*%
%TO.N,+5V*%
X23960000Y-52500000D03*
%TO.P,M1,3,-*%
%TO.N,GND*%
X23960000Y-55040000D03*
%TD*%
D12*
%TO.P,M2,1,PWM*%
%TO.N,Net-(J2-Pin_2)*%
X38420000Y-35500000D03*
D13*
%TO.P,M2,2,+*%
%TO.N,+5V*%
X40960000Y-35500000D03*
%TO.P,M2,3,-*%
%TO.N,GND*%
X43500000Y-35500000D03*
%TD*%
D12*
%TO.P,M5,1,PWM*%
%TO.N,Net-(J2-Pin_1)*%
X27960000Y-49960000D03*
D13*
%TO.P,M5,2,+*%
%TO.N,+5V*%
X27960000Y-52500000D03*
%TO.P,M5,3,-*%
%TO.N,GND*%
X27960000Y-55040000D03*
%TD*%
D12*
%TO.P,M7,1,PWM*%
%TO.N,Net-(J2-Pin_3)*%
X53960000Y-50000000D03*
D13*
%TO.P,M7,2,+*%
%TO.N,+5V*%
X53960000Y-52540000D03*
%TO.P,M7,3,-*%
%TO.N,GND*%
X53960000Y-55080000D03*
%TD*%
D10*
%TO.P,M3,1*%
%TO.N,N/C*%
X52960000Y-43000000D03*
D11*
X52960000Y-43000000D03*
%TD*%
D14*
%TO.P,J2,1,Pin_1*%
%TO.N,Net-(J2-Pin_1)*%
X37960000Y-50500000D03*
D15*
%TO.P,J2,2,Pin_2*%
%TO.N,Net-(J2-Pin_2)*%
X39960000Y-50500000D03*
%TO.P,J2,3,Pin_3*%
%TO.N,Net-(J2-Pin_3)*%
X41960000Y-50500000D03*
%TO.P,J2,4,Pin_4*%
%TO.N,Net-(J2-Pin_4)*%
X43960000Y-50500000D03*
%TD*%
D12*
%TO.P,M8,1,PWM*%
%TO.N,Net-(J2-Pin_4)*%
X38475000Y-65500000D03*
D13*
%TO.P,M8,2,+*%
%TO.N,+5V*%
X41015000Y-65500000D03*
%TO.P,M8,3,-*%
%TO.N,GND*%
X43555000Y-65500000D03*
%TD*%
D12*
%TO.P,M4,1,PWM*%
%TO.N,Net-(J2-Pin_4)*%
X38435000Y-69500000D03*
D13*
%TO.P,M4,2,+*%
%TO.N,+5V*%
X40975000Y-69500000D03*
%TO.P,M4,3,-*%
%TO.N,GND*%
X43515000Y-69500000D03*
%TD*%
D12*
%TO.P,M3,1,PWM*%
%TO.N,Net-(J2-Pin_3)*%
X57960000Y-49960000D03*
D13*
%TO.P,M3,2,+*%
%TO.N,+5V*%
X57960000Y-52500000D03*
%TO.P,M3,3,-*%
%TO.N,GND*%
X57960000Y-55040000D03*
%TD*%
D16*
%TO.P,J3,1,Pin_1*%
%TO.N,+5V*%
X27460000Y-43000000D03*
D17*
%TO.P,J3,2,Pin_2*%
%TO.N,GND*%
X29227767Y-41232233D03*
%TD*%
D18*
%TO.P,J1,1,Pin_1*%
%TO.N,+5V*%
X28664505Y-61992373D03*
D19*
%TO.P,J1,2,Pin_2*%
%TO.N,GND*%
X30460556Y-63788424D03*
%TD*%
D20*
%TO.P,J5,1,Pin_1*%
%TO.N,Net-(J2-Pin_1)*%
X37460000Y-55500000D03*
D21*
%TO.P,J5,2,Pin_2*%
%TO.N,Net-(J2-Pin_2)*%
X39960000Y-55500000D03*
%TO.P,J5,3,Pin_3*%
%TO.N,Net-(J2-Pin_3)*%
X42460000Y-55500000D03*
%TO.P,J5,4,Pin_4*%
%TO.N,Net-(J2-Pin_4)*%
X44960000Y-55500000D03*
%TD*%
D12*
%TO.P,M6,1,PWM*%
%TO.N,Net-(J2-Pin_2)*%
X38420000Y-39500000D03*
D13*
%TO.P,M6,2,+*%
%TO.N,+5V*%
X40960000Y-39500000D03*
%TO.P,M6,3,-*%
%TO.N,GND*%
X43500000Y-39500000D03*
%TD*%
D22*
%TO.P,J4,1,Pin_1*%
%TO.N,+5V*%
X32545786Y-38207107D03*
%TO.P,J4,2,Pin_2*%
%TO.N,GND*%
X33960000Y-36792893D03*
%TD*%
D23*
%TO.N,GND*%
X35460000Y-35500000D03*
%TD*%
D24*
%TO.N,GND*%
X34167107Y-36792893D02*
X35460000Y-35500000D01*
D25*
X33960000Y-37000000D02*
X35960000Y-39000000D01*
X31495534Y-43500000D02*
X29227767Y-41232233D01*
X32960000Y-43500000D02*
X31495534Y-43500000D01*
X33960000Y-36792893D02*
X34167107Y-36792893D01*
X35960000Y-40500000D02*
X32960000Y-43500000D01*
X33960000Y-36792893D02*
X33960000Y-37000000D01*
X35960000Y-39000000D02*
X35960000Y-40500000D01*
%TO.N,+5V*%
X30667107Y-38207107D02*
X32545786Y-38207107D01*
X30667107Y-38207107D02*
X29960000Y-37500000D01*
D26*
%TO.N,Net-(J2-Pin_2)*%
X39960000Y-40540000D02*
X38420000Y-39000000D01*
X39960000Y-50500000D02*
X39960000Y-55500000D01*
X39960000Y-50500000D02*
X39960000Y-40540000D01*
X38420000Y-35000000D02*
X38420000Y-39000000D01*
%TO.N,Net-(J2-Pin_1)*%
X37960000Y-50500000D02*
X37960000Y-51500000D01*
X37460000Y-52000000D02*
X37460000Y-55500000D01*
X37460000Y-55500000D02*
X34960000Y-55500000D01*
X29420000Y-49960000D02*
X27460000Y-49960000D01*
X34960000Y-55500000D02*
X29420000Y-49960000D01*
X37960000Y-51500000D02*
X37460000Y-52000000D01*
%TO.N,Net-(J2-Pin_4)*%
X43960000Y-54500000D02*
X44960000Y-55500000D01*
X43960000Y-50500000D02*
X43960000Y-54500000D01*
X44960000Y-59515000D02*
X38475000Y-66000000D01*
X44960000Y-55500000D02*
X44960000Y-59515000D01*
%TO.N,Net-(J2-Pin_3)*%
X42935000Y-49525000D02*
X53485000Y-49525000D01*
X53485000Y-49525000D02*
X53960000Y-50000000D01*
X53985000Y-49525000D02*
X54460000Y-50000000D01*
X41960000Y-51000000D02*
X41960000Y-55000000D01*
X41960000Y-50500000D02*
X42935000Y-49525000D01*
X41960000Y-55000000D02*
X42460000Y-55500000D01*
%TD*%
%TA.AperFunction,Conductor*%
%TO.N,+5V*%
G36*
X41869265Y-33020009D02*
G01*
X41880392Y-33020509D01*
X42742380Y-33078625D01*
X42753457Y-33079622D01*
X43611943Y-33176350D01*
X43622989Y-33177847D01*
X44476269Y-33312993D01*
X44487213Y-33314979D01*
X45333592Y-33488276D01*
X45344425Y-33490748D01*
X46182196Y-33701848D01*
X46192923Y-33704808D01*
X46975558Y-33939823D01*
X47020319Y-33953264D01*
X47030946Y-33956717D01*
X47577330Y-34147905D01*
X47800792Y-34226098D01*
X47846355Y-34242041D01*
X47856799Y-34245960D01*
X48520097Y-34512028D01*
X48658609Y-34567589D01*
X48668884Y-34571981D01*
X48735255Y-34602128D01*
X49455443Y-34929254D01*
X49465462Y-34934078D01*
X50235249Y-35326303D01*
X50245065Y-35331586D01*
X50996430Y-35757926D01*
X51006000Y-35763645D01*
X51635532Y-36159205D01*
X51737467Y-36223255D01*
X51746793Y-36229410D01*
X52456940Y-36721401D01*
X52465980Y-36727970D01*
X53153282Y-37251284D01*
X53162018Y-37258250D01*
X53366895Y-37429293D01*
X53825197Y-37811911D01*
X53833590Y-37819243D01*
X54297846Y-38243592D01*
X54471246Y-38402087D01*
X54479323Y-38409809D01*
X55090190Y-39020676D01*
X55097912Y-39028753D01*
X55104842Y-39036335D01*
X55553306Y-39526974D01*
X55680746Y-39666398D01*
X55688091Y-39674805D01*
X55708708Y-39699500D01*
X56241749Y-40337981D01*
X56248715Y-40346717D01*
X56772029Y-41034019D01*
X56778598Y-41043059D01*
X57270589Y-41753206D01*
X57276744Y-41762532D01*
X57736348Y-42493988D01*
X57742079Y-42503580D01*
X58168411Y-43254931D01*
X58173704Y-43264766D01*
X58552417Y-44008034D01*
X58565905Y-44034504D01*
X58570753Y-44044572D01*
X58928018Y-44831115D01*
X58932410Y-44841390D01*
X59254032Y-45643182D01*
X59257958Y-45653644D01*
X59543282Y-46469053D01*
X59546735Y-46479680D01*
X59795184Y-47307054D01*
X59798157Y-47317825D01*
X60009244Y-48155544D01*
X60011730Y-48166438D01*
X60185015Y-49012761D01*
X60187010Y-49023756D01*
X60322150Y-49876997D01*
X60323650Y-49888070D01*
X60420374Y-50746516D01*
X60421376Y-50757645D01*
X60479489Y-51619589D01*
X60479990Y-51630752D01*
X60499374Y-52494413D01*
X60499374Y-52505587D01*
X60479990Y-53369247D01*
X60479489Y-53380410D01*
X60421376Y-54242354D01*
X60420374Y-54253483D01*
X60323650Y-55111929D01*
X60322150Y-55123002D01*
X60187010Y-55976243D01*
X60185015Y-55987238D01*
X60011730Y-56833561D01*
X60009244Y-56844455D01*
X59798157Y-57682174D01*
X59795184Y-57692945D01*
X59546735Y-58520319D01*
X59543282Y-58530946D01*
X59257958Y-59346355D01*
X59254032Y-59356817D01*
X58932410Y-60158609D01*
X58928018Y-60168884D01*
X58570753Y-60955427D01*
X58565905Y-60965495D01*
X58173707Y-61735228D01*
X58168411Y-61745068D01*
X57742079Y-62496419D01*
X57736348Y-62506011D01*
X57276744Y-63237467D01*
X57270589Y-63246793D01*
X56778598Y-63956940D01*
X56772029Y-63965980D01*
X56248715Y-64653282D01*
X56241749Y-64662018D01*
X55688098Y-65325186D01*
X55680746Y-65333601D01*
X55097912Y-65971246D01*
X55090190Y-65979323D01*
X54479323Y-66590190D01*
X54471246Y-66597912D01*
X53833601Y-67180746D01*
X53825186Y-67188098D01*
X53162018Y-67741749D01*
X53153282Y-67748715D01*
X52465980Y-68272029D01*
X52456940Y-68278598D01*
X51746793Y-68770589D01*
X51737467Y-68776744D01*
X51006011Y-69236348D01*
X50996419Y-69242079D01*
X50245068Y-69668411D01*
X50235228Y-69673707D01*
X49465495Y-70065905D01*
X49455427Y-70070753D01*
X48668884Y-70428018D01*
X48658609Y-70432410D01*
X47856817Y-70754032D01*
X47846355Y-70757958D01*
X47030946Y-71043282D01*
X47020319Y-71046735D01*
X46192945Y-71295184D01*
X46182174Y-71298157D01*
X45344455Y-71509244D01*
X45333561Y-71511730D01*
X44487238Y-71685015D01*
X44476243Y-71687010D01*
X43623002Y-71822150D01*
X43611929Y-71823650D01*
X42753483Y-71920374D01*
X42742354Y-71921376D01*
X41880410Y-71979489D01*
X41869247Y-71979990D01*
X41005587Y-71999374D01*
X40994413Y-71999374D01*
X40130752Y-71979990D01*
X40119589Y-71979489D01*
X39257645Y-71921376D01*
X39246516Y-71920374D01*
X38388070Y-71823650D01*
X38376997Y-71822150D01*
X37523756Y-71687010D01*
X37512761Y-71685015D01*
X36666438Y-71511730D01*
X36655544Y-71509244D01*
X35817825Y-71298157D01*
X35807054Y-71295184D01*
X34979680Y-71046735D01*
X34969053Y-71043282D01*
X34153644Y-70757958D01*
X34143182Y-70754032D01*
X33341390Y-70432410D01*
X33331115Y-70428018D01*
X32544572Y-70070753D01*
X32534519Y-70065912D01*
X31764766Y-69673704D01*
X31754931Y-69668411D01*
X31003580Y-69242079D01*
X30993988Y-69236348D01*
X30262532Y-68776744D01*
X30253206Y-68770589D01*
X30010040Y-68602123D01*
X37084500Y-68602123D01*
X37084500Y-70397865D01*
X37084501Y-70397869D01*
X37090908Y-70457480D01*
X37090909Y-70457484D01*
X37141203Y-70592329D01*
X37141204Y-70592331D01*
X37227454Y-70707546D01*
X37342669Y-70793796D01*
X37477517Y-70844091D01*
X37537127Y-70850500D01*
X39332872Y-70850499D01*
X39392483Y-70844091D01*
X39527331Y-70793796D01*
X39642546Y-70707546D01*
X39728796Y-70592331D01*
X39728796Y-70592329D01*
X39739469Y-70578073D01*
X39742692Y-70580485D01*
X39783534Y-70531597D01*
X39869614Y-70486549D01*
X39966381Y-70477872D01*
X40059102Y-70506886D01*
X40099863Y-70534704D01*
X40103918Y-70538106D01*
X40297423Y-70673600D01*
X40475000Y-70756405D01*
X40475000Y-69565826D01*
X40509075Y-69692993D01*
X40574901Y-69807007D01*
X40667993Y-69900099D01*
X40782007Y-69965925D01*
X40909174Y-70000000D01*
X41040826Y-70000000D01*
X41167993Y-69965925D01*
X41282007Y-69900099D01*
X41375099Y-69807007D01*
X41440925Y-69692993D01*
X41475000Y-69565826D01*
X41475000Y-70756405D01*
X41652576Y-70673600D01*
X41846076Y-70538110D01*
X42013111Y-70371075D01*
X42040724Y-70331640D01*
X42110905Y-70264456D01*
X42201454Y-70229242D01*
X42298586Y-70231361D01*
X42387513Y-70270489D01*
X42448662Y-70331638D01*
X42476501Y-70371396D01*
X42476505Y-70371401D01*
X42643599Y-70538495D01*
X42837170Y-70674035D01*
X43051337Y-70773903D01*
X43279592Y-70835063D01*
X43279595Y-70835063D01*
X43279598Y-70835064D01*
X43514995Y-70855659D01*
X43515000Y-70855659D01*
X43515005Y-70855659D01*
X43750401Y-70835064D01*
X43750403Y-70835063D01*
X43750408Y-70835063D01*
X43978663Y-70773903D01*
X44192830Y-70674035D01*
X44386401Y-70538495D01*
X44553495Y-70371401D01*
X44689035Y-70177830D01*
X44788903Y-69963663D01*
X44850063Y-69735408D01*
X44853774Y-69692993D01*
X44870659Y-69500005D01*
X44870659Y-69499994D01*
X44850064Y-69264598D01*
X44850063Y-69264595D01*
X44850063Y-69264592D01*
X44788903Y-69036337D01*
X44689035Y-68822171D01*
X44553495Y-68628599D01*
X44386401Y-68461505D01*
X44192830Y-68325965D01*
X43978663Y-68226097D01*
X43978660Y-68226096D01*
X43750401Y-68164935D01*
X43515005Y-68144341D01*
X43514995Y-68144341D01*
X43279598Y-68164935D01*
X43051335Y-68226097D01*
X43051333Y-68226098D01*
X42837177Y-68325961D01*
X42837169Y-68325965D01*
X42643600Y-68461504D01*
X42476502Y-68628602D01*
X42448661Y-68668363D01*
X42378479Y-68735546D01*
X42287929Y-68770758D01*
X42190797Y-68768637D01*
X42101871Y-68729507D01*
X42040725Y-68668361D01*
X42013110Y-68628923D01*
X41846076Y-68461889D01*
X41652572Y-68326396D01*
X41652571Y-68326395D01*
X41475000Y-68243592D01*
X41475000Y-69434174D01*
X41440925Y-69307007D01*
X41375099Y-69192993D01*
X41282007Y-69099901D01*
X41167993Y-69034075D01*
X41040826Y-69000000D01*
X40909174Y-69000000D01*
X40782007Y-69034075D01*
X40667993Y-69099901D01*
X40574901Y-69192993D01*
X40509075Y-69307007D01*
X40475000Y-69434174D01*
X40475000Y-68243593D01*
X40474999Y-68243593D01*
X40297426Y-68326397D01*
X40297425Y-68326397D01*
X40103914Y-68461895D01*
X40099854Y-68465302D01*
X40096137Y-68467340D01*
X40095016Y-68468126D01*
X40094929Y-68468003D01*
X40014674Y-68512028D01*
X39918095Y-68522600D01*
X39824823Y-68495409D01*
X39749057Y-68434593D01*
X39740092Y-68421460D01*
X39739469Y-68421927D01*
X39728796Y-68407670D01*
X39728796Y-68407669D01*
X39642546Y-68292454D01*
X39527331Y-68206204D01*
X39447117Y-68176286D01*
X39392481Y-68155908D01*
X39332873Y-68149500D01*
X37537134Y-68149500D01*
X37537130Y-68149500D01*
X37537128Y-68149501D01*
X37524314Y-68150878D01*
X37477519Y-68155908D01*
X37477515Y-68155909D01*
X37342670Y-68206203D01*
X37227455Y-68292453D01*
X37227453Y-68292455D01*
X37141204Y-68407669D01*
X37090908Y-68542518D01*
X37084500Y-68602123D01*
X30010040Y-68602123D01*
X29543059Y-68278598D01*
X29534019Y-68272029D01*
X28846717Y-67748715D01*
X28837981Y-67741749D01*
X28174813Y-67188098D01*
X28166398Y-67180746D01*
X27528753Y-66597912D01*
X27520676Y-66590190D01*
X26909809Y-65979323D01*
X26902087Y-65971246D01*
X26647752Y-65692993D01*
X26319243Y-65333590D01*
X26311901Y-65325186D01*
X26296724Y-65307007D01*
X26056453Y-65019208D01*
X25758250Y-64662018D01*
X25751284Y-64653282D01*
X25227970Y-63965980D01*
X25221401Y-63956940D01*
X24840115Y-63406586D01*
X27957399Y-63406586D01*
X28344773Y-63793960D01*
X28391408Y-63831540D01*
X28522187Y-63891265D01*
X28522191Y-63891266D01*
X28664505Y-63911727D01*
X28712290Y-63904857D01*
X28809306Y-63910056D01*
X28896947Y-63951986D01*
X28961871Y-64024263D01*
X28989109Y-64090195D01*
X29031033Y-64255746D01*
X29036493Y-64277305D01*
X29057836Y-64325961D01*
X29136381Y-64505027D01*
X29136384Y-64505032D01*
X29272386Y-64713202D01*
X29272392Y-64713209D01*
X29440804Y-64896154D01*
X29440808Y-64896157D01*
X29440812Y-64896162D01*
X29440816Y-64896165D01*
X29440817Y-64896166D01*
X29637041Y-65048894D01*
X29637043Y-65048895D01*
X29637047Y-65048898D01*
X29855746Y-65167252D01*
X29925292Y-65191127D01*
X30090934Y-65247993D01*
X30090938Y-65247993D01*
X30090942Y-65247995D01*
X30336221Y-65288924D01*
X30584891Y-65288924D01*
X30830170Y-65247995D01*
X30830174Y-65247993D01*
X30830177Y-65247993D01*
X30919633Y-65217282D01*
X31065366Y-65167252D01*
X31284065Y-65048898D01*
X31480300Y-64896162D01*
X31648720Y-64713209D01*
X31784729Y-64505031D01*
X31884619Y-64277305D01*
X31945664Y-64036245D01*
X31966199Y-63788424D01*
X31945664Y-63540603D01*
X31884619Y-63299543D01*
X31784729Y-63071817D01*
X31731553Y-62990425D01*
X31648725Y-62863645D01*
X31648719Y-62863638D01*
X31480307Y-62680693D01*
X31480303Y-62680689D01*
X31480300Y-62680686D01*
X31366836Y-62592373D01*
X31284070Y-62527953D01*
X31284066Y-62527950D01*
X31284065Y-62527950D01*
X31181588Y-62472492D01*
X31065367Y-62409596D01*
X30830177Y-62328854D01*
X30830170Y-62328853D01*
X30782512Y-62320900D01*
X30691643Y-62286519D01*
X30620848Y-62219982D01*
X30580905Y-62131418D01*
X30577032Y-62039860D01*
X30583859Y-61992372D01*
X30563398Y-61850059D01*
X30563397Y-61850055D01*
X30503672Y-61719276D01*
X30466092Y-61672641D01*
X30078718Y-61285267D01*
X29254213Y-62109771D01*
X29264505Y-62071364D01*
X29264505Y-61913382D01*
X29223616Y-61760782D01*
X29144624Y-61623965D01*
X29032913Y-61512254D01*
X28896096Y-61433262D01*
X28743496Y-61392373D01*
X28585514Y-61392373D01*
X28432914Y-61433262D01*
X28296097Y-61512254D01*
X28184386Y-61623965D01*
X28105394Y-61760782D01*
X28064505Y-61913382D01*
X28064505Y-62071364D01*
X28105394Y-62223964D01*
X28184386Y-62360781D01*
X28296097Y-62472492D01*
X28432914Y-62551484D01*
X28585514Y-62592373D01*
X28743496Y-62592373D01*
X28781903Y-62582081D01*
X27957399Y-63406586D01*
X24840115Y-63406586D01*
X24729410Y-63246793D01*
X24723255Y-63237467D01*
X24488367Y-62863645D01*
X24263645Y-62506000D01*
X24257920Y-62496419D01*
X24244343Y-62472492D01*
X23971914Y-61992373D01*
X26745150Y-61992373D01*
X26765611Y-62134686D01*
X26765612Y-62134690D01*
X26825337Y-62265469D01*
X26862917Y-62312104D01*
X27250291Y-62699478D01*
X27957397Y-61992373D01*
X27250290Y-61285266D01*
X26862921Y-61672636D01*
X26825337Y-61719276D01*
X26765612Y-61850055D01*
X26765611Y-61850059D01*
X26745150Y-61992373D01*
X23971914Y-61992373D01*
X23831586Y-61745065D01*
X23826303Y-61735249D01*
X23434078Y-60965462D01*
X23429246Y-60955427D01*
X23356792Y-60795915D01*
X23257882Y-60578158D01*
X27957398Y-60578158D01*
X28664505Y-61285265D01*
X29371610Y-60578159D01*
X28984236Y-60190785D01*
X28937601Y-60153205D01*
X28806822Y-60093480D01*
X28806818Y-60093479D01*
X28664505Y-60073018D01*
X28522191Y-60093479D01*
X28522187Y-60093480D01*
X28391408Y-60153205D01*
X28344768Y-60190789D01*
X27957398Y-60578158D01*
X23257882Y-60578158D01*
X23071981Y-60168884D01*
X23067589Y-60158609D01*
X22996260Y-59980789D01*
X22745960Y-59356799D01*
X22742041Y-59346355D01*
X22711268Y-59258412D01*
X22456717Y-58530946D01*
X22453264Y-58520319D01*
X22261050Y-57880216D01*
X22204808Y-57692923D01*
X22201848Y-57682196D01*
X21990748Y-56844425D01*
X21988276Y-56833592D01*
X21814979Y-55987213D01*
X21812993Y-55976269D01*
X21677847Y-55122989D01*
X21676349Y-55111929D01*
X21672752Y-55080005D01*
X21668244Y-55039994D01*
X22604341Y-55039994D01*
X22604341Y-55040005D01*
X22624935Y-55275401D01*
X22624937Y-55275408D01*
X22686097Y-55503663D01*
X22785965Y-55717830D01*
X22891616Y-55868716D01*
X22921505Y-55911401D01*
X23088599Y-56078495D01*
X23282170Y-56214035D01*
X23496337Y-56313903D01*
X23724592Y-56375063D01*
X23724595Y-56375063D01*
X23724598Y-56375064D01*
X23959995Y-56395659D01*
X23960000Y-56395659D01*
X23960005Y-56395659D01*
X24195401Y-56375064D01*
X24195403Y-56375063D01*
X24195408Y-56375063D01*
X24423663Y-56313903D01*
X24637830Y-56214035D01*
X24831401Y-56078495D01*
X24998495Y-55911401D01*
X25134035Y-55717830D01*
X25233903Y-55503663D01*
X25295063Y-55275408D01*
X25300437Y-55213984D01*
X25315659Y-55040005D01*
X25315659Y-55039994D01*
X25295064Y-54804598D01*
X25295063Y-54804595D01*
X25295063Y-54804592D01*
X25233903Y-54576337D01*
X25152690Y-54402177D01*
X25134038Y-54362177D01*
X25134034Y-54362169D01*
X25054037Y-54247922D01*
X24998495Y-54168599D01*
X24831401Y-54001505D01*
X24831397Y-54001502D01*
X24831396Y-54001501D01*
X24791638Y-53973662D01*
X24724454Y-53903481D01*
X24689242Y-53812931D01*
X24691362Y-53715800D01*
X24730491Y-53626873D01*
X24791640Y-53565724D01*
X24831075Y-53538111D01*
X24998110Y-53371076D01*
X25133603Y-53177572D01*
X25133604Y-53177571D01*
X25216407Y-53000000D01*
X24025826Y-53000000D01*
X24152993Y-52965925D01*
X24267007Y-52900099D01*
X24360099Y-52807007D01*
X24425925Y-52692993D01*
X24460000Y-52565826D01*
X24460000Y-52434174D01*
X24425925Y-52307007D01*
X24360099Y-52192993D01*
X24267007Y-52099901D01*
X24152993Y-52034075D01*
X24025826Y-52000000D01*
X25216405Y-52000000D01*
X25133598Y-51822420D01*
X24998106Y-51628918D01*
X24994704Y-51624863D01*
X24992665Y-51621147D01*
X24991874Y-51620017D01*
X24991997Y-51619930D01*
X24947974Y-51539685D01*
X24937398Y-51443107D01*
X24964585Y-51349834D01*
X25025397Y-51274064D01*
X25038540Y-51265093D01*
X25038073Y-51264469D01*
X25052329Y-51253796D01*
X25052331Y-51253796D01*
X25167546Y-51167546D01*
X25253796Y-51052331D01*
X25304091Y-50917483D01*
X25310500Y-50857873D01*
X25310499Y-49062128D01*
X25304091Y-49002517D01*
X25253796Y-48867669D01*
X25167546Y-48752454D01*
X25052331Y-48666204D01*
X24972117Y-48636286D01*
X24917481Y-48615908D01*
X24857873Y-48609500D01*
X23062134Y-48609500D01*
X23062130Y-48609500D01*
X23062128Y-48609501D01*
X23049314Y-48610878D01*
X23002519Y-48615908D01*
X23002515Y-48615909D01*
X22867670Y-48666203D01*
X22752455Y-48752453D01*
X22752453Y-48752455D01*
X22666204Y-48867669D01*
X22615908Y-49002518D01*
X22609500Y-49062123D01*
X22609500Y-50857865D01*
X22609500Y-50857868D01*
X22609501Y-50857872D01*
X22611567Y-50877093D01*
X22615908Y-50917480D01*
X22615909Y-50917484D01*
X22630827Y-50957480D01*
X22666204Y-51052331D01*
X22752454Y-51167546D01*
X22867669Y-51253796D01*
X22867670Y-51253796D01*
X22881927Y-51264469D01*
X22879515Y-51267689D01*
X22928437Y-51308578D01*
X22973466Y-51394669D01*
X22982121Y-51491437D01*
X22953086Y-51584152D01*
X22925302Y-51624854D01*
X22921899Y-51628909D01*
X22786401Y-51822420D01*
X22703594Y-52000000D01*
X23894174Y-52000000D01*
X23767007Y-52034075D01*
X23652993Y-52099901D01*
X23559901Y-52192993D01*
X23494075Y-52307007D01*
X23460000Y-52434174D01*
X23460000Y-52565826D01*
X23494075Y-52692993D01*
X23559901Y-52807007D01*
X23652993Y-52900099D01*
X23767007Y-52965925D01*
X23894174Y-53000000D01*
X22703592Y-53000000D01*
X22786395Y-53177571D01*
X22786396Y-53177572D01*
X22921889Y-53371076D01*
X23088923Y-53538110D01*
X23128361Y-53565725D01*
X23195545Y-53635907D01*
X23230757Y-53726456D01*
X23228638Y-53823588D01*
X23189509Y-53912515D01*
X23128363Y-53973661D01*
X23088602Y-54001502D01*
X22921504Y-54168600D01*
X22785965Y-54362169D01*
X22785961Y-54362177D01*
X22686098Y-54576333D01*
X22686097Y-54576335D01*
X22624935Y-54804598D01*
X22604341Y-55039994D01*
X21668244Y-55039994D01*
X21579622Y-54253457D01*
X21578625Y-54242380D01*
X21520509Y-53380392D01*
X21520009Y-53369247D01*
X21512619Y-53040000D01*
X21500625Y-52505569D01*
X21500625Y-52494413D01*
X21520009Y-51630732D01*
X21520510Y-51619589D01*
X21578625Y-50757615D01*
X21579622Y-50746546D01*
X21676351Y-49888050D01*
X21677849Y-49876997D01*
X21812995Y-49023722D01*
X21814977Y-49012794D01*
X21988278Y-48166397D01*
X21990745Y-48155583D01*
X22201851Y-47317791D01*
X22204805Y-47307088D01*
X22453268Y-46479664D01*
X22456717Y-46469053D01*
X22556158Y-46184868D01*
X22742048Y-45653624D01*
X22745954Y-45643214D01*
X23045026Y-44897638D01*
X35159500Y-44897638D01*
X35159500Y-45102361D01*
X35191522Y-45304531D01*
X35254778Y-45499214D01*
X35254782Y-45499224D01*
X35347711Y-45681607D01*
X35347713Y-45681610D01*
X35468034Y-45847219D01*
X35612781Y-45991966D01*
X35778390Y-46112287D01*
X35960781Y-46205220D01*
X36155466Y-46268477D01*
X36226575Y-46279739D01*
X36357638Y-46300499D01*
X36357645Y-46300499D01*
X36357648Y-46300500D01*
X36357651Y-46300500D01*
X36562349Y-46300500D01*
X36562352Y-46300500D01*
X36562355Y-46300499D01*
X36562361Y-46300499D01*
X36657870Y-46285371D01*
X36764534Y-46268477D01*
X36959219Y-46205220D01*
X37141610Y-46112287D01*
X37307219Y-45991966D01*
X37451966Y-45847219D01*
X37572287Y-45681610D01*
X37665220Y-45499219D01*
X37728477Y-45304534D01*
X37760500Y-45102352D01*
X37760500Y-44897648D01*
X37760499Y-44897645D01*
X37760499Y-44897638D01*
X37729923Y-44704595D01*
X37728477Y-44695466D01*
X37665220Y-44500781D01*
X37572287Y-44318390D01*
X37451966Y-44152781D01*
X37307219Y-44008034D01*
X37141610Y-43887713D01*
X37141609Y-43887712D01*
X37141607Y-43887711D01*
X36959224Y-43794782D01*
X36959214Y-43794778D01*
X36764531Y-43731522D01*
X36562361Y-43699500D01*
X36562352Y-43699500D01*
X36357648Y-43699500D01*
X36357638Y-43699500D01*
X36155468Y-43731522D01*
X35960785Y-43794778D01*
X35960775Y-43794782D01*
X35778392Y-43887711D01*
X35612779Y-44008035D01*
X35468035Y-44152779D01*
X35347711Y-44318392D01*
X35254782Y-44500775D01*
X35254778Y-44500785D01*
X35191522Y-44695468D01*
X35159500Y-44897638D01*
X23045026Y-44897638D01*
X23067594Y-44841376D01*
X23071981Y-44831115D01*
X23309525Y-44308147D01*
X26858959Y-44308147D01*
X27071067Y-44520254D01*
X27071083Y-44520269D01*
X27151126Y-44585474D01*
X27151135Y-44585479D01*
X27307800Y-44664160D01*
X27307810Y-44664163D01*
X27478399Y-44704594D01*
X27478406Y-44704595D01*
X27653726Y-44704595D01*
X27653732Y-44704594D01*
X27824321Y-44664163D01*
X27824327Y-44664161D01*
X27981001Y-44585476D01*
X28061052Y-44520267D01*
X28167105Y-44414211D01*
X27460000Y-43707107D01*
X26858959Y-44308147D01*
X23309525Y-44308147D01*
X23429262Y-44044538D01*
X23434069Y-44034555D01*
X23826313Y-43264731D01*
X23831576Y-43254952D01*
X24086169Y-42806267D01*
X25755405Y-42806267D01*
X25755405Y-42981600D01*
X25795836Y-43152189D01*
X25795838Y-43152195D01*
X25874523Y-43308869D01*
X25939735Y-43388923D01*
X25939740Y-43388929D01*
X26151851Y-43601040D01*
X26752892Y-43000000D01*
X26687066Y-42934174D01*
X26960000Y-42934174D01*
X26960000Y-43065826D01*
X26994075Y-43192993D01*
X27059901Y-43307007D01*
X27152993Y-43400099D01*
X27267007Y-43465925D01*
X27394174Y-43500000D01*
X27525826Y-43500000D01*
X27652993Y-43465925D01*
X27767007Y-43400099D01*
X27860099Y-43307007D01*
X27925925Y-43192993D01*
X27960000Y-43065826D01*
X27960000Y-42934174D01*
X27925925Y-42807007D01*
X27860099Y-42692993D01*
X27767007Y-42599901D01*
X27652993Y-42534075D01*
X27525826Y-42500000D01*
X27394174Y-42500000D01*
X27267007Y-42534075D01*
X27152993Y-42599901D01*
X27059901Y-42692993D01*
X26994075Y-42807007D01*
X26960000Y-42934174D01*
X26687066Y-42934174D01*
X26045785Y-42292893D01*
X25939735Y-42398945D01*
X25939729Y-42398952D01*
X25874526Y-42478994D01*
X25874520Y-42479003D01*
X25795839Y-42635668D01*
X25795836Y-42635678D01*
X25755405Y-42806267D01*
X24086169Y-42806267D01*
X24257937Y-42503549D01*
X24263632Y-42494018D01*
X24723268Y-41762511D01*
X24729397Y-41753225D01*
X25221408Y-41043048D01*
X25227970Y-41034019D01*
X25237078Y-41022058D01*
X25751288Y-40346711D01*
X25758250Y-40337981D01*
X25783099Y-40308217D01*
X26311929Y-39674779D01*
X26319224Y-39666431D01*
X26586671Y-39373832D01*
X32086166Y-39373832D01*
X32790982Y-40078648D01*
X32821386Y-40105189D01*
X32821397Y-40105198D01*
X32975150Y-40197708D01*
X33145207Y-40255006D01*
X33145216Y-40255008D01*
X33323600Y-40274409D01*
X33323606Y-40274409D01*
X33501992Y-40255008D01*
X33672057Y-40197707D01*
X33672060Y-40197705D01*
X33770217Y-40138646D01*
X32545785Y-38914214D01*
X32086166Y-39373832D01*
X26586671Y-39373832D01*
X26902108Y-39028730D01*
X26909787Y-39020698D01*
X27520698Y-38409787D01*
X27528730Y-38402108D01*
X28166431Y-37819224D01*
X28174779Y-37811929D01*
X28837986Y-37258245D01*
X28846717Y-37251284D01*
X29534029Y-36727962D01*
X29543048Y-36721408D01*
X30253225Y-36229397D01*
X30262511Y-36223268D01*
X30994018Y-35763632D01*
X31003549Y-35757937D01*
X31592003Y-35424037D01*
X31684228Y-35393498D01*
X31781125Y-35400577D01*
X31867937Y-35444198D01*
X31931447Y-35517720D01*
X31961988Y-35609950D01*
X31954909Y-35706847D01*
X31950848Y-35720108D01*
X31911609Y-35836567D01*
X31911608Y-35836571D01*
X31901594Y-35928648D01*
X31872448Y-36021328D01*
X31810054Y-36095800D01*
X31723910Y-36140725D01*
X31680977Y-36149265D01*
X31589579Y-36159205D01*
X31419514Y-36216506D01*
X31419513Y-36216507D01*
X31265762Y-36309015D01*
X31265751Y-36309024D01*
X31235347Y-36335565D01*
X30674244Y-36896668D01*
X30647703Y-36927072D01*
X30647694Y-36927083D01*
X30555186Y-37080834D01*
X30555185Y-37080835D01*
X30497884Y-37250900D01*
X30478484Y-37429286D01*
X30478484Y-37429293D01*
X30497884Y-37607676D01*
X30497886Y-37607685D01*
X30555184Y-37777742D01*
X30647694Y-37931495D01*
X30647703Y-37931506D01*
X30674244Y-37961910D01*
X31379059Y-38666725D01*
X32369715Y-37676069D01*
X32450497Y-37622093D01*
X32545785Y-37603139D01*
X32641073Y-37622093D01*
X32721855Y-37676069D01*
X34477325Y-39431538D01*
X34497142Y-39398602D01*
X34562509Y-39326725D01*
X34650406Y-39285334D01*
X34747452Y-39280731D01*
X34838872Y-39313616D01*
X34910749Y-39378983D01*
X34952140Y-39466880D01*
X34959500Y-39526974D01*
X34959500Y-39982439D01*
X34940546Y-40077727D01*
X34886570Y-40158509D01*
X32618510Y-42426570D01*
X32537728Y-42480546D01*
X32442440Y-42499500D01*
X32013094Y-42499500D01*
X31917806Y-42480546D01*
X31837024Y-42426570D01*
X30749420Y-41338966D01*
X30695444Y-41258184D01*
X30679556Y-41201849D01*
X30663345Y-41099499D01*
X30651079Y-41022056D01*
X30585390Y-40819887D01*
X30488884Y-40630483D01*
X30363937Y-40458508D01*
X30001492Y-40096063D01*
X29951137Y-40059478D01*
X29829523Y-39971120D01*
X29829521Y-39971119D01*
X29829517Y-39971116D01*
X29640113Y-39874610D01*
X29640110Y-39874609D01*
X29640108Y-39874608D01*
X29437941Y-39808920D01*
X29227997Y-39775667D01*
X29227988Y-39775667D01*
X29015414Y-39775667D01*
X29015404Y-39775667D01*
X28805460Y-39808920D01*
X28603293Y-39874608D01*
X28603289Y-39874609D01*
X28603289Y-39874610D01*
X28413885Y-39971116D01*
X28413883Y-39971117D01*
X28413878Y-39971120D01*
X28241913Y-40096060D01*
X28091594Y-40246379D01*
X27966654Y-40418344D01*
X27966651Y-40418349D01*
X27966650Y-40418351D01*
X27905630Y-40538110D01*
X27870142Y-40607759D01*
X27804454Y-40809926D01*
X27771201Y-41019870D01*
X27771201Y-41058610D01*
X27752247Y-41153898D01*
X27698271Y-41234680D01*
X27617489Y-41288656D01*
X27522201Y-41307610D01*
X27464781Y-41300899D01*
X27441602Y-41295405D01*
X27266267Y-41295405D01*
X27095678Y-41335836D01*
X27095672Y-41335838D01*
X26938998Y-41414523D01*
X26858946Y-41479733D01*
X26752893Y-41585786D01*
X27459999Y-42292893D01*
X27460000Y-42292893D01*
X28874212Y-43707105D01*
X28980264Y-43601054D01*
X28980269Y-43601048D01*
X29045474Y-43521005D01*
X29045479Y-43520996D01*
X29124160Y-43364331D01*
X29124163Y-43364321D01*
X29164594Y-43193732D01*
X29164595Y-43193726D01*
X29164595Y-43185121D01*
X29183549Y-43089833D01*
X29237525Y-43009051D01*
X29318307Y-42955075D01*
X29413595Y-42936121D01*
X29508883Y-42955075D01*
X29589665Y-43009051D01*
X30718392Y-44137778D01*
X30718395Y-44137782D01*
X30857752Y-44277139D01*
X31021620Y-44386632D01*
X31150368Y-44439961D01*
X31203698Y-44462051D01*
X31300346Y-44481275D01*
X31396993Y-44500500D01*
X31396994Y-44500500D01*
X33058539Y-44500500D01*
X33058540Y-44500500D01*
X33058541Y-44500500D01*
X33155188Y-44481275D01*
X33251836Y-44462051D01*
X33305165Y-44439961D01*
X33433914Y-44386632D01*
X33597782Y-44277139D01*
X33737139Y-44137782D01*
X33737140Y-44137779D01*
X36737140Y-41137781D01*
X36846632Y-40973914D01*
X36894772Y-40857693D01*
X36948748Y-40776913D01*
X37029529Y-40722936D01*
X37124817Y-40703982D01*
X37220106Y-40722936D01*
X37274035Y-40753645D01*
X37327669Y-40793796D01*
X37462517Y-40844091D01*
X37522127Y-40850500D01*
X39110500Y-40850499D01*
X39205788Y-40869453D01*
X39286569Y-40923429D01*
X39340546Y-41004211D01*
X39359500Y-41099499D01*
X39359500Y-49244713D01*
X39340546Y-49340001D01*
X39286570Y-49420783D01*
X39205788Y-49474759D01*
X39110500Y-49493713D01*
X39015212Y-49474759D01*
X38961279Y-49444047D01*
X38877332Y-49381205D01*
X38877331Y-49381204D01*
X38752409Y-49334611D01*
X38742481Y-49330908D01*
X38682873Y-49324500D01*
X37237134Y-49324500D01*
X37237130Y-49324500D01*
X37237128Y-49324501D01*
X37224314Y-49325878D01*
X37177519Y-49330908D01*
X37177515Y-49330909D01*
X37042670Y-49381203D01*
X36927455Y-49467453D01*
X36927453Y-49467455D01*
X36841204Y-49582669D01*
X36790908Y-49717518D01*
X36784500Y-49777123D01*
X36784500Y-51222865D01*
X36784501Y-51222869D01*
X36790908Y-51282480D01*
X36790909Y-51282484D01*
X36841204Y-51417331D01*
X36890583Y-51483293D01*
X36932514Y-51570933D01*
X36937715Y-51667949D01*
X36906892Y-51757010D01*
X36900423Y-51768214D01*
X36900422Y-51768215D01*
X36859499Y-51920943D01*
X36859499Y-52099122D01*
X36859500Y-52099135D01*
X36859500Y-53804730D01*
X36840546Y-53900018D01*
X36786570Y-53980800D01*
X36705788Y-54034776D01*
X36688823Y-54041091D01*
X36540667Y-54090185D01*
X36391346Y-54182286D01*
X36267286Y-54306346D01*
X36175184Y-54455668D01*
X36120002Y-54622197D01*
X36120001Y-54622202D01*
X36120001Y-54622203D01*
X36115347Y-54667764D01*
X36114525Y-54675807D01*
X36085984Y-54768675D01*
X36024077Y-54843553D01*
X35938228Y-54889039D01*
X35866814Y-54899500D01*
X35311875Y-54899500D01*
X35216587Y-54880546D01*
X35135805Y-54826570D01*
X29900521Y-49591286D01*
X29900520Y-49591284D01*
X29788716Y-49479480D01*
X29701906Y-49429361D01*
X29701903Y-49429358D01*
X29651784Y-49400422D01*
X29651780Y-49400421D01*
X29495053Y-49358426D01*
X29407917Y-49315456D01*
X29343858Y-49242411D01*
X29312629Y-49150412D01*
X29310499Y-49117911D01*
X29310499Y-49062134D01*
X29310499Y-49062128D01*
X29304091Y-49002517D01*
X29253796Y-48867669D01*
X29167546Y-48752454D01*
X29052331Y-48666204D01*
X28972117Y-48636286D01*
X28917481Y-48615908D01*
X28857873Y-48609500D01*
X27062134Y-48609500D01*
X27062130Y-48609500D01*
X27062128Y-48609501D01*
X27049314Y-48610878D01*
X27002519Y-48615908D01*
X27002515Y-48615909D01*
X26867670Y-48666203D01*
X26752455Y-48752453D01*
X26752453Y-48752455D01*
X26666204Y-48867669D01*
X26615908Y-49002518D01*
X26609500Y-49062123D01*
X26609500Y-50857865D01*
X26609500Y-50857868D01*
X26609501Y-50857872D01*
X26611567Y-50877093D01*
X26615908Y-50917480D01*
X26615909Y-50917484D01*
X26630827Y-50957480D01*
X26666204Y-51052331D01*
X26752454Y-51167546D01*
X26867669Y-51253796D01*
X26867670Y-51253796D01*
X26881927Y-51264469D01*
X26879515Y-51267689D01*
X26928437Y-51308578D01*
X26973466Y-51394669D01*
X26982121Y-51491437D01*
X26953086Y-51584152D01*
X26925302Y-51624854D01*
X26921899Y-51628909D01*
X26786401Y-51822420D01*
X26703594Y-52000000D01*
X27894174Y-52000000D01*
X27767007Y-52034075D01*
X27652993Y-52099901D01*
X27559901Y-52192993D01*
X27494075Y-52307007D01*
X27460000Y-52434174D01*
X27460000Y-52565826D01*
X27494075Y-52692993D01*
X27559901Y-52807007D01*
X27652993Y-52900099D01*
X27767007Y-52965925D01*
X27894174Y-53000000D01*
X26703592Y-53000000D01*
X26786395Y-53177571D01*
X26786396Y-53177572D01*
X26921889Y-53371076D01*
X27088923Y-53538110D01*
X27128361Y-53565725D01*
X27195545Y-53635907D01*
X27230757Y-53726456D01*
X27228638Y-53823588D01*
X27189509Y-53912515D01*
X27128363Y-53973661D01*
X27088602Y-54001502D01*
X26921504Y-54168600D01*
X26785965Y-54362169D01*
X26785961Y-54362177D01*
X26686098Y-54576333D01*
X26686097Y-54576335D01*
X26624935Y-54804598D01*
X26604341Y-55039994D01*
X26604341Y-55040005D01*
X26624935Y-55275401D01*
X26624937Y-55275408D01*
X26686097Y-55503663D01*
X26785965Y-55717830D01*
X26891616Y-55868716D01*
X26921505Y-55911401D01*
X27088599Y-56078495D01*
X27282170Y-56214035D01*
X27496337Y-56313903D01*
X27724592Y-56375063D01*
X27724595Y-56375063D01*
X27724598Y-56375064D01*
X27959995Y-56395659D01*
X27960000Y-56395659D01*
X27960005Y-56395659D01*
X28195401Y-56375064D01*
X28195403Y-56375063D01*
X28195408Y-56375063D01*
X28423663Y-56313903D01*
X28637830Y-56214035D01*
X28831401Y-56078495D01*
X28998495Y-55911401D01*
X29134035Y-55717830D01*
X29233903Y-55503663D01*
X29295063Y-55275408D01*
X29300437Y-55213984D01*
X29315659Y-55040005D01*
X29315659Y-55039994D01*
X29295064Y-54804598D01*
X29295063Y-54804595D01*
X29295063Y-54804592D01*
X29233903Y-54576337D01*
X29152690Y-54402177D01*
X29134038Y-54362177D01*
X29134034Y-54362169D01*
X29054037Y-54247922D01*
X28998495Y-54168599D01*
X28831401Y-54001505D01*
X28831397Y-54001502D01*
X28831396Y-54001501D01*
X28791638Y-53973662D01*
X28724454Y-53903481D01*
X28689242Y-53812931D01*
X28691362Y-53715800D01*
X28730491Y-53626873D01*
X28791640Y-53565724D01*
X28831075Y-53538111D01*
X28998110Y-53371076D01*
X29133603Y-53177572D01*
X29133604Y-53177571D01*
X29216407Y-53000000D01*
X28025826Y-53000000D01*
X28152993Y-52965925D01*
X28267007Y-52900099D01*
X28360099Y-52807007D01*
X28425925Y-52692993D01*
X28460000Y-52565826D01*
X28460000Y-52434174D01*
X28425925Y-52307007D01*
X28360099Y-52192993D01*
X28267007Y-52099901D01*
X28152993Y-52034075D01*
X28025826Y-52000000D01*
X29216405Y-52000000D01*
X29133598Y-51822420D01*
X28998106Y-51628918D01*
X28994704Y-51624863D01*
X28992665Y-51621147D01*
X28991874Y-51620017D01*
X28991997Y-51619930D01*
X28947974Y-51539685D01*
X28937398Y-51443107D01*
X28964585Y-51349834D01*
X29025397Y-51274064D01*
X29038540Y-51265093D01*
X29038073Y-51264469D01*
X29052329Y-51253796D01*
X29052331Y-51253796D01*
X29167546Y-51167546D01*
X29253796Y-51052331D01*
X29253795Y-51052331D01*
X29256813Y-51048301D01*
X29329091Y-50983378D01*
X29420712Y-50951056D01*
X29517728Y-50956257D01*
X29605368Y-50998188D01*
X29632217Y-51021452D01*
X34479478Y-55868713D01*
X34479480Y-55868716D01*
X34591284Y-55980520D01*
X34678091Y-56030637D01*
X34678094Y-56030639D01*
X34728208Y-56059573D01*
X34728215Y-56059577D01*
X34854298Y-56093360D01*
X34880939Y-56100499D01*
X34880941Y-56100500D01*
X34880943Y-56100500D01*
X35039057Y-56100500D01*
X35866815Y-56100500D01*
X35962103Y-56119454D01*
X36042885Y-56173430D01*
X36096861Y-56254212D01*
X36114525Y-56324193D01*
X36117560Y-56353903D01*
X36120001Y-56377800D01*
X36162083Y-56504792D01*
X36175186Y-56544334D01*
X36267288Y-56693656D01*
X36391344Y-56817712D01*
X36540666Y-56909814D01*
X36540669Y-56909815D01*
X36540667Y-56909815D01*
X36704310Y-56964040D01*
X36707203Y-56964999D01*
X36809991Y-56975500D01*
X38110008Y-56975499D01*
X38212797Y-56964999D01*
X38379334Y-56909814D01*
X38528656Y-56817712D01*
X38652712Y-56693656D01*
X38665185Y-56673433D01*
X38731336Y-56602284D01*
X38819684Y-56561863D01*
X38916775Y-56558329D01*
X39007827Y-56592218D01*
X39053184Y-56628080D01*
X39080208Y-56655104D01*
X39252184Y-56780051D01*
X39441588Y-56876557D01*
X39643757Y-56942246D01*
X39717601Y-56953941D01*
X39853703Y-56975499D01*
X39853710Y-56975499D01*
X39853713Y-56975500D01*
X39853716Y-56975500D01*
X40066284Y-56975500D01*
X40066287Y-56975500D01*
X40066290Y-56975499D01*
X40066296Y-56975499D01*
X40165476Y-56959789D01*
X40276243Y-56942246D01*
X40478412Y-56876557D01*
X40667816Y-56780051D01*
X40839792Y-56655104D01*
X40990104Y-56504792D01*
X41008554Y-56479396D01*
X41079894Y-56413449D01*
X41171044Y-56379820D01*
X41268124Y-56383633D01*
X41356355Y-56424306D01*
X41411444Y-56479395D01*
X41429896Y-56504792D01*
X41580208Y-56655104D01*
X41752184Y-56780051D01*
X41941588Y-56876557D01*
X42143757Y-56942246D01*
X42217601Y-56953941D01*
X42353703Y-56975499D01*
X42353710Y-56975499D01*
X42353713Y-56975500D01*
X42353716Y-56975500D01*
X42566284Y-56975500D01*
X42566287Y-56975500D01*
X42566290Y-56975499D01*
X42566296Y-56975499D01*
X42665476Y-56959789D01*
X42776243Y-56942246D01*
X42978412Y-56876557D01*
X43167816Y-56780051D01*
X43339792Y-56655104D01*
X43490104Y-56504792D01*
X43508554Y-56479396D01*
X43579894Y-56413449D01*
X43671044Y-56379820D01*
X43768124Y-56383633D01*
X43856355Y-56424306D01*
X43911444Y-56479395D01*
X43929896Y-56504792D01*
X44080208Y-56655104D01*
X44252184Y-56780051D01*
X44252187Y-56780052D01*
X44256858Y-56783446D01*
X44322807Y-56854789D01*
X44356434Y-56945939D01*
X44359500Y-56984892D01*
X44359500Y-59163124D01*
X44340546Y-59258412D01*
X44286570Y-59339194D01*
X39549194Y-64076570D01*
X39468412Y-64130546D01*
X39373124Y-64149500D01*
X37577134Y-64149500D01*
X37577130Y-64149500D01*
X37577128Y-64149501D01*
X37564314Y-64150878D01*
X37517519Y-64155908D01*
X37517515Y-64155909D01*
X37382670Y-64206203D01*
X37267455Y-64292453D01*
X37267453Y-64292455D01*
X37181204Y-64407669D01*
X37130908Y-64542518D01*
X37124500Y-64602123D01*
X37124500Y-66397865D01*
X37124501Y-66397869D01*
X37130908Y-66457480D01*
X37130909Y-66457484D01*
X37180405Y-66590190D01*
X37181204Y-66592331D01*
X37267454Y-66707546D01*
X37382669Y-66793796D01*
X37517517Y-66844091D01*
X37577127Y-66850500D01*
X39372872Y-66850499D01*
X39432483Y-66844091D01*
X39567331Y-66793796D01*
X39682546Y-66707546D01*
X39768796Y-66592331D01*
X39768796Y-66592329D01*
X39779469Y-66578073D01*
X39782692Y-66580485D01*
X39823534Y-66531597D01*
X39909614Y-66486549D01*
X40006381Y-66477872D01*
X40099102Y-66506886D01*
X40139863Y-66534704D01*
X40143918Y-66538106D01*
X40337423Y-66673600D01*
X40515000Y-66756405D01*
X40515000Y-65565826D01*
X40549075Y-65692993D01*
X40614901Y-65807007D01*
X40707993Y-65900099D01*
X40822007Y-65965925D01*
X40949174Y-66000000D01*
X41080826Y-66000000D01*
X41207993Y-65965925D01*
X41322007Y-65900099D01*
X41415099Y-65807007D01*
X41480925Y-65692993D01*
X41515000Y-65565826D01*
X41515000Y-66756405D01*
X41692576Y-66673600D01*
X41886076Y-66538110D01*
X42053111Y-66371075D01*
X42080724Y-66331640D01*
X42150905Y-66264456D01*
X42241454Y-66229242D01*
X42338586Y-66231361D01*
X42427513Y-66270489D01*
X42488662Y-66331638D01*
X42516501Y-66371396D01*
X42516505Y-66371401D01*
X42683599Y-66538495D01*
X42877170Y-66674035D01*
X43091337Y-66773903D01*
X43319592Y-66835063D01*
X43319595Y-66835063D01*
X43319598Y-66835064D01*
X43554995Y-66855659D01*
X43555000Y-66855659D01*
X43555005Y-66855659D01*
X43790401Y-66835064D01*
X43790403Y-66835063D01*
X43790408Y-66835063D01*
X44018663Y-66773903D01*
X44232830Y-66674035D01*
X44426401Y-66538495D01*
X44593495Y-66371401D01*
X44729035Y-66177830D01*
X44828903Y-65963663D01*
X44890063Y-65735408D01*
X44910659Y-65500000D01*
X44910659Y-65499994D01*
X44890064Y-65264598D01*
X44890063Y-65264595D01*
X44890063Y-65264592D01*
X44828903Y-65036337D01*
X44729035Y-64822171D01*
X44694665Y-64773086D01*
X44652734Y-64713202D01*
X44593495Y-64628599D01*
X44426401Y-64461505D01*
X44232830Y-64325965D01*
X44018663Y-64226097D01*
X44018660Y-64226096D01*
X43790401Y-64164935D01*
X43555005Y-64144341D01*
X43554995Y-64144341D01*
X43319598Y-64164935D01*
X43091335Y-64226097D01*
X43091333Y-64226098D01*
X42877177Y-64325961D01*
X42877169Y-64325965D01*
X42683600Y-64461504D01*
X42516502Y-64628602D01*
X42488661Y-64668363D01*
X42418479Y-64735546D01*
X42327929Y-64770758D01*
X42230797Y-64768637D01*
X42141871Y-64729507D01*
X42080725Y-64668361D01*
X42053110Y-64628923D01*
X41886076Y-64461889D01*
X41692573Y-64326397D01*
X41541063Y-64255746D01*
X41462713Y-64198297D01*
X41412312Y-64115238D01*
X41397533Y-64019214D01*
X41420626Y-63924843D01*
X41470221Y-63854012D01*
X42824233Y-62500000D01*
X49654652Y-62500000D01*
X49674027Y-62857367D01*
X49731927Y-63210547D01*
X49731929Y-63210554D01*
X49827677Y-63555407D01*
X49960150Y-63887887D01*
X49960151Y-63887889D01*
X50127787Y-64204082D01*
X50127792Y-64204091D01*
X50264394Y-64405563D01*
X50328635Y-64500311D01*
X50465990Y-64662018D01*
X50560331Y-64773085D01*
X50820155Y-65019204D01*
X50820158Y-65019207D01*
X50820163Y-65019211D01*
X51105081Y-65235800D01*
X51411747Y-65420315D01*
X51411751Y-65420317D01*
X51411753Y-65420318D01*
X51411755Y-65420319D01*
X51736549Y-65570584D01*
X51736553Y-65570585D01*
X51736565Y-65570591D01*
X52075726Y-65684868D01*
X52305300Y-65735401D01*
X52425248Y-65761804D01*
X52425251Y-65761804D01*
X52425254Y-65761805D01*
X52520544Y-65772168D01*
X52781046Y-65800500D01*
X52781052Y-65800500D01*
X53138954Y-65800500D01*
X53348350Y-65777726D01*
X53494746Y-65761805D01*
X53844274Y-65684868D01*
X54183435Y-65570591D01*
X54508253Y-65420315D01*
X54814919Y-65235800D01*
X55099837Y-65019211D01*
X55359668Y-64773086D01*
X55591365Y-64500311D01*
X55792211Y-64204085D01*
X55959853Y-63887880D01*
X56092324Y-63555403D01*
X56188071Y-63210552D01*
X56245972Y-62857371D01*
X56265348Y-62500000D01*
X56245972Y-62142629D01*
X56188071Y-61789448D01*
X56092324Y-61444597D01*
X55959853Y-61112120D01*
X55792211Y-60795915D01*
X55792210Y-60795914D01*
X55792207Y-60795908D01*
X55591366Y-60499691D01*
X55591365Y-60499689D01*
X55359668Y-60226914D01*
X55321527Y-60190785D01*
X55099844Y-59980795D01*
X55099839Y-59980791D01*
X55099837Y-59980789D01*
X54814919Y-59764200D01*
X54508253Y-59579685D01*
X54508251Y-59579684D01*
X54508246Y-59579681D01*
X54508244Y-59579680D01*
X54183450Y-59429415D01*
X54183439Y-59429410D01*
X54183435Y-59429409D01*
X53844274Y-59315132D01*
X53844263Y-59315129D01*
X53844261Y-59315129D01*
X53494751Y-59238195D01*
X53494752Y-59238195D01*
X53138954Y-59199500D01*
X53138948Y-59199500D01*
X52781052Y-59199500D01*
X52781046Y-59199500D01*
X52425248Y-59238195D01*
X52075738Y-59315129D01*
X52075732Y-59315130D01*
X52075726Y-59315132D01*
X51952010Y-59356817D01*
X51736565Y-59429409D01*
X51736549Y-59429415D01*
X51411755Y-59579680D01*
X51411753Y-59579681D01*
X51105080Y-59764200D01*
X50820160Y-59980791D01*
X50820155Y-59980795D01*
X50560331Y-60226914D01*
X50328633Y-60499691D01*
X50127792Y-60795908D01*
X50127787Y-60795917D01*
X49960151Y-61112110D01*
X49960150Y-61112112D01*
X49827677Y-61444592D01*
X49731929Y-61789445D01*
X49731927Y-61789452D01*
X49674027Y-62142632D01*
X49654652Y-62500000D01*
X42824233Y-62500000D01*
X45328713Y-59995521D01*
X45328716Y-59995520D01*
X45440520Y-59883716D01*
X45509522Y-59764200D01*
X45519577Y-59746785D01*
X45560501Y-59594057D01*
X45560501Y-59435943D01*
X45560501Y-59420683D01*
X45560500Y-59420665D01*
X45560500Y-56984892D01*
X45579454Y-56889604D01*
X45633430Y-56808822D01*
X45663142Y-56783446D01*
X45667812Y-56780052D01*
X45667816Y-56780051D01*
X45839792Y-56655104D01*
X45990104Y-56504792D01*
X46115051Y-56332816D01*
X46211557Y-56143412D01*
X46277246Y-55941243D01*
X46310500Y-55731287D01*
X46310500Y-55268713D01*
X46310499Y-55268710D01*
X46310499Y-55268703D01*
X46280611Y-55080005D01*
X46277246Y-55058757D01*
X46211557Y-54856588D01*
X46115051Y-54667184D01*
X45990104Y-54495208D01*
X45839792Y-54344896D01*
X45667816Y-54219949D01*
X45478412Y-54123443D01*
X45478409Y-54123442D01*
X45478407Y-54123441D01*
X45276240Y-54057753D01*
X45066296Y-54024500D01*
X45066287Y-54024500D01*
X44853713Y-54024500D01*
X44853704Y-54024500D01*
X44848443Y-54025334D01*
X44844892Y-54025194D01*
X44843956Y-54025268D01*
X44843947Y-54025157D01*
X44751363Y-54021516D01*
X44663134Y-53980838D01*
X44597188Y-53909492D01*
X44563564Y-53818341D01*
X44560500Y-53779398D01*
X44560500Y-51649466D01*
X44579454Y-51554178D01*
X44633430Y-51473396D01*
X44662972Y-51450000D01*
X44662240Y-51449030D01*
X44671430Y-51442089D01*
X44671429Y-51442089D01*
X44671432Y-51442088D01*
X44832427Y-51295322D01*
X44963712Y-51121472D01*
X45060817Y-50926459D01*
X45120435Y-50716923D01*
X45140536Y-50500000D01*
X45131036Y-50397474D01*
X45141118Y-50300843D01*
X45187411Y-50215426D01*
X45262867Y-50154227D01*
X45356000Y-50126562D01*
X45378974Y-50125500D01*
X52360501Y-50125500D01*
X52455789Y-50144454D01*
X52536571Y-50198430D01*
X52590547Y-50279212D01*
X52609501Y-50374500D01*
X52609501Y-50897872D01*
X52611567Y-50917093D01*
X52615908Y-50957480D01*
X52615909Y-50957484D01*
X52651285Y-51052331D01*
X52666204Y-51092331D01*
X52752454Y-51207546D01*
X52867669Y-51293796D01*
X52867670Y-51293796D01*
X52881927Y-51304469D01*
X52879515Y-51307689D01*
X52928437Y-51348578D01*
X52973466Y-51434669D01*
X52982121Y-51531437D01*
X52953086Y-51624152D01*
X52925302Y-51664854D01*
X52921899Y-51668909D01*
X52786401Y-51862420D01*
X52703594Y-52040000D01*
X53894174Y-52040000D01*
X53767007Y-52074075D01*
X53652993Y-52139901D01*
X53559901Y-52232993D01*
X53494075Y-52347007D01*
X53460000Y-52474174D01*
X53460000Y-52605826D01*
X53494075Y-52732993D01*
X53559901Y-52847007D01*
X53652993Y-52940099D01*
X53767007Y-53005925D01*
X53894174Y-53040000D01*
X52703592Y-53040000D01*
X52786395Y-53217571D01*
X52786396Y-53217572D01*
X52921889Y-53411076D01*
X53088923Y-53578110D01*
X53128361Y-53605725D01*
X53195545Y-53675907D01*
X53230757Y-53766456D01*
X53228638Y-53863588D01*
X53189509Y-53952515D01*
X53128363Y-54013661D01*
X53088602Y-54041502D01*
X52921504Y-54208600D01*
X52785965Y-54402169D01*
X52785961Y-54402177D01*
X52686098Y-54616333D01*
X52686097Y-54616335D01*
X52624935Y-54844598D01*
X52604341Y-55079994D01*
X52604341Y-55080005D01*
X52624935Y-55315401D01*
X52624937Y-55315408D01*
X52686097Y-55543663D01*
X52785965Y-55757830D01*
X52921505Y-55951401D01*
X53088599Y-56118495D01*
X53282170Y-56254035D01*
X53496337Y-56353903D01*
X53724592Y-56415063D01*
X53724595Y-56415063D01*
X53724598Y-56415064D01*
X53959995Y-56435659D01*
X53960000Y-56435659D01*
X53960005Y-56435659D01*
X54195401Y-56415064D01*
X54195403Y-56415063D01*
X54195408Y-56415063D01*
X54423663Y-56353903D01*
X54637830Y-56254035D01*
X54831401Y-56118495D01*
X54998495Y-55951401D01*
X55134035Y-55757830D01*
X55233903Y-55543663D01*
X55295063Y-55315408D01*
X55298563Y-55275408D01*
X55315659Y-55080005D01*
X55315659Y-55079994D01*
X55312159Y-55039994D01*
X56604341Y-55039994D01*
X56604341Y-55040005D01*
X56624935Y-55275401D01*
X56624937Y-55275408D01*
X56686097Y-55503663D01*
X56785965Y-55717830D01*
X56891616Y-55868716D01*
X56921505Y-55911401D01*
X57088599Y-56078495D01*
X57282170Y-56214035D01*
X57496337Y-56313903D01*
X57724592Y-56375063D01*
X57724595Y-56375063D01*
X57724598Y-56375064D01*
X57959995Y-56395659D01*
X57960000Y-56395659D01*
X57960005Y-56395659D01*
X58195401Y-56375064D01*
X58195403Y-56375063D01*
X58195408Y-56375063D01*
X58423663Y-56313903D01*
X58637830Y-56214035D01*
X58831401Y-56078495D01*
X58998495Y-55911401D01*
X59134035Y-55717830D01*
X59233903Y-55503663D01*
X59295063Y-55275408D01*
X59300437Y-55213984D01*
X59315659Y-55040005D01*
X59315659Y-55039994D01*
X59295064Y-54804598D01*
X59295063Y-54804595D01*
X59295063Y-54804592D01*
X59233903Y-54576337D01*
X59152690Y-54402177D01*
X59134038Y-54362177D01*
X59134034Y-54362169D01*
X59054037Y-54247922D01*
X58998495Y-54168599D01*
X58831401Y-54001505D01*
X58831397Y-54001502D01*
X58831396Y-54001501D01*
X58791638Y-53973662D01*
X58724454Y-53903481D01*
X58689242Y-53812931D01*
X58691362Y-53715800D01*
X58730491Y-53626873D01*
X58791640Y-53565724D01*
X58831075Y-53538111D01*
X58998110Y-53371076D01*
X59133603Y-53177572D01*
X59133604Y-53177571D01*
X59216407Y-53000000D01*
X58025826Y-53000000D01*
X58152993Y-52965925D01*
X58267007Y-52900099D01*
X58360099Y-52807007D01*
X58425925Y-52692993D01*
X58460000Y-52565826D01*
X58460000Y-52434174D01*
X58425925Y-52307007D01*
X58360099Y-52192993D01*
X58267007Y-52099901D01*
X58152993Y-52034075D01*
X58025826Y-52000000D01*
X59216405Y-52000000D01*
X59133598Y-51822420D01*
X58998106Y-51628918D01*
X58994704Y-51624863D01*
X58992665Y-51621147D01*
X58991874Y-51620017D01*
X58991997Y-51619930D01*
X58947974Y-51539685D01*
X58937398Y-51443107D01*
X58964585Y-51349834D01*
X59025397Y-51274064D01*
X59038540Y-51265093D01*
X59038073Y-51264469D01*
X59052329Y-51253796D01*
X59052331Y-51253796D01*
X59167546Y-51167546D01*
X59253796Y-51052331D01*
X59304091Y-50917483D01*
X59310500Y-50857873D01*
X59310499Y-49062128D01*
X59304091Y-49002517D01*
X59253796Y-48867669D01*
X59167546Y-48752454D01*
X59052331Y-48666204D01*
X58972117Y-48636286D01*
X58917481Y-48615908D01*
X58857873Y-48609500D01*
X57062134Y-48609500D01*
X57062130Y-48609500D01*
X57062128Y-48609501D01*
X57049314Y-48610878D01*
X57002519Y-48615908D01*
X57002515Y-48615909D01*
X56867670Y-48666203D01*
X56752455Y-48752453D01*
X56752453Y-48752455D01*
X56666204Y-48867669D01*
X56615908Y-49002518D01*
X56609500Y-49062123D01*
X56609500Y-50857865D01*
X56609500Y-50857868D01*
X56609501Y-50857872D01*
X56611567Y-50877093D01*
X56615908Y-50917480D01*
X56615909Y-50917484D01*
X56630827Y-50957480D01*
X56666204Y-51052331D01*
X56752454Y-51167546D01*
X56867669Y-51253796D01*
X56867670Y-51253796D01*
X56881927Y-51264469D01*
X56879515Y-51267689D01*
X56928437Y-51308578D01*
X56973466Y-51394669D01*
X56982121Y-51491437D01*
X56953086Y-51584152D01*
X56925302Y-51624854D01*
X56921899Y-51628909D01*
X56786401Y-51822420D01*
X56703594Y-52000000D01*
X57894174Y-52000000D01*
X57767007Y-52034075D01*
X57652993Y-52099901D01*
X57559901Y-52192993D01*
X57494075Y-52307007D01*
X57460000Y-52434174D01*
X57460000Y-52565826D01*
X57494075Y-52692993D01*
X57559901Y-52807007D01*
X57652993Y-52900099D01*
X57767007Y-52965925D01*
X57894174Y-53000000D01*
X56703592Y-53000000D01*
X56786395Y-53177571D01*
X56786396Y-53177572D01*
X56921889Y-53371076D01*
X57088923Y-53538110D01*
X57128361Y-53565725D01*
X57195545Y-53635907D01*
X57230757Y-53726456D01*
X57228638Y-53823588D01*
X57189509Y-53912515D01*
X57128363Y-53973661D01*
X57088602Y-54001502D01*
X56921504Y-54168600D01*
X56785965Y-54362169D01*
X56785961Y-54362177D01*
X56686098Y-54576333D01*
X56686097Y-54576335D01*
X56624935Y-54804598D01*
X56604341Y-55039994D01*
X55312159Y-55039994D01*
X55295064Y-54844598D01*
X55295063Y-54844595D01*
X55295063Y-54844592D01*
X55233903Y-54616337D01*
X55134035Y-54402171D01*
X55112850Y-54371916D01*
X55066936Y-54306344D01*
X54998495Y-54208599D01*
X54831401Y-54041505D01*
X54831397Y-54041502D01*
X54831396Y-54041501D01*
X54791638Y-54013662D01*
X54724454Y-53943481D01*
X54689242Y-53852931D01*
X54691362Y-53755800D01*
X54730491Y-53666873D01*
X54791640Y-53605724D01*
X54831075Y-53578111D01*
X54998110Y-53411076D01*
X55133603Y-53217572D01*
X55133604Y-53217571D01*
X55216407Y-53040000D01*
X54025826Y-53040000D01*
X54152993Y-53005925D01*
X54267007Y-52940099D01*
X54360099Y-52847007D01*
X54425925Y-52732993D01*
X54460000Y-52605826D01*
X54460000Y-52474174D01*
X54425925Y-52347007D01*
X54360099Y-52232993D01*
X54267007Y-52139901D01*
X54152993Y-52074075D01*
X54025826Y-52040000D01*
X55216405Y-52040000D01*
X55133598Y-51862420D01*
X54998106Y-51668918D01*
X54994704Y-51664863D01*
X54992665Y-51661147D01*
X54991874Y-51660017D01*
X54991997Y-51659930D01*
X54947974Y-51579685D01*
X54937398Y-51483107D01*
X54964585Y-51389834D01*
X55025397Y-51314064D01*
X55038540Y-51305093D01*
X55038073Y-51304469D01*
X55052329Y-51293796D01*
X55052331Y-51293796D01*
X55167546Y-51207546D01*
X55253796Y-51092331D01*
X55304091Y-50957483D01*
X55310500Y-50897873D01*
X55310499Y-49102128D01*
X55304091Y-49042517D01*
X55253796Y-48907669D01*
X55167546Y-48792454D01*
X55052331Y-48706204D01*
X54972117Y-48676286D01*
X54917481Y-48655908D01*
X54857873Y-48649500D01*
X53062134Y-48649500D01*
X53062130Y-48649500D01*
X53062128Y-48649501D01*
X53049314Y-48650878D01*
X53002519Y-48655908D01*
X53002515Y-48655909D01*
X52867670Y-48706203D01*
X52752455Y-48792453D01*
X52752451Y-48792457D01*
X52728299Y-48824721D01*
X52656021Y-48889644D01*
X52564400Y-48921966D01*
X52528965Y-48924500D01*
X42855942Y-48924500D01*
X42703213Y-48965423D01*
X42653096Y-48994358D01*
X42653095Y-48994360D01*
X42566284Y-49044480D01*
X42566283Y-49044481D01*
X42566280Y-49044483D01*
X42454479Y-49156283D01*
X42454480Y-49156284D01*
X42454478Y-49156286D01*
X42454477Y-49156286D01*
X42344842Y-49265920D01*
X42264060Y-49319896D01*
X42168772Y-49338850D01*
X42123024Y-49334611D01*
X42068929Y-49324500D01*
X42068926Y-49324500D01*
X41851074Y-49324500D01*
X41851071Y-49324500D01*
X41636933Y-49364529D01*
X41636929Y-49364530D01*
X41433798Y-49443224D01*
X41433784Y-49443231D01*
X41248569Y-49557910D01*
X41127749Y-49668052D01*
X41044561Y-49718240D01*
X40948499Y-49732772D01*
X40854188Y-49709437D01*
X40792250Y-49668051D01*
X40671432Y-49557911D01*
X40662248Y-49550976D01*
X40663939Y-49548736D01*
X40607355Y-49495923D01*
X40567104Y-49407498D01*
X40560500Y-49350533D01*
X40560500Y-44897638D01*
X44159500Y-44897638D01*
X44159500Y-45102361D01*
X44191522Y-45304531D01*
X44254778Y-45499214D01*
X44254782Y-45499224D01*
X44347711Y-45681607D01*
X44347713Y-45681610D01*
X44468034Y-45847219D01*
X44612781Y-45991966D01*
X44778390Y-46112287D01*
X44960781Y-46205220D01*
X45155466Y-46268477D01*
X45226575Y-46279739D01*
X45357638Y-46300499D01*
X45357645Y-46300499D01*
X45357648Y-46300500D01*
X45357651Y-46300500D01*
X45562349Y-46300500D01*
X45562352Y-46300500D01*
X45562355Y-46300499D01*
X45562361Y-46300499D01*
X45657870Y-46285371D01*
X45764534Y-46268477D01*
X45959219Y-46205220D01*
X46141610Y-46112287D01*
X46307219Y-45991966D01*
X46451966Y-45847219D01*
X46572287Y-45681610D01*
X46665220Y-45499219D01*
X46728477Y-45304534D01*
X46760500Y-45102352D01*
X46760500Y-44897648D01*
X46760499Y-44897645D01*
X46760499Y-44897638D01*
X46729923Y-44704595D01*
X46728477Y-44695466D01*
X46665220Y-44500781D01*
X46572287Y-44318390D01*
X46451966Y-44152781D01*
X46307219Y-44008034D01*
X46141610Y-43887713D01*
X46141609Y-43887712D01*
X46141607Y-43887711D01*
X45959224Y-43794782D01*
X45959214Y-43794778D01*
X45764531Y-43731522D01*
X45562361Y-43699500D01*
X45562352Y-43699500D01*
X45357648Y-43699500D01*
X45357638Y-43699500D01*
X45155468Y-43731522D01*
X44960785Y-43794778D01*
X44960775Y-43794782D01*
X44778392Y-43887711D01*
X44612779Y-44008035D01*
X44468035Y-44152779D01*
X44347711Y-44318392D01*
X44254782Y-44500775D01*
X44254778Y-44500785D01*
X44191522Y-44695468D01*
X44159500Y-44897638D01*
X40560500Y-44897638D01*
X40560500Y-43000000D01*
X49654652Y-43000000D01*
X49674027Y-43357367D01*
X49731927Y-43710547D01*
X49731929Y-43710554D01*
X49827677Y-44055407D01*
X49960150Y-44387887D01*
X49960151Y-44387889D01*
X50127787Y-44704082D01*
X50127792Y-44704091D01*
X50259029Y-44897650D01*
X50328635Y-45000311D01*
X50415317Y-45102361D01*
X50560331Y-45273085D01*
X50820155Y-45519204D01*
X50820158Y-45519207D01*
X50820163Y-45519211D01*
X51105081Y-45735800D01*
X51411747Y-45920315D01*
X51411751Y-45920317D01*
X51411753Y-45920318D01*
X51411755Y-45920319D01*
X51736549Y-46070584D01*
X51736553Y-46070585D01*
X51736565Y-46070591D01*
X52075726Y-46184868D01*
X52308744Y-46236159D01*
X52425248Y-46261804D01*
X52425251Y-46261804D01*
X52425254Y-46261805D01*
X52486603Y-46268477D01*
X52781046Y-46300500D01*
X52781052Y-46300500D01*
X53138954Y-46300500D01*
X53348350Y-46277726D01*
X53494746Y-46261805D01*
X53844274Y-46184868D01*
X54183435Y-46070591D01*
X54508253Y-45920315D01*
X54814919Y-45735800D01*
X55099837Y-45519211D01*
X55359668Y-45273086D01*
X55591365Y-45000311D01*
X55792211Y-44704085D01*
X55959853Y-44387880D01*
X56092324Y-44055403D01*
X56188071Y-43710552D01*
X56245972Y-43357371D01*
X56265348Y-43000000D01*
X56245972Y-42642629D01*
X56188071Y-42289448D01*
X56092324Y-41944597D01*
X55959853Y-41612120D01*
X55792211Y-41295915D01*
X55792210Y-41295914D01*
X55792207Y-41295908D01*
X55631314Y-41058610D01*
X55591365Y-40999689D01*
X55359668Y-40726914D01*
X55355468Y-40722936D01*
X55099844Y-40480795D01*
X55099839Y-40480791D01*
X55099837Y-40480789D01*
X54814919Y-40264200D01*
X54508253Y-40079685D01*
X54508251Y-40079684D01*
X54508246Y-40079681D01*
X54508244Y-40079680D01*
X54183450Y-39929415D01*
X54183439Y-39929410D01*
X54183435Y-39929409D01*
X53844274Y-39815132D01*
X53844263Y-39815129D01*
X53844261Y-39815129D01*
X53494751Y-39738195D01*
X53494752Y-39738195D01*
X53138954Y-39699500D01*
X53138948Y-39699500D01*
X52781052Y-39699500D01*
X52781046Y-39699500D01*
X52425248Y-39738195D01*
X52075738Y-39815129D01*
X52075732Y-39815130D01*
X52075726Y-39815132D01*
X51823554Y-39900099D01*
X51736565Y-39929409D01*
X51736549Y-39929415D01*
X51411755Y-40079680D01*
X51411753Y-40079681D01*
X51105080Y-40264200D01*
X50820160Y-40480791D01*
X50820155Y-40480795D01*
X50560331Y-40726914D01*
X50328633Y-40999691D01*
X50127792Y-41295908D01*
X50127787Y-41295917D01*
X49960151Y-41612110D01*
X49960150Y-41612112D01*
X49827677Y-41944592D01*
X49731929Y-42289445D01*
X49731927Y-42289452D01*
X49674027Y-42642632D01*
X49654652Y-43000000D01*
X40560500Y-43000000D01*
X40560500Y-40639135D01*
X40560501Y-40639122D01*
X40560501Y-40460943D01*
X40536507Y-40371397D01*
X40519577Y-40308215D01*
X40493358Y-40262803D01*
X40462130Y-40170806D01*
X40460000Y-40138305D01*
X40460000Y-39565826D01*
X40494075Y-39692993D01*
X40559901Y-39807007D01*
X40652993Y-39900099D01*
X40767007Y-39965925D01*
X40894174Y-40000000D01*
X41025826Y-40000000D01*
X41152993Y-39965925D01*
X41267007Y-39900099D01*
X41360099Y-39807007D01*
X41425925Y-39692993D01*
X41460000Y-39565826D01*
X41460000Y-40756405D01*
X41637576Y-40673600D01*
X41831076Y-40538110D01*
X41998111Y-40371075D01*
X42025724Y-40331640D01*
X42095905Y-40264456D01*
X42186454Y-40229242D01*
X42283586Y-40231361D01*
X42372513Y-40270489D01*
X42433662Y-40331638D01*
X42461501Y-40371396D01*
X42461505Y-40371401D01*
X42628599Y-40538495D01*
X42822170Y-40674035D01*
X43036337Y-40773903D01*
X43264592Y-40835063D01*
X43264595Y-40835063D01*
X43264598Y-40835064D01*
X43499995Y-40855659D01*
X43500000Y-40855659D01*
X43500005Y-40855659D01*
X43735401Y-40835064D01*
X43735403Y-40835063D01*
X43735408Y-40835063D01*
X43963663Y-40773903D01*
X44177830Y-40674035D01*
X44371401Y-40538495D01*
X44538495Y-40371401D01*
X44674035Y-40177830D01*
X44773903Y-39963663D01*
X44835063Y-39735408D01*
X44838774Y-39692993D01*
X44855659Y-39500005D01*
X44855659Y-39499994D01*
X44835064Y-39264598D01*
X44835063Y-39264595D01*
X44835063Y-39264592D01*
X44773903Y-39036337D01*
X44674035Y-38822171D01*
X44538495Y-38628599D01*
X44371401Y-38461505D01*
X44286543Y-38402087D01*
X44177830Y-38325965D01*
X44105976Y-38292459D01*
X43963663Y-38226097D01*
X43963660Y-38226096D01*
X43735401Y-38164935D01*
X43500005Y-38144341D01*
X43499995Y-38144341D01*
X43264598Y-38164935D01*
X43036335Y-38226097D01*
X43036333Y-38226098D01*
X42822177Y-38325961D01*
X42822169Y-38325965D01*
X42628600Y-38461504D01*
X42461502Y-38628602D01*
X42433661Y-38668363D01*
X42363479Y-38735546D01*
X42272929Y-38770758D01*
X42175797Y-38768637D01*
X42086871Y-38729507D01*
X42025725Y-38668361D01*
X41998110Y-38628923D01*
X41831076Y-38461889D01*
X41637572Y-38326396D01*
X41637571Y-38326395D01*
X41460000Y-38243592D01*
X41460000Y-39434174D01*
X41425925Y-39307007D01*
X41360099Y-39192993D01*
X41267007Y-39099901D01*
X41152993Y-39034075D01*
X41025826Y-39000000D01*
X40894174Y-39000000D01*
X40767007Y-39034075D01*
X40652993Y-39099901D01*
X40559901Y-39192993D01*
X40494075Y-39307007D01*
X40460000Y-39434174D01*
X40460000Y-38243593D01*
X40459999Y-38243593D01*
X40282426Y-38326397D01*
X40282425Y-38326397D01*
X40088914Y-38461895D01*
X40084854Y-38465302D01*
X40081137Y-38467340D01*
X40080016Y-38468126D01*
X40079929Y-38468003D01*
X39999674Y-38512028D01*
X39903095Y-38522600D01*
X39809823Y-38495409D01*
X39734057Y-38434593D01*
X39725092Y-38421460D01*
X39724469Y-38421927D01*
X39713796Y-38407670D01*
X39713796Y-38407669D01*
X39627546Y-38292454D01*
X39512331Y-38206204D01*
X39432117Y-38176286D01*
X39377481Y-38155908D01*
X39317876Y-38149500D01*
X39317873Y-38149500D01*
X39269500Y-38149500D01*
X39174212Y-38130546D01*
X39093430Y-38076570D01*
X39039454Y-37995788D01*
X39020500Y-37900500D01*
X39020500Y-37099499D01*
X39039454Y-37004211D01*
X39093430Y-36923429D01*
X39174212Y-36869453D01*
X39269500Y-36850499D01*
X39317866Y-36850499D01*
X39317872Y-36850499D01*
X39377483Y-36844091D01*
X39512331Y-36793796D01*
X39627546Y-36707546D01*
X39713796Y-36592331D01*
X39713796Y-36592329D01*
X39724469Y-36578073D01*
X39727692Y-36580485D01*
X39768534Y-36531597D01*
X39854614Y-36486549D01*
X39951381Y-36477872D01*
X40044102Y-36506886D01*
X40084863Y-36534704D01*
X40088918Y-36538106D01*
X40282423Y-36673600D01*
X40460000Y-36756405D01*
X40460000Y-35565826D01*
X40494075Y-35692993D01*
X40559901Y-35807007D01*
X40652993Y-35900099D01*
X40767007Y-35965925D01*
X40894174Y-36000000D01*
X41025826Y-36000000D01*
X41152993Y-35965925D01*
X41267007Y-35900099D01*
X41360099Y-35807007D01*
X41425925Y-35692993D01*
X41460000Y-35565826D01*
X41460000Y-36756405D01*
X41637576Y-36673600D01*
X41831076Y-36538110D01*
X41998111Y-36371075D01*
X42025724Y-36331640D01*
X42095905Y-36264456D01*
X42186454Y-36229242D01*
X42283586Y-36231361D01*
X42372513Y-36270489D01*
X42433662Y-36331638D01*
X42461501Y-36371396D01*
X42461505Y-36371401D01*
X42628599Y-36538495D01*
X42822170Y-36674035D01*
X43036337Y-36773903D01*
X43264592Y-36835063D01*
X43264595Y-36835063D01*
X43264598Y-36835064D01*
X43499995Y-36855659D01*
X43500000Y-36855659D01*
X43500005Y-36855659D01*
X43735401Y-36835064D01*
X43735403Y-36835063D01*
X43735408Y-36835063D01*
X43963663Y-36773903D01*
X44177830Y-36674035D01*
X44371401Y-36538495D01*
X44538495Y-36371401D01*
X44674035Y-36177830D01*
X44773903Y-35963663D01*
X44835063Y-35735408D01*
X44838774Y-35692993D01*
X44855659Y-35500005D01*
X44855659Y-35499994D01*
X44835064Y-35264598D01*
X44835063Y-35264595D01*
X44835063Y-35264592D01*
X44773903Y-35036337D01*
X44674035Y-34822171D01*
X44671385Y-34818387D01*
X44602851Y-34720509D01*
X44538495Y-34628599D01*
X44371401Y-34461505D01*
X44177830Y-34325965D01*
X43963663Y-34226097D01*
X43963660Y-34226096D01*
X43735401Y-34164935D01*
X43500005Y-34144341D01*
X43499995Y-34144341D01*
X43264598Y-34164935D01*
X43036335Y-34226097D01*
X43036333Y-34226098D01*
X42822177Y-34325961D01*
X42822169Y-34325965D01*
X42628600Y-34461504D01*
X42461502Y-34628602D01*
X42433661Y-34668363D01*
X42363479Y-34735546D01*
X42272929Y-34770758D01*
X42175797Y-34768637D01*
X42086871Y-34729507D01*
X42025725Y-34668361D01*
X41998110Y-34628923D01*
X41831076Y-34461889D01*
X41637572Y-34326396D01*
X41637571Y-34326395D01*
X41460000Y-34243592D01*
X41460000Y-35434174D01*
X41425925Y-35307007D01*
X41360099Y-35192993D01*
X41267007Y-35099901D01*
X41152993Y-35034075D01*
X41025826Y-35000000D01*
X40894174Y-35000000D01*
X40767007Y-35034075D01*
X40652993Y-35099901D01*
X40559901Y-35192993D01*
X40494075Y-35307007D01*
X40460000Y-35434174D01*
X40460000Y-34243593D01*
X40459999Y-34243593D01*
X40282426Y-34326397D01*
X40282425Y-34326397D01*
X40088914Y-34461895D01*
X40084854Y-34465302D01*
X40081137Y-34467340D01*
X40080016Y-34468126D01*
X40079929Y-34468003D01*
X39999674Y-34512028D01*
X39903095Y-34522600D01*
X39809823Y-34495409D01*
X39734057Y-34434593D01*
X39725092Y-34421460D01*
X39724469Y-34421927D01*
X39713796Y-34407670D01*
X39713796Y-34407669D01*
X39627546Y-34292454D01*
X39512331Y-34206204D01*
X39410075Y-34168065D01*
X39377481Y-34155908D01*
X39317873Y-34149500D01*
X37522134Y-34149500D01*
X37522130Y-34149500D01*
X37522128Y-34149501D01*
X37509314Y-34150878D01*
X37462519Y-34155908D01*
X37462515Y-34155909D01*
X37327670Y-34206203D01*
X37212455Y-34292453D01*
X37212453Y-34292455D01*
X37126204Y-34407669D01*
X37075908Y-34542518D01*
X37069500Y-34602123D01*
X37069500Y-34757064D01*
X37050546Y-34852352D01*
X36996570Y-34933134D01*
X36915788Y-34987110D01*
X36820500Y-35006064D01*
X36725212Y-34987110D01*
X36644430Y-34933134D01*
X36598640Y-34870109D01*
X36572286Y-34818387D01*
X36463287Y-34668363D01*
X36451966Y-34652781D01*
X36307219Y-34508034D01*
X36252121Y-34468003D01*
X36141614Y-34387715D01*
X36141613Y-34387714D01*
X36141611Y-34387713D01*
X35959218Y-34294779D01*
X35959211Y-34294776D01*
X35808989Y-34245967D01*
X35764535Y-34231523D01*
X35754214Y-34229888D01*
X35721542Y-34224713D01*
X35630393Y-34191085D01*
X35559051Y-34125135D01*
X35518377Y-34036904D01*
X35514564Y-33939823D01*
X35548192Y-33848674D01*
X35614142Y-33777332D01*
X35688880Y-33740301D01*
X35807088Y-33704805D01*
X35817791Y-33701851D01*
X36655583Y-33490745D01*
X36666397Y-33488278D01*
X37512794Y-33314977D01*
X37523722Y-33312995D01*
X38377016Y-33177846D01*
X38388050Y-33176351D01*
X39246546Y-33079622D01*
X39257615Y-33078625D01*
X40119609Y-33020509D01*
X40130732Y-33020009D01*
X40994431Y-33000625D01*
X41005569Y-33000625D01*
X41869265Y-33020009D01*
G37*
%TD.AperFunction*%
%TA.AperFunction,Conductor*%
G36*
X40822007Y-65034075D02*
G01*
X40707993Y-65099901D01*
X40614901Y-65192993D01*
X40549075Y-65307007D01*
X40515000Y-65434174D01*
X40515000Y-65249000D01*
X40533954Y-65153712D01*
X40587930Y-65072930D01*
X40668712Y-65018954D01*
X40764000Y-65000000D01*
X40949174Y-65000000D01*
X40822007Y-65034075D01*
G37*
%TD.AperFunction*%
%TA.AperFunction,Conductor*%
G36*
X41361288Y-65018954D02*
G01*
X41442070Y-65072930D01*
X41496046Y-65153712D01*
X41515000Y-65249000D01*
X41515000Y-65434174D01*
X41480925Y-65307007D01*
X41415099Y-65192993D01*
X41322007Y-65099901D01*
X41207993Y-65034075D01*
X41080826Y-65000000D01*
X41266000Y-65000000D01*
X41361288Y-65018954D01*
G37*
%TD.AperFunction*%
%TD*%
M02*
