%TF.GenerationSoftware,KiCad,Pcbnew,8.0.5*%
%TF.CreationDate,2025-01-19T22:36:25+08:00*%
%TF.ProjectId,Servo Breakout Board ,53657276-6f20-4427-9265-616b6f757420,rev?*%
%TF.SameCoordinates,Original*%
%TF.FileFunction,Legend,Bot*%
%TF.FilePolarity,Positive*%
%FSLAX46Y46*%
G04 Gerber Fmt 4.6, Leading zero omitted, Abs format (unit mm)*
G04 Created by KiCad (PCBNEW 8.0.5) date 2025-01-19 22:36:25*
%MOMM*%
%LPD*%
G01*
G04 APERTURE LIST*
%ADD10C,0.100000*%
%ADD11C,0.000000*%
G04 APERTURE END LIST*
D10*
X49203734Y-48324800D02*
X49060877Y-48372419D01*
X49060877Y-48372419D02*
X48822782Y-48372419D01*
X48822782Y-48372419D02*
X48727544Y-48324800D01*
X48727544Y-48324800D02*
X48679925Y-48277180D01*
X48679925Y-48277180D02*
X48632306Y-48181942D01*
X48632306Y-48181942D02*
X48632306Y-48086704D01*
X48632306Y-48086704D02*
X48679925Y-47991466D01*
X48679925Y-47991466D02*
X48727544Y-47943847D01*
X48727544Y-47943847D02*
X48822782Y-47896228D01*
X48822782Y-47896228D02*
X49013258Y-47848609D01*
X49013258Y-47848609D02*
X49108496Y-47800990D01*
X49108496Y-47800990D02*
X49156115Y-47753371D01*
X49156115Y-47753371D02*
X49203734Y-47658133D01*
X49203734Y-47658133D02*
X49203734Y-47562895D01*
X49203734Y-47562895D02*
X49156115Y-47467657D01*
X49156115Y-47467657D02*
X49108496Y-47420038D01*
X49108496Y-47420038D02*
X49013258Y-47372419D01*
X49013258Y-47372419D02*
X48775163Y-47372419D01*
X48775163Y-47372419D02*
X48632306Y-47420038D01*
X47822782Y-48324800D02*
X47918020Y-48372419D01*
X47918020Y-48372419D02*
X48108496Y-48372419D01*
X48108496Y-48372419D02*
X48203734Y-48324800D01*
X48203734Y-48324800D02*
X48251353Y-48229561D01*
X48251353Y-48229561D02*
X48251353Y-47848609D01*
X48251353Y-47848609D02*
X48203734Y-47753371D01*
X48203734Y-47753371D02*
X48108496Y-47705752D01*
X48108496Y-47705752D02*
X47918020Y-47705752D01*
X47918020Y-47705752D02*
X47822782Y-47753371D01*
X47822782Y-47753371D02*
X47775163Y-47848609D01*
X47775163Y-47848609D02*
X47775163Y-47943847D01*
X47775163Y-47943847D02*
X48251353Y-48039085D01*
X47346591Y-48372419D02*
X47346591Y-47705752D01*
X47346591Y-47896228D02*
X47298972Y-47800990D01*
X47298972Y-47800990D02*
X47251353Y-47753371D01*
X47251353Y-47753371D02*
X47156115Y-47705752D01*
X47156115Y-47705752D02*
X47060877Y-47705752D01*
X46822781Y-47705752D02*
X46584686Y-48372419D01*
X46584686Y-48372419D02*
X46346591Y-47705752D01*
X45822781Y-48372419D02*
X45918019Y-48324800D01*
X45918019Y-48324800D02*
X45965638Y-48277180D01*
X45965638Y-48277180D02*
X46013257Y-48181942D01*
X46013257Y-48181942D02*
X46013257Y-47896228D01*
X46013257Y-47896228D02*
X45965638Y-47800990D01*
X45965638Y-47800990D02*
X45918019Y-47753371D01*
X45918019Y-47753371D02*
X45822781Y-47705752D01*
X45822781Y-47705752D02*
X45679924Y-47705752D01*
X45679924Y-47705752D02*
X45584686Y-47753371D01*
X45584686Y-47753371D02*
X45537067Y-47800990D01*
X45537067Y-47800990D02*
X45489448Y-47896228D01*
X45489448Y-47896228D02*
X45489448Y-48181942D01*
X45489448Y-48181942D02*
X45537067Y-48277180D01*
X45537067Y-48277180D02*
X45584686Y-48324800D01*
X45584686Y-48324800D02*
X45679924Y-48372419D01*
X45679924Y-48372419D02*
X45822781Y-48372419D01*
X43965638Y-47848609D02*
X43822781Y-47896228D01*
X43822781Y-47896228D02*
X43775162Y-47943847D01*
X43775162Y-47943847D02*
X43727543Y-48039085D01*
X43727543Y-48039085D02*
X43727543Y-48181942D01*
X43727543Y-48181942D02*
X43775162Y-48277180D01*
X43775162Y-48277180D02*
X43822781Y-48324800D01*
X43822781Y-48324800D02*
X43918019Y-48372419D01*
X43918019Y-48372419D02*
X44298971Y-48372419D01*
X44298971Y-48372419D02*
X44298971Y-47372419D01*
X44298971Y-47372419D02*
X43965638Y-47372419D01*
X43965638Y-47372419D02*
X43870400Y-47420038D01*
X43870400Y-47420038D02*
X43822781Y-47467657D01*
X43822781Y-47467657D02*
X43775162Y-47562895D01*
X43775162Y-47562895D02*
X43775162Y-47658133D01*
X43775162Y-47658133D02*
X43822781Y-47753371D01*
X43822781Y-47753371D02*
X43870400Y-47800990D01*
X43870400Y-47800990D02*
X43965638Y-47848609D01*
X43965638Y-47848609D02*
X44298971Y-47848609D01*
X43298971Y-48372419D02*
X43298971Y-47705752D01*
X43298971Y-47896228D02*
X43251352Y-47800990D01*
X43251352Y-47800990D02*
X43203733Y-47753371D01*
X43203733Y-47753371D02*
X43108495Y-47705752D01*
X43108495Y-47705752D02*
X43013257Y-47705752D01*
X42298971Y-48324800D02*
X42394209Y-48372419D01*
X42394209Y-48372419D02*
X42584685Y-48372419D01*
X42584685Y-48372419D02*
X42679923Y-48324800D01*
X42679923Y-48324800D02*
X42727542Y-48229561D01*
X42727542Y-48229561D02*
X42727542Y-47848609D01*
X42727542Y-47848609D02*
X42679923Y-47753371D01*
X42679923Y-47753371D02*
X42584685Y-47705752D01*
X42584685Y-47705752D02*
X42394209Y-47705752D01*
X42394209Y-47705752D02*
X42298971Y-47753371D01*
X42298971Y-47753371D02*
X42251352Y-47848609D01*
X42251352Y-47848609D02*
X42251352Y-47943847D01*
X42251352Y-47943847D02*
X42727542Y-48039085D01*
X41394209Y-48372419D02*
X41394209Y-47848609D01*
X41394209Y-47848609D02*
X41441828Y-47753371D01*
X41441828Y-47753371D02*
X41537066Y-47705752D01*
X41537066Y-47705752D02*
X41727542Y-47705752D01*
X41727542Y-47705752D02*
X41822780Y-47753371D01*
X41394209Y-48324800D02*
X41489447Y-48372419D01*
X41489447Y-48372419D02*
X41727542Y-48372419D01*
X41727542Y-48372419D02*
X41822780Y-48324800D01*
X41822780Y-48324800D02*
X41870399Y-48229561D01*
X41870399Y-48229561D02*
X41870399Y-48134323D01*
X41870399Y-48134323D02*
X41822780Y-48039085D01*
X41822780Y-48039085D02*
X41727542Y-47991466D01*
X41727542Y-47991466D02*
X41489447Y-47991466D01*
X41489447Y-47991466D02*
X41394209Y-47943847D01*
X40918018Y-48372419D02*
X40918018Y-47372419D01*
X40822780Y-47991466D02*
X40537066Y-48372419D01*
X40537066Y-47705752D02*
X40918018Y-48086704D01*
X39965637Y-48372419D02*
X40060875Y-48324800D01*
X40060875Y-48324800D02*
X40108494Y-48277180D01*
X40108494Y-48277180D02*
X40156113Y-48181942D01*
X40156113Y-48181942D02*
X40156113Y-47896228D01*
X40156113Y-47896228D02*
X40108494Y-47800990D01*
X40108494Y-47800990D02*
X40060875Y-47753371D01*
X40060875Y-47753371D02*
X39965637Y-47705752D01*
X39965637Y-47705752D02*
X39822780Y-47705752D01*
X39822780Y-47705752D02*
X39727542Y-47753371D01*
X39727542Y-47753371D02*
X39679923Y-47800990D01*
X39679923Y-47800990D02*
X39632304Y-47896228D01*
X39632304Y-47896228D02*
X39632304Y-48181942D01*
X39632304Y-48181942D02*
X39679923Y-48277180D01*
X39679923Y-48277180D02*
X39727542Y-48324800D01*
X39727542Y-48324800D02*
X39822780Y-48372419D01*
X39822780Y-48372419D02*
X39965637Y-48372419D01*
X38775161Y-47705752D02*
X38775161Y-48372419D01*
X39203732Y-47705752D02*
X39203732Y-48229561D01*
X39203732Y-48229561D02*
X39156113Y-48324800D01*
X39156113Y-48324800D02*
X39060875Y-48372419D01*
X39060875Y-48372419D02*
X38918018Y-48372419D01*
X38918018Y-48372419D02*
X38822780Y-48324800D01*
X38822780Y-48324800D02*
X38775161Y-48277180D01*
X38441827Y-47705752D02*
X38060875Y-47705752D01*
X38298970Y-47372419D02*
X38298970Y-48229561D01*
X38298970Y-48229561D02*
X38251351Y-48324800D01*
X38251351Y-48324800D02*
X38156113Y-48372419D01*
X38156113Y-48372419D02*
X38060875Y-48372419D01*
X36632303Y-47848609D02*
X36489446Y-47896228D01*
X36489446Y-47896228D02*
X36441827Y-47943847D01*
X36441827Y-47943847D02*
X36394208Y-48039085D01*
X36394208Y-48039085D02*
X36394208Y-48181942D01*
X36394208Y-48181942D02*
X36441827Y-48277180D01*
X36441827Y-48277180D02*
X36489446Y-48324800D01*
X36489446Y-48324800D02*
X36584684Y-48372419D01*
X36584684Y-48372419D02*
X36965636Y-48372419D01*
X36965636Y-48372419D02*
X36965636Y-47372419D01*
X36965636Y-47372419D02*
X36632303Y-47372419D01*
X36632303Y-47372419D02*
X36537065Y-47420038D01*
X36537065Y-47420038D02*
X36489446Y-47467657D01*
X36489446Y-47467657D02*
X36441827Y-47562895D01*
X36441827Y-47562895D02*
X36441827Y-47658133D01*
X36441827Y-47658133D02*
X36489446Y-47753371D01*
X36489446Y-47753371D02*
X36537065Y-47800990D01*
X36537065Y-47800990D02*
X36632303Y-47848609D01*
X36632303Y-47848609D02*
X36965636Y-47848609D01*
X35822779Y-48372419D02*
X35918017Y-48324800D01*
X35918017Y-48324800D02*
X35965636Y-48277180D01*
X35965636Y-48277180D02*
X36013255Y-48181942D01*
X36013255Y-48181942D02*
X36013255Y-47896228D01*
X36013255Y-47896228D02*
X35965636Y-47800990D01*
X35965636Y-47800990D02*
X35918017Y-47753371D01*
X35918017Y-47753371D02*
X35822779Y-47705752D01*
X35822779Y-47705752D02*
X35679922Y-47705752D01*
X35679922Y-47705752D02*
X35584684Y-47753371D01*
X35584684Y-47753371D02*
X35537065Y-47800990D01*
X35537065Y-47800990D02*
X35489446Y-47896228D01*
X35489446Y-47896228D02*
X35489446Y-48181942D01*
X35489446Y-48181942D02*
X35537065Y-48277180D01*
X35537065Y-48277180D02*
X35584684Y-48324800D01*
X35584684Y-48324800D02*
X35679922Y-48372419D01*
X35679922Y-48372419D02*
X35822779Y-48372419D01*
X34632303Y-48372419D02*
X34632303Y-47848609D01*
X34632303Y-47848609D02*
X34679922Y-47753371D01*
X34679922Y-47753371D02*
X34775160Y-47705752D01*
X34775160Y-47705752D02*
X34965636Y-47705752D01*
X34965636Y-47705752D02*
X35060874Y-47753371D01*
X34632303Y-48324800D02*
X34727541Y-48372419D01*
X34727541Y-48372419D02*
X34965636Y-48372419D01*
X34965636Y-48372419D02*
X35060874Y-48324800D01*
X35060874Y-48324800D02*
X35108493Y-48229561D01*
X35108493Y-48229561D02*
X35108493Y-48134323D01*
X35108493Y-48134323D02*
X35060874Y-48039085D01*
X35060874Y-48039085D02*
X34965636Y-47991466D01*
X34965636Y-47991466D02*
X34727541Y-47991466D01*
X34727541Y-47991466D02*
X34632303Y-47943847D01*
X34156112Y-48372419D02*
X34156112Y-47705752D01*
X34156112Y-47896228D02*
X34108493Y-47800990D01*
X34108493Y-47800990D02*
X34060874Y-47753371D01*
X34060874Y-47753371D02*
X33965636Y-47705752D01*
X33965636Y-47705752D02*
X33870398Y-47705752D01*
X33108493Y-48372419D02*
X33108493Y-47372419D01*
X33108493Y-48324800D02*
X33203731Y-48372419D01*
X33203731Y-48372419D02*
X33394207Y-48372419D01*
X33394207Y-48372419D02*
X33489445Y-48324800D01*
X33489445Y-48324800D02*
X33537064Y-48277180D01*
X33537064Y-48277180D02*
X33584683Y-48181942D01*
X33584683Y-48181942D02*
X33584683Y-47896228D01*
X33584683Y-47896228D02*
X33537064Y-47800990D01*
X33537064Y-47800990D02*
X33489445Y-47753371D01*
X33489445Y-47753371D02*
X33394207Y-47705752D01*
X33394207Y-47705752D02*
X33203731Y-47705752D01*
X33203731Y-47705752D02*
X33108493Y-47753371D01*
X46322782Y-61848609D02*
X46179925Y-61896228D01*
X46179925Y-61896228D02*
X46132306Y-61943847D01*
X46132306Y-61943847D02*
X46084687Y-62039085D01*
X46084687Y-62039085D02*
X46084687Y-62181942D01*
X46084687Y-62181942D02*
X46132306Y-62277180D01*
X46132306Y-62277180D02*
X46179925Y-62324800D01*
X46179925Y-62324800D02*
X46275163Y-62372419D01*
X46275163Y-62372419D02*
X46656115Y-62372419D01*
X46656115Y-62372419D02*
X46656115Y-61372419D01*
X46656115Y-61372419D02*
X46322782Y-61372419D01*
X46322782Y-61372419D02*
X46227544Y-61420038D01*
X46227544Y-61420038D02*
X46179925Y-61467657D01*
X46179925Y-61467657D02*
X46132306Y-61562895D01*
X46132306Y-61562895D02*
X46132306Y-61658133D01*
X46132306Y-61658133D02*
X46179925Y-61753371D01*
X46179925Y-61753371D02*
X46227544Y-61800990D01*
X46227544Y-61800990D02*
X46322782Y-61848609D01*
X46322782Y-61848609D02*
X46656115Y-61848609D01*
X45751353Y-61705752D02*
X45513258Y-62372419D01*
X45275163Y-61705752D02*
X45513258Y-62372419D01*
X45513258Y-62372419D02*
X45608496Y-62610514D01*
X45608496Y-62610514D02*
X45656115Y-62658133D01*
X45656115Y-62658133D02*
X45751353Y-62705752D01*
X44894210Y-62277180D02*
X44846591Y-62324800D01*
X44846591Y-62324800D02*
X44894210Y-62372419D01*
X44894210Y-62372419D02*
X44941829Y-62324800D01*
X44941829Y-62324800D02*
X44894210Y-62277180D01*
X44894210Y-62277180D02*
X44894210Y-62372419D01*
X44894210Y-61753371D02*
X44846591Y-61800990D01*
X44846591Y-61800990D02*
X44894210Y-61848609D01*
X44894210Y-61848609D02*
X44941829Y-61800990D01*
X44941829Y-61800990D02*
X44894210Y-61753371D01*
X44894210Y-61753371D02*
X44894210Y-61848609D01*
X43656115Y-62372419D02*
X43656115Y-61372419D01*
X43084687Y-62372419D02*
X43513258Y-61800990D01*
X43084687Y-61372419D02*
X43656115Y-61943847D01*
X42656115Y-62372419D02*
X42656115Y-61705752D01*
X42656115Y-61372419D02*
X42703734Y-61420038D01*
X42703734Y-61420038D02*
X42656115Y-61467657D01*
X42656115Y-61467657D02*
X42608496Y-61420038D01*
X42608496Y-61420038D02*
X42656115Y-61372419D01*
X42656115Y-61372419D02*
X42656115Y-61467657D01*
X41751354Y-62372419D02*
X41751354Y-61848609D01*
X41751354Y-61848609D02*
X41798973Y-61753371D01*
X41798973Y-61753371D02*
X41894211Y-61705752D01*
X41894211Y-61705752D02*
X42084687Y-61705752D01*
X42084687Y-61705752D02*
X42179925Y-61753371D01*
X41751354Y-62324800D02*
X41846592Y-62372419D01*
X41846592Y-62372419D02*
X42084687Y-62372419D01*
X42084687Y-62372419D02*
X42179925Y-62324800D01*
X42179925Y-62324800D02*
X42227544Y-62229561D01*
X42227544Y-62229561D02*
X42227544Y-62134323D01*
X42227544Y-62134323D02*
X42179925Y-62039085D01*
X42179925Y-62039085D02*
X42084687Y-61991466D01*
X42084687Y-61991466D02*
X41846592Y-61991466D01*
X41846592Y-61991466D02*
X41751354Y-61943847D01*
X41275163Y-61705752D02*
X41275163Y-62372419D01*
X41275163Y-61800990D02*
X41227544Y-61753371D01*
X41227544Y-61753371D02*
X41132306Y-61705752D01*
X41132306Y-61705752D02*
X40989449Y-61705752D01*
X40989449Y-61705752D02*
X40894211Y-61753371D01*
X40894211Y-61753371D02*
X40846592Y-61848609D01*
X40846592Y-61848609D02*
X40846592Y-62372419D01*
X39037068Y-62277180D02*
X39084687Y-62324800D01*
X39084687Y-62324800D02*
X39227544Y-62372419D01*
X39227544Y-62372419D02*
X39322782Y-62372419D01*
X39322782Y-62372419D02*
X39465639Y-62324800D01*
X39465639Y-62324800D02*
X39560877Y-62229561D01*
X39560877Y-62229561D02*
X39608496Y-62134323D01*
X39608496Y-62134323D02*
X39656115Y-61943847D01*
X39656115Y-61943847D02*
X39656115Y-61800990D01*
X39656115Y-61800990D02*
X39608496Y-61610514D01*
X39608496Y-61610514D02*
X39560877Y-61515276D01*
X39560877Y-61515276D02*
X39465639Y-61420038D01*
X39465639Y-61420038D02*
X39322782Y-61372419D01*
X39322782Y-61372419D02*
X39227544Y-61372419D01*
X39227544Y-61372419D02*
X39084687Y-61420038D01*
X39084687Y-61420038D02*
X39037068Y-61467657D01*
X38608496Y-62372419D02*
X38608496Y-61372419D01*
X38179925Y-62372419D02*
X38179925Y-61848609D01*
X38179925Y-61848609D02*
X38227544Y-61753371D01*
X38227544Y-61753371D02*
X38322782Y-61705752D01*
X38322782Y-61705752D02*
X38465639Y-61705752D01*
X38465639Y-61705752D02*
X38560877Y-61753371D01*
X38560877Y-61753371D02*
X38608496Y-61800990D01*
X37322782Y-62324800D02*
X37418020Y-62372419D01*
X37418020Y-62372419D02*
X37608496Y-62372419D01*
X37608496Y-62372419D02*
X37703734Y-62324800D01*
X37703734Y-62324800D02*
X37751353Y-62229561D01*
X37751353Y-62229561D02*
X37751353Y-61848609D01*
X37751353Y-61848609D02*
X37703734Y-61753371D01*
X37703734Y-61753371D02*
X37608496Y-61705752D01*
X37608496Y-61705752D02*
X37418020Y-61705752D01*
X37418020Y-61705752D02*
X37322782Y-61753371D01*
X37322782Y-61753371D02*
X37275163Y-61848609D01*
X37275163Y-61848609D02*
X37275163Y-61943847D01*
X37275163Y-61943847D02*
X37751353Y-62039085D01*
X36846591Y-61705752D02*
X36846591Y-62372419D01*
X36846591Y-61800990D02*
X36798972Y-61753371D01*
X36798972Y-61753371D02*
X36703734Y-61705752D01*
X36703734Y-61705752D02*
X36560877Y-61705752D01*
X36560877Y-61705752D02*
X36465639Y-61753371D01*
X36465639Y-61753371D02*
X36418020Y-61848609D01*
X36418020Y-61848609D02*
X36418020Y-62372419D01*
X35513258Y-61705752D02*
X35513258Y-62515276D01*
X35513258Y-62515276D02*
X35560877Y-62610514D01*
X35560877Y-62610514D02*
X35608496Y-62658133D01*
X35608496Y-62658133D02*
X35703734Y-62705752D01*
X35703734Y-62705752D02*
X35846591Y-62705752D01*
X35846591Y-62705752D02*
X35941829Y-62658133D01*
X35513258Y-62324800D02*
X35608496Y-62372419D01*
X35608496Y-62372419D02*
X35798972Y-62372419D01*
X35798972Y-62372419D02*
X35894210Y-62324800D01*
X35894210Y-62324800D02*
X35941829Y-62277180D01*
X35941829Y-62277180D02*
X35989448Y-62181942D01*
X35989448Y-62181942D02*
X35989448Y-61896228D01*
X35989448Y-61896228D02*
X35941829Y-61800990D01*
X35941829Y-61800990D02*
X35894210Y-61753371D01*
X35894210Y-61753371D02*
X35798972Y-61705752D01*
X35798972Y-61705752D02*
X35608496Y-61705752D01*
X35608496Y-61705752D02*
X35513258Y-61753371D01*
D11*
%TO.C,G\u002A\u002A\u002A*%
G36*
X32534569Y-52100586D02*
G01*
X32691076Y-52271005D01*
X32710293Y-52292854D01*
X32752436Y-52340400D01*
X32783975Y-52374812D01*
X32807391Y-52398226D01*
X32825165Y-52412778D01*
X32839776Y-52420606D01*
X32853707Y-52423847D01*
X32869437Y-52424638D01*
X32876778Y-52424842D01*
X32906931Y-52426080D01*
X32954033Y-52428285D01*
X33015102Y-52431308D01*
X33087153Y-52434998D01*
X33167202Y-52439207D01*
X33252265Y-52443785D01*
X33331590Y-52448161D01*
X33410430Y-52452749D01*
X33472140Y-52456771D01*
X33519015Y-52460479D01*
X33553350Y-52464123D01*
X33577439Y-52467955D01*
X33593576Y-52472226D01*
X33604056Y-52477188D01*
X33611172Y-52483091D01*
X33612391Y-52484536D01*
X33624046Y-52501749D01*
X33644585Y-52534533D01*
X33672592Y-52580471D01*
X33706654Y-52637144D01*
X33745355Y-52702137D01*
X33787282Y-52773032D01*
X33831018Y-52847412D01*
X33875151Y-52922860D01*
X33918265Y-52996959D01*
X33958944Y-53067291D01*
X33995776Y-53131440D01*
X34027345Y-53186989D01*
X34052236Y-53231520D01*
X34069035Y-53262617D01*
X34076328Y-53277862D01*
X34076739Y-53279347D01*
X34075485Y-53293484D01*
X34064475Y-53313012D01*
X34041657Y-53340869D01*
X34004975Y-53379995D01*
X33980850Y-53404500D01*
X33948853Y-53435717D01*
X33923511Y-53458932D01*
X33908821Y-53470390D01*
X33898981Y-53471521D01*
X33873825Y-53467942D01*
X33833190Y-53458590D01*
X33775905Y-53443164D01*
X33700799Y-53421364D01*
X33606701Y-53392890D01*
X33322580Y-53305695D01*
X33045973Y-53582149D01*
X33044581Y-53583540D01*
X32981633Y-53646716D01*
X32923765Y-53705278D01*
X32872656Y-53757492D01*
X32829983Y-53801623D01*
X32797425Y-53835934D01*
X32776660Y-53858692D01*
X32769365Y-53868161D01*
X32770028Y-53871741D01*
X32775699Y-53892860D01*
X32787235Y-53932666D01*
X32804723Y-53991439D01*
X32828244Y-54069458D01*
X32857884Y-54167002D01*
X32893726Y-54284350D01*
X32935855Y-54421781D01*
X32936005Y-54428721D01*
X32926363Y-54448917D01*
X32902600Y-54479338D01*
X32863522Y-54521632D01*
X32839310Y-54546061D01*
X32806601Y-54577077D01*
X32780128Y-54599878D01*
X32764031Y-54610757D01*
X32743477Y-54613264D01*
X32714648Y-54606915D01*
X32711334Y-54605315D01*
X32690256Y-54593919D01*
X32653649Y-54573375D01*
X32603642Y-54544903D01*
X32542363Y-54509723D01*
X32471942Y-54469056D01*
X32394506Y-54424123D01*
X32312184Y-54376145D01*
X32225730Y-54325461D01*
X32141239Y-54275380D01*
X32072926Y-54234128D01*
X32019468Y-54200861D01*
X31979547Y-54174736D01*
X31951840Y-54154911D01*
X31935027Y-54140542D01*
X31927787Y-54130786D01*
X31927723Y-54130604D01*
X31925401Y-54114950D01*
X31922236Y-54081157D01*
X31918408Y-54032290D01*
X31914101Y-53971411D01*
X31909496Y-53901586D01*
X31904775Y-53825879D01*
X31900119Y-53747353D01*
X31895711Y-53669073D01*
X31891732Y-53594103D01*
X31888364Y-53525507D01*
X31885789Y-53466349D01*
X31884189Y-53419695D01*
X31883745Y-53388606D01*
X31882727Y-53383913D01*
X31869850Y-53364381D01*
X31841714Y-53333910D01*
X31797717Y-53291878D01*
X31737257Y-53237663D01*
X31646798Y-53156605D01*
X31510520Y-53026858D01*
X31391071Y-52902200D01*
X31286715Y-52780554D01*
X31195712Y-52659844D01*
X31116326Y-52537996D01*
X31046819Y-52412933D01*
X30995998Y-52304569D01*
X30947559Y-52176371D01*
X30908862Y-52040813D01*
X30904337Y-52018564D01*
X31249206Y-52018564D01*
X31250068Y-52060619D01*
X31254028Y-52092570D01*
X31262853Y-52117864D01*
X31278303Y-52144100D01*
X31287490Y-52156465D01*
X31319773Y-52189645D01*
X31355142Y-52216047D01*
X31376650Y-52227048D01*
X31437263Y-52245412D01*
X31500170Y-52249433D01*
X31557241Y-52238220D01*
X31569833Y-52232838D01*
X31615658Y-52203562D01*
X31658211Y-52163503D01*
X31689398Y-52119908D01*
X31697993Y-52096879D01*
X31705440Y-52051572D01*
X31706551Y-52000645D01*
X31701313Y-51952758D01*
X31689712Y-51916571D01*
X31666828Y-51881047D01*
X31618979Y-51833338D01*
X31562830Y-51801742D01*
X31501840Y-51786460D01*
X31439467Y-51787696D01*
X31379169Y-51805651D01*
X31324405Y-51840528D01*
X31278633Y-51892529D01*
X31263728Y-51917522D01*
X31254473Y-51942630D01*
X31250226Y-51973768D01*
X31249206Y-52018564D01*
X30904337Y-52018564D01*
X30879140Y-51894668D01*
X30857626Y-51734711D01*
X30843553Y-51557716D01*
X30841182Y-51514312D01*
X30839739Y-51474563D01*
X30840571Y-51448341D01*
X30844214Y-51431290D01*
X30851206Y-51419055D01*
X30862082Y-51407280D01*
X30869518Y-51400153D01*
X30881624Y-51391552D01*
X30897256Y-51386453D01*
X30920861Y-51384207D01*
X30956888Y-51384161D01*
X31009783Y-51385667D01*
X31084692Y-51388995D01*
X31241732Y-51401745D01*
X31389898Y-51421641D01*
X31525267Y-51448096D01*
X31643914Y-51480523D01*
X31660972Y-51486162D01*
X31802097Y-51542487D01*
X31944128Y-51616576D01*
X32087727Y-51708930D01*
X32233557Y-51820049D01*
X32382284Y-51950434D01*
X32433208Y-52000645D01*
X32534569Y-52100586D01*
G37*
%TD*%
M02*
