%TF.GenerationSoftware,KiCad,Pcbnew,8.0.5*%
%TF.CreationDate,2025-01-19T22:36:25+08:00*%
%TF.ProjectId,Servo Breakout Board ,53657276-6f20-4427-9265-616b6f757420,rev?*%
%TF.SameCoordinates,Original*%
%TF.FileFunction,Legend,Top*%
%TF.FilePolarity,Positive*%
%FSLAX46Y46*%
G04 Gerber Fmt 4.6, Leading zero omitted, Abs format (unit mm)*
G04 Created by KiCad (PCBNEW 8.0.5) date 2025-01-19 22:36:25*
%MOMM*%
%LPD*%
G01*
G04 APERTURE LIST*
%ADD10C,0.150000*%
%ADD11C,0.120000*%
%ADD12C,0.000000*%
G04 APERTURE END LIST*
D10*
X23150476Y-48084819D02*
X23150476Y-47084819D01*
X23150476Y-47084819D02*
X23483809Y-47799104D01*
X23483809Y-47799104D02*
X23817142Y-47084819D01*
X23817142Y-47084819D02*
X23817142Y-48084819D01*
X24817142Y-48084819D02*
X24245714Y-48084819D01*
X24531428Y-48084819D02*
X24531428Y-47084819D01*
X24531428Y-47084819D02*
X24436190Y-47227676D01*
X24436190Y-47227676D02*
X24340952Y-47322914D01*
X24340952Y-47322914D02*
X24245714Y-47370533D01*
X46414819Y-36309523D02*
X45414819Y-36309523D01*
X45414819Y-36309523D02*
X46129104Y-35976190D01*
X46129104Y-35976190D02*
X45414819Y-35642857D01*
X45414819Y-35642857D02*
X46414819Y-35642857D01*
X45510057Y-35214285D02*
X45462438Y-35166666D01*
X45462438Y-35166666D02*
X45414819Y-35071428D01*
X45414819Y-35071428D02*
X45414819Y-34833333D01*
X45414819Y-34833333D02*
X45462438Y-34738095D01*
X45462438Y-34738095D02*
X45510057Y-34690476D01*
X45510057Y-34690476D02*
X45605295Y-34642857D01*
X45605295Y-34642857D02*
X45700533Y-34642857D01*
X45700533Y-34642857D02*
X45843390Y-34690476D01*
X45843390Y-34690476D02*
X46414819Y-35261904D01*
X46414819Y-35261904D02*
X46414819Y-34642857D01*
X27150476Y-57954819D02*
X27150476Y-56954819D01*
X27150476Y-56954819D02*
X27483809Y-57669104D01*
X27483809Y-57669104D02*
X27817142Y-56954819D01*
X27817142Y-56954819D02*
X27817142Y-57954819D01*
X28769523Y-56954819D02*
X28293333Y-56954819D01*
X28293333Y-56954819D02*
X28245714Y-57431009D01*
X28245714Y-57431009D02*
X28293333Y-57383390D01*
X28293333Y-57383390D02*
X28388571Y-57335771D01*
X28388571Y-57335771D02*
X28626666Y-57335771D01*
X28626666Y-57335771D02*
X28721904Y-57383390D01*
X28721904Y-57383390D02*
X28769523Y-57431009D01*
X28769523Y-57431009D02*
X28817142Y-57526247D01*
X28817142Y-57526247D02*
X28817142Y-57764342D01*
X28817142Y-57764342D02*
X28769523Y-57859580D01*
X28769523Y-57859580D02*
X28721904Y-57907200D01*
X28721904Y-57907200D02*
X28626666Y-57954819D01*
X28626666Y-57954819D02*
X28388571Y-57954819D01*
X28388571Y-57954819D02*
X28293333Y-57907200D01*
X28293333Y-57907200D02*
X28245714Y-57859580D01*
X43840953Y-42050057D02*
X43888572Y-42002438D01*
X43888572Y-42002438D02*
X43983810Y-41954819D01*
X43983810Y-41954819D02*
X44221905Y-41954819D01*
X44221905Y-41954819D02*
X44317143Y-42002438D01*
X44317143Y-42002438D02*
X44364762Y-42050057D01*
X44364762Y-42050057D02*
X44412381Y-42145295D01*
X44412381Y-42145295D02*
X44412381Y-42240533D01*
X44412381Y-42240533D02*
X44364762Y-42383390D01*
X44364762Y-42383390D02*
X43793334Y-42954819D01*
X43793334Y-42954819D02*
X44412381Y-42954819D01*
X44840953Y-42954819D02*
X44840953Y-42288152D01*
X44840953Y-42383390D02*
X44888572Y-42335771D01*
X44888572Y-42335771D02*
X44983810Y-42288152D01*
X44983810Y-42288152D02*
X45126667Y-42288152D01*
X45126667Y-42288152D02*
X45221905Y-42335771D01*
X45221905Y-42335771D02*
X45269524Y-42431009D01*
X45269524Y-42431009D02*
X45269524Y-42954819D01*
X45269524Y-42431009D02*
X45317143Y-42335771D01*
X45317143Y-42335771D02*
X45412381Y-42288152D01*
X45412381Y-42288152D02*
X45555238Y-42288152D01*
X45555238Y-42288152D02*
X45650477Y-42335771D01*
X45650477Y-42335771D02*
X45698096Y-42431009D01*
X45698096Y-42431009D02*
X45698096Y-42954819D01*
X46174286Y-42954819D02*
X46174286Y-42288152D01*
X46174286Y-42383390D02*
X46221905Y-42335771D01*
X46221905Y-42335771D02*
X46317143Y-42288152D01*
X46317143Y-42288152D02*
X46460000Y-42288152D01*
X46460000Y-42288152D02*
X46555238Y-42335771D01*
X46555238Y-42335771D02*
X46602857Y-42431009D01*
X46602857Y-42431009D02*
X46602857Y-42954819D01*
X46602857Y-42431009D02*
X46650476Y-42335771D01*
X46650476Y-42335771D02*
X46745714Y-42288152D01*
X46745714Y-42288152D02*
X46888571Y-42288152D01*
X46888571Y-42288152D02*
X46983810Y-42335771D01*
X46983810Y-42335771D02*
X47031429Y-42431009D01*
X47031429Y-42431009D02*
X47031429Y-42954819D01*
X53150476Y-48124819D02*
X53150476Y-47124819D01*
X53150476Y-47124819D02*
X53483809Y-47839104D01*
X53483809Y-47839104D02*
X53817142Y-47124819D01*
X53817142Y-47124819D02*
X53817142Y-48124819D01*
X54198095Y-47124819D02*
X54864761Y-47124819D01*
X54864761Y-47124819D02*
X54436190Y-48124819D01*
X35354819Y-50833333D02*
X36069104Y-50833333D01*
X36069104Y-50833333D02*
X36211961Y-50880952D01*
X36211961Y-50880952D02*
X36307200Y-50976190D01*
X36307200Y-50976190D02*
X36354819Y-51119047D01*
X36354819Y-51119047D02*
X36354819Y-51214285D01*
X35450057Y-50404761D02*
X35402438Y-50357142D01*
X35402438Y-50357142D02*
X35354819Y-50261904D01*
X35354819Y-50261904D02*
X35354819Y-50023809D01*
X35354819Y-50023809D02*
X35402438Y-49928571D01*
X35402438Y-49928571D02*
X35450057Y-49880952D01*
X35450057Y-49880952D02*
X35545295Y-49833333D01*
X35545295Y-49833333D02*
X35640533Y-49833333D01*
X35640533Y-49833333D02*
X35783390Y-49880952D01*
X35783390Y-49880952D02*
X36354819Y-50452380D01*
X36354819Y-50452380D02*
X36354819Y-49833333D01*
X34840953Y-42050057D02*
X34888572Y-42002438D01*
X34888572Y-42002438D02*
X34983810Y-41954819D01*
X34983810Y-41954819D02*
X35221905Y-41954819D01*
X35221905Y-41954819D02*
X35317143Y-42002438D01*
X35317143Y-42002438D02*
X35364762Y-42050057D01*
X35364762Y-42050057D02*
X35412381Y-42145295D01*
X35412381Y-42145295D02*
X35412381Y-42240533D01*
X35412381Y-42240533D02*
X35364762Y-42383390D01*
X35364762Y-42383390D02*
X34793334Y-42954819D01*
X34793334Y-42954819D02*
X35412381Y-42954819D01*
X35840953Y-42954819D02*
X35840953Y-42288152D01*
X35840953Y-42383390D02*
X35888572Y-42335771D01*
X35888572Y-42335771D02*
X35983810Y-42288152D01*
X35983810Y-42288152D02*
X36126667Y-42288152D01*
X36126667Y-42288152D02*
X36221905Y-42335771D01*
X36221905Y-42335771D02*
X36269524Y-42431009D01*
X36269524Y-42431009D02*
X36269524Y-42954819D01*
X36269524Y-42431009D02*
X36317143Y-42335771D01*
X36317143Y-42335771D02*
X36412381Y-42288152D01*
X36412381Y-42288152D02*
X36555238Y-42288152D01*
X36555238Y-42288152D02*
X36650477Y-42335771D01*
X36650477Y-42335771D02*
X36698096Y-42431009D01*
X36698096Y-42431009D02*
X36698096Y-42954819D01*
X37174286Y-42954819D02*
X37174286Y-42288152D01*
X37174286Y-42383390D02*
X37221905Y-42335771D01*
X37221905Y-42335771D02*
X37317143Y-42288152D01*
X37317143Y-42288152D02*
X37460000Y-42288152D01*
X37460000Y-42288152D02*
X37555238Y-42335771D01*
X37555238Y-42335771D02*
X37602857Y-42431009D01*
X37602857Y-42431009D02*
X37602857Y-42954819D01*
X37602857Y-42431009D02*
X37650476Y-42335771D01*
X37650476Y-42335771D02*
X37745714Y-42288152D01*
X37745714Y-42288152D02*
X37888571Y-42288152D01*
X37888571Y-42288152D02*
X37983810Y-42335771D01*
X37983810Y-42335771D02*
X38031429Y-42431009D01*
X38031429Y-42431009D02*
X38031429Y-42954819D01*
X36599819Y-66309523D02*
X35599819Y-66309523D01*
X35599819Y-66309523D02*
X36314104Y-65976190D01*
X36314104Y-65976190D02*
X35599819Y-65642857D01*
X35599819Y-65642857D02*
X36599819Y-65642857D01*
X36028390Y-65023809D02*
X35980771Y-65119047D01*
X35980771Y-65119047D02*
X35933152Y-65166666D01*
X35933152Y-65166666D02*
X35837914Y-65214285D01*
X35837914Y-65214285D02*
X35790295Y-65214285D01*
X35790295Y-65214285D02*
X35695057Y-65166666D01*
X35695057Y-65166666D02*
X35647438Y-65119047D01*
X35647438Y-65119047D02*
X35599819Y-65023809D01*
X35599819Y-65023809D02*
X35599819Y-64833333D01*
X35599819Y-64833333D02*
X35647438Y-64738095D01*
X35647438Y-64738095D02*
X35695057Y-64690476D01*
X35695057Y-64690476D02*
X35790295Y-64642857D01*
X35790295Y-64642857D02*
X35837914Y-64642857D01*
X35837914Y-64642857D02*
X35933152Y-64690476D01*
X35933152Y-64690476D02*
X35980771Y-64738095D01*
X35980771Y-64738095D02*
X36028390Y-64833333D01*
X36028390Y-64833333D02*
X36028390Y-65023809D01*
X36028390Y-65023809D02*
X36076009Y-65119047D01*
X36076009Y-65119047D02*
X36123628Y-65166666D01*
X36123628Y-65166666D02*
X36218866Y-65214285D01*
X36218866Y-65214285D02*
X36409342Y-65214285D01*
X36409342Y-65214285D02*
X36504580Y-65166666D01*
X36504580Y-65166666D02*
X36552200Y-65119047D01*
X36552200Y-65119047D02*
X36599819Y-65023809D01*
X36599819Y-65023809D02*
X36599819Y-64833333D01*
X36599819Y-64833333D02*
X36552200Y-64738095D01*
X36552200Y-64738095D02*
X36504580Y-64690476D01*
X36504580Y-64690476D02*
X36409342Y-64642857D01*
X36409342Y-64642857D02*
X36218866Y-64642857D01*
X36218866Y-64642857D02*
X36123628Y-64690476D01*
X36123628Y-64690476D02*
X36076009Y-64738095D01*
X36076009Y-64738095D02*
X36028390Y-64833333D01*
X36559819Y-70309523D02*
X35559819Y-70309523D01*
X35559819Y-70309523D02*
X36274104Y-69976190D01*
X36274104Y-69976190D02*
X35559819Y-69642857D01*
X35559819Y-69642857D02*
X36559819Y-69642857D01*
X35893152Y-68738095D02*
X36559819Y-68738095D01*
X35512200Y-68976190D02*
X36226485Y-69214285D01*
X36226485Y-69214285D02*
X36226485Y-68595238D01*
X57150476Y-48084819D02*
X57150476Y-47084819D01*
X57150476Y-47084819D02*
X57483809Y-47799104D01*
X57483809Y-47799104D02*
X57817142Y-47084819D01*
X57817142Y-47084819D02*
X57817142Y-48084819D01*
X58198095Y-47084819D02*
X58817142Y-47084819D01*
X58817142Y-47084819D02*
X58483809Y-47465771D01*
X58483809Y-47465771D02*
X58626666Y-47465771D01*
X58626666Y-47465771D02*
X58721904Y-47513390D01*
X58721904Y-47513390D02*
X58769523Y-47561009D01*
X58769523Y-47561009D02*
X58817142Y-47656247D01*
X58817142Y-47656247D02*
X58817142Y-47894342D01*
X58817142Y-47894342D02*
X58769523Y-47989580D01*
X58769523Y-47989580D02*
X58721904Y-48037200D01*
X58721904Y-48037200D02*
X58626666Y-48084819D01*
X58626666Y-48084819D02*
X58340952Y-48084819D01*
X58340952Y-48084819D02*
X58245714Y-48037200D01*
X58245714Y-48037200D02*
X58198095Y-47989580D01*
X30838797Y-44850201D02*
X31343873Y-45355277D01*
X31343873Y-45355277D02*
X31411217Y-45489964D01*
X31411217Y-45489964D02*
X31411217Y-45624651D01*
X31411217Y-45624651D02*
X31343873Y-45759338D01*
X31343873Y-45759338D02*
X31276530Y-45826682D01*
X31108171Y-44580827D02*
X31545904Y-44143094D01*
X31545904Y-44143094D02*
X31579576Y-44648170D01*
X31579576Y-44648170D02*
X31680591Y-44547155D01*
X31680591Y-44547155D02*
X31781606Y-44513483D01*
X31781606Y-44513483D02*
X31848950Y-44513483D01*
X31848950Y-44513483D02*
X31949965Y-44547155D01*
X31949965Y-44547155D02*
X32118324Y-44715514D01*
X32118324Y-44715514D02*
X32151995Y-44816529D01*
X32151995Y-44816529D02*
X32151995Y-44883872D01*
X32151995Y-44883872D02*
X32118324Y-44984888D01*
X32118324Y-44984888D02*
X31916293Y-45186918D01*
X31916293Y-45186918D02*
X31815278Y-45220590D01*
X31815278Y-45220590D02*
X31747934Y-45220590D01*
X32696319Y-59285204D02*
X32191243Y-59790280D01*
X32191243Y-59790280D02*
X32056556Y-59857624D01*
X32056556Y-59857624D02*
X31921869Y-59857624D01*
X31921869Y-59857624D02*
X31787182Y-59790280D01*
X31787182Y-59790280D02*
X31719838Y-59722937D01*
X32696319Y-60699418D02*
X32292258Y-60295357D01*
X32494289Y-60497387D02*
X33201396Y-59790280D01*
X33201396Y-59790280D02*
X33033037Y-59823952D01*
X33033037Y-59823952D02*
X32898350Y-59823952D01*
X32898350Y-59823952D02*
X32797335Y-59790280D01*
X33126666Y-54954819D02*
X33126666Y-55669104D01*
X33126666Y-55669104D02*
X33079047Y-55811961D01*
X33079047Y-55811961D02*
X32983809Y-55907200D01*
X32983809Y-55907200D02*
X32840952Y-55954819D01*
X32840952Y-55954819D02*
X32745714Y-55954819D01*
X34079047Y-54954819D02*
X33602857Y-54954819D01*
X33602857Y-54954819D02*
X33555238Y-55431009D01*
X33555238Y-55431009D02*
X33602857Y-55383390D01*
X33602857Y-55383390D02*
X33698095Y-55335771D01*
X33698095Y-55335771D02*
X33936190Y-55335771D01*
X33936190Y-55335771D02*
X34031428Y-55383390D01*
X34031428Y-55383390D02*
X34079047Y-55431009D01*
X34079047Y-55431009D02*
X34126666Y-55526247D01*
X34126666Y-55526247D02*
X34126666Y-55764342D01*
X34126666Y-55764342D02*
X34079047Y-55859580D01*
X34079047Y-55859580D02*
X34031428Y-55907200D01*
X34031428Y-55907200D02*
X33936190Y-55954819D01*
X33936190Y-55954819D02*
X33698095Y-55954819D01*
X33698095Y-55954819D02*
X33602857Y-55907200D01*
X33602857Y-55907200D02*
X33555238Y-55859580D01*
X46414819Y-40309523D02*
X45414819Y-40309523D01*
X45414819Y-40309523D02*
X46129104Y-39976190D01*
X46129104Y-39976190D02*
X45414819Y-39642857D01*
X45414819Y-39642857D02*
X46414819Y-39642857D01*
X45414819Y-38738095D02*
X45414819Y-38928571D01*
X45414819Y-38928571D02*
X45462438Y-39023809D01*
X45462438Y-39023809D02*
X45510057Y-39071428D01*
X45510057Y-39071428D02*
X45652914Y-39166666D01*
X45652914Y-39166666D02*
X45843390Y-39214285D01*
X45843390Y-39214285D02*
X46224342Y-39214285D01*
X46224342Y-39214285D02*
X46319580Y-39166666D01*
X46319580Y-39166666D02*
X46367200Y-39119047D01*
X46367200Y-39119047D02*
X46414819Y-39023809D01*
X46414819Y-39023809D02*
X46414819Y-38833333D01*
X46414819Y-38833333D02*
X46367200Y-38738095D01*
X46367200Y-38738095D02*
X46319580Y-38690476D01*
X46319580Y-38690476D02*
X46224342Y-38642857D01*
X46224342Y-38642857D02*
X45986247Y-38642857D01*
X45986247Y-38642857D02*
X45891009Y-38690476D01*
X45891009Y-38690476D02*
X45843390Y-38738095D01*
X45843390Y-38738095D02*
X45795771Y-38833333D01*
X45795771Y-38833333D02*
X45795771Y-39023809D01*
X45795771Y-39023809D02*
X45843390Y-39119047D01*
X45843390Y-39119047D02*
X45891009Y-39166666D01*
X45891009Y-39166666D02*
X45986247Y-39214285D01*
X34338796Y-34850201D02*
X34843872Y-35355277D01*
X34843872Y-35355277D02*
X34911216Y-35489964D01*
X34911216Y-35489964D02*
X34911216Y-35624651D01*
X34911216Y-35624651D02*
X34843872Y-35759338D01*
X34843872Y-35759338D02*
X34776529Y-35826682D01*
X35214262Y-34446140D02*
X35685666Y-34917544D01*
X34776529Y-34345124D02*
X35113246Y-35018559D01*
X35113246Y-35018559D02*
X35550979Y-34580827D01*
D11*
%TO.C,M1*%
X22630000Y-48630000D02*
X23960000Y-48630000D01*
X22630000Y-49960000D02*
X22630000Y-48630000D01*
X22630000Y-51230000D02*
X22630000Y-56370000D01*
X22630000Y-51230000D02*
X25290000Y-51230000D01*
X22630000Y-56370000D02*
X25290000Y-56370000D01*
X25290000Y-51230000D02*
X25290000Y-56370000D01*
%TO.C,M2*%
X37090000Y-36830000D02*
X37090000Y-35500000D01*
X38420000Y-36830000D02*
X37090000Y-36830000D01*
X39690000Y-34170000D02*
X44830000Y-34170000D01*
X39690000Y-36830000D02*
X39690000Y-34170000D01*
X39690000Y-36830000D02*
X44830000Y-36830000D01*
X44830000Y-36830000D02*
X44830000Y-34170000D01*
%TO.C,M5*%
X26630000Y-48630000D02*
X27960000Y-48630000D01*
X26630000Y-49960000D02*
X26630000Y-48630000D01*
X26630000Y-51230000D02*
X26630000Y-56370000D01*
X26630000Y-51230000D02*
X29290000Y-51230000D01*
X26630000Y-56370000D02*
X29290000Y-56370000D01*
X29290000Y-51230000D02*
X29290000Y-56370000D01*
%TO.C,M7*%
X52630000Y-48670000D02*
X53960000Y-48670000D01*
X52630000Y-50000000D02*
X52630000Y-48670000D01*
X52630000Y-51270000D02*
X52630000Y-56410000D01*
X52630000Y-51270000D02*
X55290000Y-51270000D01*
X52630000Y-56410000D02*
X55290000Y-56410000D01*
X55290000Y-51270000D02*
X55290000Y-56410000D01*
%TO.C,J2*%
X36900000Y-51560000D02*
X36900000Y-50500000D01*
X37960000Y-51560000D02*
X36900000Y-51560000D01*
X38960000Y-49440000D02*
X45020000Y-49440000D01*
X38960000Y-51560000D02*
X38960000Y-49440000D01*
X38960000Y-51560000D02*
X45020000Y-51560000D01*
X45020000Y-51560000D02*
X45020000Y-49440000D01*
%TO.C,M8*%
X37145000Y-66830000D02*
X37145000Y-65500000D01*
X38475000Y-66830000D02*
X37145000Y-66830000D01*
X39745000Y-64170000D02*
X44885000Y-64170000D01*
X39745000Y-66830000D02*
X39745000Y-64170000D01*
X39745000Y-66830000D02*
X44885000Y-66830000D01*
X44885000Y-66830000D02*
X44885000Y-64170000D01*
%TO.C,M4*%
X37105000Y-70830000D02*
X37105000Y-69500000D01*
X38435000Y-70830000D02*
X37105000Y-70830000D01*
X39705000Y-68170000D02*
X44845000Y-68170000D01*
X39705000Y-70830000D02*
X39705000Y-68170000D01*
X39705000Y-70830000D02*
X44845000Y-70830000D01*
X44845000Y-70830000D02*
X44845000Y-68170000D01*
%TO.C,M3*%
X56630000Y-48630000D02*
X57960000Y-48630000D01*
X56630000Y-49960000D02*
X56630000Y-48630000D01*
X56630000Y-51230000D02*
X56630000Y-56370000D01*
X56630000Y-51230000D02*
X59290000Y-51230000D01*
X56630000Y-56370000D02*
X59290000Y-56370000D01*
X59290000Y-51230000D02*
X59290000Y-56370000D01*
%TO.C,J3*%
X23500202Y-43070711D02*
X24384086Y-43954594D01*
X23910324Y-43070711D02*
X28131751Y-47292138D01*
X23924466Y-43070711D02*
X24454796Y-43601041D01*
X24384086Y-42186827D02*
X23500202Y-43070711D01*
X24454796Y-43601041D02*
X25727588Y-42328249D01*
X25197258Y-41797918D02*
X23924466Y-43070711D01*
X25515456Y-44661701D02*
X26045786Y-44131371D01*
X25727588Y-42328249D02*
X25197258Y-41797918D01*
X26045786Y-44131371D02*
X28131751Y-46217336D01*
X26257918Y-40737258D02*
X26788249Y-41267588D01*
X26788249Y-41267588D02*
X27495355Y-40560482D01*
X26965025Y-40030152D02*
X26257918Y-40737258D01*
X27495355Y-40560482D02*
X26965025Y-40030152D01*
X28025685Y-38969491D02*
X28556016Y-39499821D01*
X28131751Y-46217336D02*
X30288427Y-44060660D01*
X28131751Y-47292138D02*
X33519905Y-41903984D01*
X28556016Y-39499821D02*
X29828808Y-38227029D01*
X29298478Y-37682557D02*
X23910324Y-43070711D01*
X29298478Y-37696699D02*
X28025685Y-38969491D01*
X29828808Y-38227029D02*
X29298478Y-37696699D01*
X30359138Y-39818019D02*
X32445103Y-41903984D01*
X30889468Y-39287689D02*
X30359138Y-39818019D01*
X32445103Y-41903984D02*
X30288427Y-44060660D01*
X33519905Y-41903984D02*
X29298478Y-37682557D01*
%TO.C,J1*%
X24676423Y-63321734D02*
X25242108Y-63887419D01*
X25015834Y-63321734D02*
X29131195Y-67437095D01*
X25411814Y-62586343D02*
X24676423Y-63321734D01*
X25666372Y-62671196D02*
X29781734Y-66786557D01*
X26373479Y-61964089D02*
X30488840Y-66079450D01*
X28566217Y-59771351D02*
X32681579Y-63886712D01*
X29781734Y-58555834D02*
X25015834Y-63321734D01*
X29781734Y-58555834D02*
X33897095Y-62671196D01*
X33897095Y-62671196D02*
X29131195Y-67437095D01*
%TO.C,J5*%
X34610000Y-52750000D02*
X34610000Y-54000000D01*
X34900000Y-53040000D02*
X34900000Y-59010000D01*
X34900000Y-59010000D02*
X47520000Y-59010000D01*
X34910000Y-53050000D02*
X34910000Y-53800000D01*
X34910000Y-53800000D02*
X36710000Y-53800000D01*
X34910000Y-55300000D02*
X35660000Y-55300000D01*
X35660000Y-55300000D02*
X35660000Y-58250000D01*
X35660000Y-58250000D02*
X41210000Y-58250000D01*
X35860000Y-52750000D02*
X34610000Y-52750000D01*
X36710000Y-53050000D02*
X34910000Y-53050000D01*
X36710000Y-53800000D02*
X36710000Y-53050000D01*
X38210000Y-53050000D02*
X38210000Y-53800000D01*
X38210000Y-53800000D02*
X44210000Y-53800000D01*
X44210000Y-53050000D02*
X38210000Y-53050000D01*
X44210000Y-53800000D02*
X44210000Y-53050000D01*
X45710000Y-53050000D02*
X45710000Y-53800000D01*
X45710000Y-53800000D02*
X47510000Y-53800000D01*
X46760000Y-55300000D02*
X46760000Y-58250000D01*
X46760000Y-58250000D02*
X41210000Y-58250000D01*
X47510000Y-53050000D02*
X45710000Y-53050000D01*
X47510000Y-53800000D02*
X47510000Y-53050000D01*
X47510000Y-55300000D02*
X46760000Y-55300000D01*
X47520000Y-53040000D02*
X34900000Y-53040000D01*
X47520000Y-59010000D02*
X47520000Y-53040000D01*
D12*
%TO.C,G\u002A\u002A\u002A*%
G36*
X48402339Y-59794700D02*
G01*
X48432316Y-59849171D01*
X48469969Y-59926136D01*
X48471523Y-59929472D01*
X48560009Y-60077183D01*
X48682723Y-60224114D01*
X48825633Y-60356229D01*
X48974704Y-60459494D01*
X49030527Y-60488476D01*
X49108141Y-60526301D01*
X49163720Y-60556702D01*
X49185661Y-60573312D01*
X49185675Y-60573596D01*
X49164315Y-60589686D01*
X49109180Y-60620014D01*
X49032057Y-60658111D01*
X49029531Y-60659304D01*
X48883674Y-60747547D01*
X48737805Y-60869683D01*
X48606047Y-61011590D01*
X48502519Y-61159148D01*
X48472112Y-61216724D01*
X48433903Y-61294149D01*
X48403256Y-61349754D01*
X48386630Y-61371848D01*
X48386403Y-61371871D01*
X48370328Y-61351032D01*
X48340027Y-61296311D01*
X48301959Y-61219398D01*
X48300695Y-61216724D01*
X48212452Y-61070866D01*
X48090316Y-60924997D01*
X47948409Y-60793239D01*
X47800852Y-60689711D01*
X47743276Y-60659304D01*
X47665676Y-60621074D01*
X47609711Y-60590419D01*
X47587169Y-60573809D01*
X47587132Y-60573596D01*
X47607508Y-60557660D01*
X47661979Y-60527683D01*
X47738944Y-60490030D01*
X47742280Y-60488476D01*
X47887864Y-60401222D01*
X48033487Y-60279788D01*
X48165250Y-60138062D01*
X48269254Y-59989934D01*
X48300695Y-59930468D01*
X48338925Y-59852868D01*
X48369580Y-59796903D01*
X48386190Y-59774361D01*
X48386403Y-59774324D01*
X48402339Y-59794700D01*
G37*
G36*
X46573429Y-60630428D02*
G01*
X46595989Y-60688699D01*
X46736413Y-61005595D01*
X46911317Y-61295623D01*
X47127105Y-61568780D01*
X47231538Y-61680951D01*
X47433704Y-61871002D01*
X47648503Y-62035821D01*
X47886371Y-62182130D01*
X48157742Y-62316652D01*
X48335992Y-62392487D01*
X48372431Y-62409144D01*
X48373610Y-62421814D01*
X48334546Y-62438137D01*
X48298455Y-62450027D01*
X48066711Y-62543786D01*
X47825564Y-62675034D01*
X47586957Y-62835994D01*
X47362836Y-63018887D01*
X47231538Y-63144861D01*
X47056970Y-63338516D01*
X46907421Y-63537678D01*
X46775359Y-63754330D01*
X46653252Y-64000454D01*
X46568463Y-64199674D01*
X46553232Y-64231172D01*
X46539505Y-64231679D01*
X46520758Y-64195384D01*
X46498197Y-64137112D01*
X46357773Y-63820217D01*
X46182869Y-63530189D01*
X45967081Y-63257032D01*
X45862649Y-63144861D01*
X45654207Y-62951947D01*
X45423577Y-62775949D01*
X45182701Y-62624644D01*
X44943524Y-62505813D01*
X44795731Y-62450027D01*
X44734724Y-62429024D01*
X44716448Y-62415487D01*
X44735918Y-62401774D01*
X44758194Y-62392487D01*
X45053974Y-62261740D01*
X45310152Y-62123135D01*
X45537165Y-61969949D01*
X45745446Y-61795460D01*
X45862649Y-61680951D01*
X46037216Y-61487296D01*
X46186765Y-61288134D01*
X46318827Y-61071482D01*
X46440935Y-60825358D01*
X46525723Y-60626138D01*
X46540954Y-60594640D01*
X46554681Y-60594133D01*
X46573429Y-60630428D01*
G37*
D11*
%TO.C,M6*%
X37090000Y-40830000D02*
X37090000Y-39500000D01*
X38420000Y-40830000D02*
X37090000Y-40830000D01*
X39690000Y-38170000D02*
X44830000Y-38170000D01*
X39690000Y-40830000D02*
X39690000Y-38170000D01*
X39690000Y-40830000D02*
X44830000Y-40830000D01*
X44830000Y-40830000D02*
X44830000Y-38170000D01*
%TO.C,J4*%
X34136776Y-39798097D02*
X34973293Y-40022241D01*
X34360920Y-40634614D02*
X34136776Y-39798097D01*
X34973293Y-40022241D02*
X34360920Y-40634614D01*
D12*
%TO.C,G\u002A\u002A\u002A*%
G36*
X40783234Y-61166302D02*
G01*
X40809988Y-61168939D01*
X40830782Y-61180542D01*
X40852196Y-61206646D01*
X40875539Y-61243927D01*
X40921969Y-61321553D01*
X40966391Y-61247401D01*
X40994426Y-61204512D01*
X41017716Y-61180918D01*
X41043039Y-61170625D01*
X41055209Y-61168895D01*
X41085540Y-61168253D01*
X41099502Y-61172560D01*
X41099606Y-61173138D01*
X41092569Y-61187866D01*
X41073702Y-61220203D01*
X41046367Y-61264489D01*
X41030131Y-61290039D01*
X40996799Y-61343514D01*
X40976231Y-61382611D01*
X40965386Y-61415811D01*
X40961223Y-61451596D01*
X40960656Y-61483800D01*
X40959885Y-61530779D01*
X40955949Y-61556400D01*
X40946410Y-61567085D01*
X40928833Y-61569255D01*
X40928234Y-61569256D01*
X40899054Y-61565664D01*
X40886550Y-61559992D01*
X40881488Y-61542021D01*
X40878123Y-61505342D01*
X40877286Y-61471829D01*
X40875047Y-61424872D01*
X40865824Y-61386630D01*
X40845863Y-61345825D01*
X40823090Y-61309078D01*
X40784686Y-61249360D01*
X40760227Y-61209160D01*
X40748637Y-61184616D01*
X40748836Y-61171865D01*
X40759746Y-61167048D01*
X40780291Y-61166301D01*
X40783234Y-61166302D01*
G37*
G36*
X40209019Y-60384710D02*
G01*
X40182081Y-60428108D01*
X40155537Y-60468863D01*
X40151009Y-60475520D01*
X40136998Y-60498537D01*
X40132101Y-60519232D01*
X40137988Y-60543567D01*
X40156326Y-60577504D01*
X40188783Y-60627005D01*
X40196621Y-60638569D01*
X40253048Y-60721663D01*
X40200424Y-60721556D01*
X40165708Y-60718527D01*
X40142674Y-60705042D01*
X40120906Y-60674235D01*
X40116122Y-60665976D01*
X40094564Y-60632863D01*
X40076537Y-60613025D01*
X40071138Y-60610503D01*
X40056480Y-60621284D01*
X40034438Y-60648631D01*
X40022746Y-60666083D01*
X39997361Y-60701168D01*
X39973539Y-60717499D01*
X39941423Y-60721656D01*
X39939482Y-60721663D01*
X39891304Y-60721663D01*
X39953551Y-60625438D01*
X39982250Y-60580093D01*
X40003952Y-60543932D01*
X40015065Y-60523010D01*
X40015798Y-60520551D01*
X40008640Y-60505533D01*
X39989778Y-60474049D01*
X39963134Y-60432612D01*
X39960218Y-60428210D01*
X39933077Y-60386584D01*
X39913283Y-60354767D01*
X39904727Y-60339037D01*
X39904639Y-60338568D01*
X39916808Y-60334534D01*
X39946442Y-60332719D01*
X39949797Y-60332711D01*
X39980987Y-60336872D01*
X40003789Y-60353678D01*
X40026634Y-60388290D01*
X40048038Y-60421387D01*
X40065701Y-60441229D01*
X40070904Y-60443763D01*
X40084642Y-60432696D01*
X40104878Y-60404701D01*
X40114733Y-60388183D01*
X40137641Y-60352931D01*
X40159925Y-60336681D01*
X40191218Y-60332610D01*
X40193177Y-60332604D01*
X40240384Y-60332604D01*
X40209019Y-60384710D01*
G37*
G36*
X39479063Y-60175242D02*
G01*
X39510128Y-60200856D01*
X39551808Y-60238929D01*
X39600393Y-60285680D01*
X39652173Y-60337331D01*
X39703438Y-60390103D01*
X39750478Y-60440217D01*
X39789583Y-60483894D01*
X39817044Y-60517355D01*
X39829149Y-60536822D01*
X39829155Y-60539510D01*
X39818093Y-60550769D01*
X39802631Y-60551337D01*
X39779809Y-60539208D01*
X39746666Y-60512375D01*
X39700243Y-60468830D01*
X39646948Y-60415993D01*
X39596523Y-60366046D01*
X39552806Y-60324064D01*
X39519603Y-60293601D01*
X39500718Y-60278211D01*
X39498211Y-60277044D01*
X39496359Y-60290538D01*
X39494612Y-60329440D01*
X39493000Y-60391369D01*
X39491551Y-60473942D01*
X39490296Y-60574779D01*
X39489263Y-60691496D01*
X39488481Y-60821713D01*
X39487981Y-60963047D01*
X39487790Y-61113117D01*
X39487790Y-61124617D01*
X39487790Y-61972210D01*
X40345567Y-61972210D01*
X41203344Y-61972210D01*
X41055778Y-61822839D01*
X40991681Y-61756093D01*
X40947886Y-61705831D01*
X40923463Y-61670604D01*
X40917485Y-61648963D01*
X40929021Y-61639460D01*
X40937698Y-61638730D01*
X40952451Y-61648172D01*
X40982451Y-61673931D01*
X41023834Y-61712162D01*
X41072738Y-61759018D01*
X41125296Y-61810654D01*
X41177646Y-61863224D01*
X41225923Y-61912880D01*
X41266263Y-61955777D01*
X41294801Y-61988070D01*
X41307674Y-62005910D01*
X41308030Y-62007341D01*
X41298534Y-62021927D01*
X41272626Y-62051673D01*
X41234174Y-62092741D01*
X41187047Y-62141292D01*
X41135114Y-62193488D01*
X41082243Y-62245491D01*
X41032304Y-62293462D01*
X40989164Y-62333562D01*
X40956693Y-62361954D01*
X40938760Y-62374798D01*
X40937305Y-62375164D01*
X40919608Y-62369778D01*
X40919169Y-62352674D01*
X40936902Y-62322428D01*
X40973725Y-62277619D01*
X41030550Y-62216823D01*
X41055778Y-62191055D01*
X41203344Y-62041684D01*
X40345567Y-62041684D01*
X39487790Y-62041684D01*
X39487790Y-62944857D01*
X39487705Y-63129938D01*
X39487428Y-63289026D01*
X39486921Y-63423921D01*
X39486147Y-63536419D01*
X39485070Y-63628319D01*
X39483652Y-63701419D01*
X39481857Y-63757516D01*
X39479648Y-63798409D01*
X39476987Y-63825894D01*
X39473839Y-63841770D01*
X39470166Y-63847834D01*
X39469263Y-63848030D01*
X39445631Y-63841858D01*
X39441473Y-63838767D01*
X39439867Y-63823622D01*
X39438349Y-63783039D01*
X39436944Y-63719368D01*
X39435675Y-63634962D01*
X39434567Y-63532172D01*
X39433644Y-63413350D01*
X39432929Y-63280846D01*
X39432448Y-63137013D01*
X39432223Y-62984201D01*
X39432210Y-62935594D01*
X39432210Y-62041684D01*
X38530523Y-62041684D01*
X38347876Y-62041621D01*
X38191089Y-62041403D01*
X38058231Y-62040985D01*
X37947373Y-62040324D01*
X37856585Y-62039376D01*
X37783938Y-62038097D01*
X37727500Y-62036444D01*
X37685342Y-62034373D01*
X37655534Y-62031840D01*
X37636147Y-62028802D01*
X37625249Y-62025214D01*
X37620920Y-62021054D01*
X37625097Y-61998388D01*
X37639363Y-61986317D01*
X37659460Y-61983132D01*
X37706729Y-61980334D01*
X37780552Y-61977933D01*
X37880312Y-61975938D01*
X38005394Y-61974359D01*
X38155180Y-61973205D01*
X38329054Y-61972487D01*
X38526399Y-61972212D01*
X38548966Y-61972210D01*
X39432210Y-61972210D01*
X39432210Y-61121391D01*
X39432210Y-60270573D01*
X39289549Y-60412748D01*
X39220745Y-60479029D01*
X39168283Y-60524207D01*
X39131178Y-60548901D01*
X39108443Y-60553733D01*
X39099093Y-60539324D01*
X39098730Y-60532980D01*
X39108243Y-60516125D01*
X39134171Y-60484313D01*
X39172597Y-60441497D01*
X39219605Y-60391632D01*
X39271277Y-60338672D01*
X39323697Y-60286573D01*
X39372949Y-60239289D01*
X39415116Y-60200774D01*
X39446281Y-60174983D01*
X39462323Y-60165864D01*
X39479063Y-60175242D01*
G37*
%TD*%
M02*
