M48
; DRILL file {KiCad 8.0.5} date 2025-01-19T22:43:39+0800
; FORMAT={-:-/ absolute / inch / decimal}
; #@! TF.CreationDate,2025-01-19T22:43:39+08:00
; #@! TF.GenerationSoftware,Kicad,Pcbnew,8.0.5
; #@! TF.FileFunction,Plated,1,2,PTH
FMAT,2
INCH
; #@! TA.AperFunction,Plated,PTH,ViaDrill
T1C0.0118
; #@! TA.AperFunction,Plated,PTH,ComponentDrill
T2C0.0315
; #@! TA.AperFunction,Plated,PTH,ComponentDrill
T3C0.0374
; #@! TA.AperFunction,Plated,PTH,ComponentDrill
T4C0.0394
; #@! TA.AperFunction,Plated,PTH,ComponentDrill
T5C0.0472
; #@! TA.AperFunction,Plated,PTH,ComponentDrill
T6C0.1260
%
G90
G05
T1
X1.3961Y-1.3976
T2
X1.4945Y-1.9882
X1.5732Y-1.9882
X1.652Y-1.9882
X1.7307Y-1.9882
T3
X1.4748Y-2.185
X1.5732Y-2.185
X1.6717Y-2.185
X1.7701Y-2.185
T4
X0.9433Y-1.9669
X0.9433Y-2.0669
X0.9433Y-2.1669
X1.0811Y-1.6929
X1.1008Y-1.9669
X1.1008Y-2.0669
X1.1008Y-2.1669
X1.1507Y-1.6233
X1.5126Y-1.3976
X1.5126Y-1.5551
X1.5132Y-2.7362
X1.5148Y-2.5787
X1.6126Y-1.3976
X1.6126Y-1.5551
X1.6132Y-2.7362
X1.6148Y-2.5787
X1.7126Y-1.3976
X1.7126Y-1.5551
X1.7132Y-2.7362
X1.7148Y-2.5787
X2.1244Y-1.9685
X2.1244Y-2.0685
X2.1244Y-2.1685
X2.2819Y-1.9669
X2.2819Y-2.0669
X2.2819Y-2.1669
T5
X1.1285Y-2.4406
X1.1992Y-2.5114
T6
X2.085Y-1.6929
X2.085Y-2.4606
M30
