%TF.GenerationSoftware,KiCad,Pcbnew,8.0.5*%
%TF.CreationDate,2025-01-19T22:36:25+08:00*%
%TF.ProjectId,Servo Breakout Board ,53657276-6f20-4427-9265-616b6f757420,rev?*%
%TF.SameCoordinates,Original*%
%TF.FileFunction,Copper,L2,Bot*%
%TF.FilePolarity,Positive*%
%FSLAX46Y46*%
G04 Gerber Fmt 4.6, Leading zero omitted, Abs format (unit mm)*
G04 Created by KiCad (PCBNEW 8.0.5) date 2025-01-19 22:36:25*
%MOMM*%
%LPD*%
G01*
G04 APERTURE LIST*
G04 Aperture macros list*
%AMRoundRect*
0 Rectangle with rounded corners*
0 $1 Rounding radius*
0 $2 $3 $4 $5 $6 $7 $8 $9 X,Y pos of 4 corners*
0 Add a 4 corners polygon primitive as box body*
4,1,4,$2,$3,$4,$5,$6,$7,$8,$9,$2,$3,0*
0 Add four circle primitives for the rounded corners*
1,1,$1+$1,$2,$3*
1,1,$1+$1,$4,$5*
1,1,$1+$1,$6,$7*
1,1,$1+$1,$8,$9*
0 Add four rect primitives between the rounded corners*
20,1,$1+$1,$2,$3,$4,$5,0*
20,1,$1+$1,$4,$5,$6,$7,0*
20,1,$1+$1,$6,$7,$8,$9,0*
20,1,$1+$1,$8,$9,$2,$3,0*%
%AMHorizOval*
0 Thick line with rounded ends*
0 $1 width*
0 $2 $3 position (X,Y) of the first rounded end (center of the circle)*
0 $4 $5 position (X,Y) of the second rounded end (center of the circle)*
0 Add line between two ends*
20,1,$1,$2,$3,$4,$5,0*
0 Add two circle primitives to create the rounded ends*
1,1,$1,$2,$3*
1,1,$1,$4,$5*%
%AMRotRect*
0 Rectangle, with rotation*
0 The origin of the aperture is its center*
0 $1 length*
0 $2 width*
0 $3 Rotation angle, in degrees counterclockwise*
0 Add horizontal line*
21,1,$1,$2,0,0,$3*%
G04 Aperture macros list end*
%TA.AperFunction,ComponentPad*%
%ADD10C,3.600000*%
%TD*%
%TA.AperFunction,ConnectorPad*%
%ADD11C,5.600000*%
%TD*%
%TA.AperFunction,ComponentPad*%
%ADD12R,1.700000X1.700000*%
%TD*%
%TA.AperFunction,ComponentPad*%
%ADD13O,1.700000X1.700000*%
%TD*%
%TA.AperFunction,ComponentPad*%
%ADD14R,1.350000X1.350000*%
%TD*%
%TA.AperFunction,ComponentPad*%
%ADD15O,1.350000X1.350000*%
%TD*%
%TA.AperFunction,ComponentPad*%
%ADD16RoundRect,0.250000X0.106066X-0.954594X0.954594X-0.106066X-0.106066X0.954594X-0.954594X0.106066X0*%
%TD*%
%TA.AperFunction,ComponentPad*%
%ADD17HorizOval,1.700000X-0.106066X0.106066X0.106066X-0.106066X0*%
%TD*%
%TA.AperFunction,ComponentPad*%
%ADD18RotRect,2.000000X2.000000X315.000000*%
%TD*%
%TA.AperFunction,ComponentPad*%
%ADD19C,2.000000*%
%TD*%
%TA.AperFunction,ComponentPad*%
%ADD20RoundRect,0.250000X-0.600000X-0.725000X0.600000X-0.725000X0.600000X0.725000X-0.600000X0.725000X0*%
%TD*%
%TA.AperFunction,ComponentPad*%
%ADD21O,1.700000X1.950000*%
%TD*%
%TA.AperFunction,ViaPad*%
%ADD22C,1.500000*%
%TD*%
%TA.AperFunction,Conductor*%
%ADD23C,0.200000*%
%TD*%
G04 APERTURE END LIST*
D10*
%TO.P,M3,1*%
%TO.N,N/C*%
X52960000Y-62500000D03*
D11*
X52960000Y-62500000D03*
%TD*%
D12*
%TO.P,M1,1,PWM*%
%TO.N,Net-(J2-Pin_1)*%
X23960000Y-49960000D03*
D13*
%TO.P,M1,2,+*%
%TO.N,+5V*%
X23960000Y-52500000D03*
%TO.P,M1,3,-*%
%TO.N,GND*%
X23960000Y-55040000D03*
%TD*%
D12*
%TO.P,M2,1,PWM*%
%TO.N,Net-(J2-Pin_2)*%
X38420000Y-35500000D03*
D13*
%TO.P,M2,2,+*%
%TO.N,+5V*%
X40960000Y-35500000D03*
%TO.P,M2,3,-*%
%TO.N,GND*%
X43500000Y-35500000D03*
%TD*%
D12*
%TO.P,M5,1,PWM*%
%TO.N,Net-(J2-Pin_1)*%
X27960000Y-49960000D03*
D13*
%TO.P,M5,2,+*%
%TO.N,+5V*%
X27960000Y-52500000D03*
%TO.P,M5,3,-*%
%TO.N,GND*%
X27960000Y-55040000D03*
%TD*%
D12*
%TO.P,M7,1,PWM*%
%TO.N,Net-(J2-Pin_3)*%
X53960000Y-50000000D03*
D13*
%TO.P,M7,2,+*%
%TO.N,+5V*%
X53960000Y-52540000D03*
%TO.P,M7,3,-*%
%TO.N,GND*%
X53960000Y-55080000D03*
%TD*%
D10*
%TO.P,M3,1*%
%TO.N,N/C*%
X52960000Y-43000000D03*
D11*
X52960000Y-43000000D03*
%TD*%
D14*
%TO.P,J2,1,Pin_1*%
%TO.N,Net-(J2-Pin_1)*%
X37960000Y-50500000D03*
D15*
%TO.P,J2,2,Pin_2*%
%TO.N,Net-(J2-Pin_2)*%
X39960000Y-50500000D03*
%TO.P,J2,3,Pin_3*%
%TO.N,Net-(J2-Pin_3)*%
X41960000Y-50500000D03*
%TO.P,J2,4,Pin_4*%
%TO.N,Net-(J2-Pin_4)*%
X43960000Y-50500000D03*
%TD*%
D12*
%TO.P,M8,1,PWM*%
%TO.N,Net-(J2-Pin_4)*%
X38475000Y-65500000D03*
D13*
%TO.P,M8,2,+*%
%TO.N,+5V*%
X41015000Y-65500000D03*
%TO.P,M8,3,-*%
%TO.N,GND*%
X43555000Y-65500000D03*
%TD*%
D12*
%TO.P,M4,1,PWM*%
%TO.N,Net-(J2-Pin_4)*%
X38435000Y-69500000D03*
D13*
%TO.P,M4,2,+*%
%TO.N,+5V*%
X40975000Y-69500000D03*
%TO.P,M4,3,-*%
%TO.N,GND*%
X43515000Y-69500000D03*
%TD*%
D12*
%TO.P,M3,1,PWM*%
%TO.N,Net-(J2-Pin_3)*%
X57960000Y-49960000D03*
D13*
%TO.P,M3,2,+*%
%TO.N,+5V*%
X57960000Y-52500000D03*
%TO.P,M3,3,-*%
%TO.N,GND*%
X57960000Y-55040000D03*
%TD*%
D16*
%TO.P,J3,1,Pin_1*%
%TO.N,+5V*%
X27460000Y-43000000D03*
D17*
%TO.P,J3,2,Pin_2*%
%TO.N,GND*%
X29227767Y-41232233D03*
%TD*%
D18*
%TO.P,J1,1,Pin_1*%
%TO.N,+5V*%
X28664505Y-61992373D03*
D19*
%TO.P,J1,2,Pin_2*%
%TO.N,GND*%
X30460556Y-63788424D03*
%TD*%
D20*
%TO.P,J5,1,Pin_1*%
%TO.N,Net-(J2-Pin_1)*%
X37460000Y-55500000D03*
D21*
%TO.P,J5,2,Pin_2*%
%TO.N,Net-(J2-Pin_2)*%
X39960000Y-55500000D03*
%TO.P,J5,3,Pin_3*%
%TO.N,Net-(J2-Pin_3)*%
X42460000Y-55500000D03*
%TO.P,J5,4,Pin_4*%
%TO.N,Net-(J2-Pin_4)*%
X44960000Y-55500000D03*
%TD*%
D12*
%TO.P,M6,1,PWM*%
%TO.N,Net-(J2-Pin_2)*%
X38420000Y-39500000D03*
D13*
%TO.P,M6,2,+*%
%TO.N,+5V*%
X40960000Y-39500000D03*
%TO.P,M6,3,-*%
%TO.N,GND*%
X43500000Y-39500000D03*
%TD*%
D22*
%TO.N,GND*%
X35460000Y-35500000D03*
%TD*%
D23*
%TO.N,Net-(J2-Pin_1)*%
X27460000Y-49960000D02*
X23460000Y-49960000D01*
%TO.N,Net-(J2-Pin_4)*%
X38475000Y-66000000D02*
X38475000Y-69960000D01*
X38475000Y-69960000D02*
X38435000Y-70000000D01*
%TO.N,Net-(J2-Pin_3)*%
X54960000Y-50000000D02*
X55000000Y-49960000D01*
X55000000Y-49960000D02*
X58460000Y-49960000D01*
X54460000Y-50000000D02*
X54960000Y-50000000D01*
%TD*%
%TA.AperFunction,Conductor*%
%TO.N,GND*%
G36*
X30092148Y-63308305D02*
G01*
X29980437Y-63420016D01*
X29960556Y-63454450D01*
X29960556Y-63412424D01*
X29980241Y-63345385D01*
X30033045Y-63299630D01*
X30084556Y-63288424D01*
X30126583Y-63288424D01*
X30092148Y-63308305D01*
G37*
%TD.AperFunction*%
%TA.AperFunction,Conductor*%
G36*
X41872098Y-33020073D02*
G01*
X41877594Y-33020320D01*
X42745187Y-33078814D01*
X42750651Y-33079306D01*
X43614743Y-33176666D01*
X43620207Y-33177406D01*
X44479039Y-33313432D01*
X44484454Y-33314414D01*
X45336342Y-33488839D01*
X45341762Y-33490077D01*
X46184878Y-33702524D01*
X46190242Y-33704004D01*
X47023020Y-33954075D01*
X47028288Y-33955787D01*
X47849026Y-34242977D01*
X47854235Y-34244932D01*
X48661206Y-34568631D01*
X48666323Y-34570818D01*
X48793532Y-34628599D01*
X49457990Y-34930410D01*
X49462965Y-34932806D01*
X49973612Y-35192993D01*
X50237725Y-35327565D01*
X50242625Y-35330202D01*
X50998856Y-35759303D01*
X51003629Y-35762154D01*
X51607802Y-36141781D01*
X51739867Y-36224763D01*
X51744511Y-36227829D01*
X52459232Y-36722989D01*
X52463734Y-36726260D01*
X53155513Y-37252982D01*
X53159864Y-37256451D01*
X53827343Y-37813702D01*
X53831528Y-37817359D01*
X54388439Y-38326398D01*
X54473328Y-38403990D01*
X54477350Y-38407836D01*
X55092163Y-39022649D01*
X55096009Y-39026671D01*
X55682636Y-39668466D01*
X55686295Y-39672653D01*
X55805244Y-39815131D01*
X56243548Y-40340135D01*
X56247017Y-40344486D01*
X56773739Y-41036265D01*
X56777010Y-41040767D01*
X57272170Y-41755488D01*
X57275236Y-41760132D01*
X57737842Y-42496366D01*
X57740696Y-42501143D01*
X58169797Y-43257374D01*
X58172434Y-43262274D01*
X58567184Y-44037015D01*
X58569598Y-44042029D01*
X58929181Y-44833676D01*
X58931368Y-44838793D01*
X59255067Y-45645764D01*
X59257022Y-45650973D01*
X59544212Y-46471711D01*
X59545932Y-46477004D01*
X59795995Y-47309757D01*
X59797475Y-47315121D01*
X60009922Y-48158237D01*
X60011161Y-48163662D01*
X60185579Y-49015515D01*
X60186572Y-49020990D01*
X60322589Y-49879767D01*
X60323336Y-49885281D01*
X60420689Y-50749309D01*
X60421188Y-50754852D01*
X60479677Y-51622373D01*
X60479927Y-51627932D01*
X60499437Y-52497218D01*
X60499437Y-52502782D01*
X60479927Y-53372067D01*
X60479677Y-53377626D01*
X60421188Y-54245147D01*
X60420689Y-54250690D01*
X60323336Y-55114718D01*
X60322589Y-55120232D01*
X60186572Y-55979009D01*
X60185579Y-55984484D01*
X60011161Y-56836337D01*
X60009922Y-56841762D01*
X59797475Y-57684878D01*
X59795995Y-57690242D01*
X59545932Y-58522995D01*
X59544212Y-58528288D01*
X59257022Y-59349026D01*
X59255067Y-59354235D01*
X58931368Y-60161206D01*
X58929181Y-60166323D01*
X58569598Y-60957970D01*
X58567184Y-60962984D01*
X58172434Y-61737725D01*
X58169797Y-61742625D01*
X57740696Y-62498856D01*
X57737842Y-62503633D01*
X57275236Y-63239867D01*
X57272170Y-63244511D01*
X56777010Y-63959232D01*
X56773739Y-63963734D01*
X56247017Y-64655513D01*
X56243548Y-64659864D01*
X55686297Y-65327343D01*
X55682636Y-65331533D01*
X55096009Y-65973328D01*
X55092163Y-65977350D01*
X54477350Y-66592163D01*
X54473328Y-66596009D01*
X53831533Y-67182636D01*
X53827343Y-67186297D01*
X53159864Y-67743548D01*
X53155513Y-67747017D01*
X52463734Y-68273739D01*
X52459232Y-68277010D01*
X51744511Y-68772170D01*
X51739867Y-68775236D01*
X51003633Y-69237842D01*
X50998856Y-69240696D01*
X50242625Y-69669797D01*
X50237725Y-69672434D01*
X49462984Y-70067184D01*
X49457970Y-70069598D01*
X48666323Y-70429181D01*
X48661206Y-70431368D01*
X47854235Y-70755067D01*
X47849026Y-70757022D01*
X47028288Y-71044212D01*
X47022995Y-71045932D01*
X46190242Y-71295995D01*
X46184878Y-71297475D01*
X45341762Y-71509922D01*
X45336337Y-71511161D01*
X44484484Y-71685579D01*
X44479009Y-71686572D01*
X43620232Y-71822589D01*
X43614718Y-71823336D01*
X42750690Y-71920689D01*
X42745147Y-71921188D01*
X41877626Y-71979677D01*
X41872067Y-71979927D01*
X41002782Y-71999437D01*
X40997218Y-71999437D01*
X40127932Y-71979927D01*
X40122373Y-71979677D01*
X39254852Y-71921188D01*
X39249309Y-71920689D01*
X38385281Y-71823336D01*
X38379767Y-71822589D01*
X37520990Y-71686572D01*
X37515515Y-71685579D01*
X36663662Y-71511161D01*
X36658237Y-71509922D01*
X35815121Y-71297475D01*
X35809757Y-71295995D01*
X34977004Y-71045932D01*
X34971711Y-71044212D01*
X34150973Y-70757022D01*
X34145764Y-70755067D01*
X33338793Y-70431368D01*
X33333676Y-70429181D01*
X32542029Y-70069598D01*
X32537015Y-70067184D01*
X31762274Y-69672434D01*
X31757374Y-69669797D01*
X31001143Y-69240696D01*
X30996366Y-69237842D01*
X30260132Y-68775236D01*
X30255488Y-68772170D01*
X30010057Y-68602135D01*
X37084500Y-68602135D01*
X37084500Y-70397870D01*
X37084501Y-70397876D01*
X37090908Y-70457483D01*
X37141202Y-70592328D01*
X37141206Y-70592335D01*
X37227452Y-70707544D01*
X37227455Y-70707547D01*
X37342664Y-70793793D01*
X37342671Y-70793797D01*
X37477517Y-70844091D01*
X37477516Y-70844091D01*
X37484444Y-70844835D01*
X37537127Y-70850500D01*
X39332872Y-70850499D01*
X39392483Y-70844091D01*
X39527331Y-70793796D01*
X39642546Y-70707546D01*
X39728796Y-70592331D01*
X39777810Y-70460916D01*
X39819681Y-70404984D01*
X39885145Y-70380566D01*
X39953418Y-70395417D01*
X39981673Y-70416569D01*
X40103599Y-70538495D01*
X40200384Y-70606265D01*
X40297165Y-70674032D01*
X40297167Y-70674033D01*
X40297170Y-70674035D01*
X40511337Y-70773903D01*
X40739592Y-70835063D01*
X40916034Y-70850500D01*
X40974999Y-70855659D01*
X40975000Y-70855659D01*
X40975001Y-70855659D01*
X41033966Y-70850500D01*
X41210408Y-70835063D01*
X41438663Y-70773903D01*
X41652830Y-70674035D01*
X41846401Y-70538495D01*
X42013495Y-70371401D01*
X42143730Y-70185405D01*
X42198307Y-70141781D01*
X42267805Y-70134587D01*
X42330160Y-70166110D01*
X42346879Y-70185405D01*
X42476890Y-70371078D01*
X42643917Y-70538105D01*
X42837422Y-70673600D01*
X42837424Y-70673601D01*
X43014999Y-70756405D01*
X43015000Y-70756405D01*
X44015000Y-70756405D01*
X44192575Y-70673601D01*
X44192577Y-70673600D01*
X44386082Y-70538105D01*
X44553105Y-70371082D01*
X44688601Y-70177576D01*
X44771406Y-70000000D01*
X44015000Y-70000000D01*
X44015000Y-70756405D01*
X43015000Y-70756405D01*
X43015000Y-69565826D01*
X43049075Y-69692993D01*
X43114901Y-69807007D01*
X43207993Y-69900099D01*
X43322007Y-69965925D01*
X43449174Y-70000000D01*
X43580826Y-70000000D01*
X43707993Y-69965925D01*
X43822007Y-69900099D01*
X43915099Y-69807007D01*
X43980925Y-69692993D01*
X44015000Y-69565826D01*
X44015000Y-69434174D01*
X43980925Y-69307007D01*
X43915099Y-69192993D01*
X43822007Y-69099901D01*
X43707993Y-69034075D01*
X43580826Y-69000000D01*
X44015000Y-69000000D01*
X44771406Y-69000000D01*
X44771405Y-68999999D01*
X44688599Y-68822421D01*
X44688597Y-68822417D01*
X44553113Y-68628926D01*
X44553108Y-68628920D01*
X44386082Y-68461894D01*
X44192576Y-68326398D01*
X44015000Y-68243593D01*
X44015000Y-69000000D01*
X43580826Y-69000000D01*
X43449174Y-69000000D01*
X43322007Y-69034075D01*
X43207993Y-69099901D01*
X43114901Y-69192993D01*
X43049075Y-69307007D01*
X43015000Y-69434174D01*
X43015000Y-68243593D01*
X43014999Y-68243593D01*
X42837422Y-68326399D01*
X42837420Y-68326400D01*
X42643926Y-68461886D01*
X42643920Y-68461891D01*
X42476891Y-68628920D01*
X42476890Y-68628922D01*
X42346880Y-68814595D01*
X42292303Y-68858219D01*
X42222804Y-68865412D01*
X42160450Y-68833890D01*
X42143730Y-68814594D01*
X42013494Y-68628597D01*
X41846402Y-68461506D01*
X41846395Y-68461501D01*
X41652834Y-68325967D01*
X41652830Y-68325965D01*
X41652828Y-68325964D01*
X41438663Y-68226097D01*
X41438659Y-68226096D01*
X41438655Y-68226094D01*
X41210413Y-68164938D01*
X41210403Y-68164936D01*
X40975001Y-68144341D01*
X40974999Y-68144341D01*
X40739596Y-68164936D01*
X40739586Y-68164938D01*
X40511344Y-68226094D01*
X40511335Y-68226098D01*
X40297171Y-68325964D01*
X40297169Y-68325965D01*
X40103600Y-68461503D01*
X39981673Y-68583430D01*
X39920350Y-68616914D01*
X39850658Y-68611930D01*
X39794725Y-68570058D01*
X39777810Y-68539081D01*
X39728797Y-68407671D01*
X39728793Y-68407664D01*
X39642547Y-68292455D01*
X39642544Y-68292452D01*
X39527335Y-68206206D01*
X39527328Y-68206202D01*
X39392482Y-68155908D01*
X39392483Y-68155908D01*
X39332883Y-68149501D01*
X39332881Y-68149500D01*
X39332873Y-68149500D01*
X39332865Y-68149500D01*
X39199500Y-68149500D01*
X39132461Y-68129815D01*
X39086706Y-68077011D01*
X39075500Y-68025500D01*
X39075500Y-66974499D01*
X39095185Y-66907460D01*
X39147989Y-66861705D01*
X39199500Y-66850499D01*
X39372871Y-66850499D01*
X39372872Y-66850499D01*
X39432483Y-66844091D01*
X39567331Y-66793796D01*
X39682546Y-66707546D01*
X39768796Y-66592331D01*
X39817810Y-66460916D01*
X39859681Y-66404984D01*
X39925145Y-66380566D01*
X39993418Y-66395417D01*
X40021673Y-66416569D01*
X40143599Y-66538495D01*
X40240384Y-66606265D01*
X40337165Y-66674032D01*
X40337167Y-66674033D01*
X40337170Y-66674035D01*
X40551337Y-66773903D01*
X40779592Y-66835063D01*
X40956034Y-66850500D01*
X41014999Y-66855659D01*
X41015000Y-66855659D01*
X41015001Y-66855659D01*
X41073966Y-66850500D01*
X41250408Y-66835063D01*
X41478663Y-66773903D01*
X41692830Y-66674035D01*
X41886401Y-66538495D01*
X42053495Y-66371401D01*
X42183730Y-66185405D01*
X42238307Y-66141781D01*
X42307805Y-66134587D01*
X42370160Y-66166110D01*
X42386879Y-66185405D01*
X42516890Y-66371078D01*
X42683917Y-66538105D01*
X42877422Y-66673600D01*
X42877424Y-66673601D01*
X43054999Y-66756405D01*
X43055000Y-66756405D01*
X44055000Y-66756405D01*
X44232575Y-66673601D01*
X44232577Y-66673600D01*
X44426082Y-66538105D01*
X44593105Y-66371082D01*
X44728601Y-66177576D01*
X44811406Y-66000000D01*
X44055000Y-66000000D01*
X44055000Y-66756405D01*
X43055000Y-66756405D01*
X43055000Y-65565826D01*
X43089075Y-65692993D01*
X43154901Y-65807007D01*
X43247993Y-65900099D01*
X43362007Y-65965925D01*
X43489174Y-66000000D01*
X43620826Y-66000000D01*
X43747993Y-65965925D01*
X43862007Y-65900099D01*
X43955099Y-65807007D01*
X44020925Y-65692993D01*
X44055000Y-65565826D01*
X44055000Y-65434174D01*
X44020925Y-65307007D01*
X43955099Y-65192993D01*
X43862007Y-65099901D01*
X43747993Y-65034075D01*
X43620826Y-65000000D01*
X44055000Y-65000000D01*
X44811406Y-65000000D01*
X44811405Y-64999999D01*
X44728599Y-64822421D01*
X44728597Y-64822417D01*
X44593113Y-64628926D01*
X44593108Y-64628920D01*
X44426082Y-64461894D01*
X44232576Y-64326398D01*
X44055000Y-64243593D01*
X44055000Y-65000000D01*
X43620826Y-65000000D01*
X43489174Y-65000000D01*
X43362007Y-65034075D01*
X43247993Y-65099901D01*
X43154901Y-65192993D01*
X43089075Y-65307007D01*
X43055000Y-65434174D01*
X43055000Y-64243593D01*
X43054999Y-64243593D01*
X42877422Y-64326399D01*
X42877420Y-64326400D01*
X42683926Y-64461886D01*
X42683920Y-64461891D01*
X42516891Y-64628920D01*
X42516890Y-64628922D01*
X42386880Y-64814595D01*
X42332303Y-64858219D01*
X42262804Y-64865412D01*
X42200450Y-64833890D01*
X42183730Y-64814594D01*
X42053494Y-64628597D01*
X41886402Y-64461506D01*
X41886395Y-64461501D01*
X41692834Y-64325967D01*
X41692830Y-64325965D01*
X41692828Y-64325964D01*
X41478663Y-64226097D01*
X41478659Y-64226096D01*
X41478655Y-64226094D01*
X41250413Y-64164938D01*
X41250403Y-64164936D01*
X41015001Y-64144341D01*
X41014999Y-64144341D01*
X40779596Y-64164936D01*
X40779586Y-64164938D01*
X40551344Y-64226094D01*
X40551335Y-64226098D01*
X40337171Y-64325964D01*
X40337169Y-64325965D01*
X40143600Y-64461503D01*
X40021673Y-64583430D01*
X39960350Y-64616914D01*
X39890658Y-64611930D01*
X39834725Y-64570058D01*
X39817810Y-64539081D01*
X39768797Y-64407671D01*
X39768793Y-64407664D01*
X39682547Y-64292455D01*
X39682544Y-64292452D01*
X39567335Y-64206206D01*
X39567328Y-64206202D01*
X39432482Y-64155908D01*
X39432483Y-64155908D01*
X39372883Y-64149501D01*
X39372881Y-64149500D01*
X39372873Y-64149500D01*
X39372864Y-64149500D01*
X37577129Y-64149500D01*
X37577123Y-64149501D01*
X37517516Y-64155908D01*
X37382671Y-64206202D01*
X37382664Y-64206206D01*
X37267455Y-64292452D01*
X37267452Y-64292455D01*
X37181206Y-64407664D01*
X37181202Y-64407671D01*
X37130908Y-64542517D01*
X37124501Y-64602116D01*
X37124500Y-64602135D01*
X37124500Y-66397870D01*
X37124501Y-66397876D01*
X37130908Y-66457483D01*
X37181202Y-66592328D01*
X37181206Y-66592335D01*
X37267452Y-66707544D01*
X37267455Y-66707547D01*
X37382664Y-66793793D01*
X37382671Y-66793797D01*
X37427618Y-66810561D01*
X37517517Y-66844091D01*
X37577127Y-66850500D01*
X37750500Y-66850499D01*
X37817539Y-66870183D01*
X37863294Y-66922987D01*
X37874500Y-66974499D01*
X37874500Y-68025500D01*
X37854815Y-68092539D01*
X37802011Y-68138294D01*
X37750501Y-68149500D01*
X37537130Y-68149500D01*
X37537123Y-68149501D01*
X37477516Y-68155908D01*
X37342671Y-68206202D01*
X37342664Y-68206206D01*
X37227455Y-68292452D01*
X37227452Y-68292455D01*
X37141206Y-68407664D01*
X37141202Y-68407671D01*
X37090908Y-68542517D01*
X37084501Y-68602116D01*
X37084500Y-68602135D01*
X30010057Y-68602135D01*
X29540767Y-68277010D01*
X29536265Y-68273739D01*
X28844486Y-67747017D01*
X28840135Y-67743548D01*
X28172656Y-67186297D01*
X28168466Y-67182636D01*
X27526671Y-66596009D01*
X27522649Y-66592163D01*
X26907836Y-65977350D01*
X26903990Y-65973328D01*
X26535866Y-65570585D01*
X26317359Y-65331528D01*
X26313702Y-65327343D01*
X26296724Y-65307007D01*
X25756449Y-64659861D01*
X25752982Y-64655513D01*
X25226260Y-63963734D01*
X25222989Y-63959232D01*
X24727829Y-63244511D01*
X24724763Y-63239867D01*
X24262154Y-62503629D01*
X24259303Y-62498856D01*
X24153520Y-62312429D01*
X23971914Y-61992373D01*
X26744645Y-61992373D01*
X26765125Y-62134828D01*
X26765126Y-62134832D01*
X26824912Y-62265743D01*
X26824913Y-62265744D01*
X26824914Y-62265746D01*
X26862533Y-62312429D01*
X26862536Y-62312432D01*
X26862541Y-62312438D01*
X27622161Y-63072056D01*
X28344449Y-63794343D01*
X28344453Y-63794346D01*
X28344455Y-63794348D01*
X28391131Y-63831964D01*
X28522045Y-63891751D01*
X28522046Y-63891751D01*
X28522048Y-63891752D01*
X28664505Y-63912233D01*
X28806962Y-63891752D01*
X28806963Y-63891751D01*
X28814294Y-63889599D01*
X28884163Y-63889597D01*
X28942943Y-63927370D01*
X28971969Y-63990924D01*
X28972808Y-63998335D01*
X28975941Y-64036153D01*
X28975943Y-64036162D01*
X29036968Y-64277141D01*
X29136823Y-64504791D01*
X29272788Y-64712902D01*
X29441148Y-64895788D01*
X29441158Y-64895797D01*
X29637318Y-65048475D01*
X29637327Y-65048481D01*
X29855941Y-65166788D01*
X29855944Y-65166790D01*
X29960556Y-65202702D01*
X30960556Y-65202702D01*
X31065167Y-65166790D01*
X31065170Y-65166788D01*
X31283784Y-65048481D01*
X31283793Y-65048475D01*
X31479953Y-64895797D01*
X31479963Y-64895788D01*
X31648323Y-64712902D01*
X31784288Y-64504791D01*
X31879195Y-64288424D01*
X30960556Y-64288424D01*
X30960556Y-65202702D01*
X29960556Y-65202702D01*
X29960556Y-64122397D01*
X29980437Y-64156832D01*
X30092148Y-64268543D01*
X30228965Y-64347535D01*
X30381565Y-64388424D01*
X30539547Y-64388424D01*
X30692147Y-64347535D01*
X30828964Y-64268543D01*
X30940675Y-64156832D01*
X31019667Y-64020015D01*
X31060556Y-63867415D01*
X31060556Y-63709433D01*
X31019667Y-63556833D01*
X30940675Y-63420016D01*
X30828964Y-63308305D01*
X30794529Y-63288424D01*
X31879195Y-63288424D01*
X31879195Y-63288423D01*
X31784288Y-63072056D01*
X31648323Y-62863945D01*
X31479963Y-62681059D01*
X31479953Y-62681050D01*
X31283793Y-62528372D01*
X31283784Y-62528366D01*
X31231362Y-62499997D01*
X49654652Y-62499997D01*
X49654652Y-62500002D01*
X49674028Y-62857368D01*
X49674029Y-62857385D01*
X49731926Y-63210539D01*
X49731932Y-63210565D01*
X49827672Y-63555392D01*
X49827674Y-63555399D01*
X49960142Y-63887870D01*
X49960151Y-63887888D01*
X50127784Y-64204077D01*
X50127787Y-64204082D01*
X50127789Y-64204085D01*
X50302582Y-64461886D01*
X50328634Y-64500309D01*
X50328641Y-64500319D01*
X50462355Y-64657739D01*
X50560332Y-64773086D01*
X50820163Y-65019211D01*
X51105081Y-65235800D01*
X51411747Y-65420315D01*
X51411749Y-65420316D01*
X51411751Y-65420317D01*
X51411755Y-65420319D01*
X51583984Y-65500000D01*
X51736565Y-65570591D01*
X52075726Y-65684868D01*
X52425254Y-65761805D01*
X52781052Y-65800500D01*
X52781058Y-65800500D01*
X53138942Y-65800500D01*
X53138948Y-65800500D01*
X53494746Y-65761805D01*
X53844274Y-65684868D01*
X54183435Y-65570591D01*
X54508253Y-65420315D01*
X54814919Y-65235800D01*
X55099837Y-65019211D01*
X55359668Y-64773086D01*
X55591365Y-64500311D01*
X55792211Y-64204085D01*
X55959853Y-63887880D01*
X56092324Y-63555403D01*
X56188071Y-63210552D01*
X56241698Y-62883440D01*
X56245970Y-62857385D01*
X56245970Y-62857382D01*
X56245972Y-62857371D01*
X56265348Y-62500000D01*
X56245972Y-62142629D01*
X56245721Y-62141099D01*
X56188073Y-61789460D01*
X56188072Y-61789459D01*
X56188071Y-61789448D01*
X56092324Y-61444597D01*
X55959853Y-61112120D01*
X55879477Y-60960516D01*
X55792215Y-60795922D01*
X55792213Y-60795919D01*
X55792211Y-60795915D01*
X55591365Y-60499689D01*
X55591361Y-60499684D01*
X55591358Y-60499680D01*
X55359668Y-60226914D01*
X55290301Y-60161206D01*
X55099837Y-59980789D01*
X55099830Y-59980783D01*
X55099827Y-59980781D01*
X55032245Y-59929407D01*
X54814919Y-59764200D01*
X54508253Y-59579685D01*
X54508252Y-59579684D01*
X54508248Y-59579682D01*
X54508244Y-59579680D01*
X54183447Y-59429414D01*
X54183441Y-59429411D01*
X54183435Y-59429409D01*
X54013854Y-59372270D01*
X53844273Y-59315131D01*
X53494744Y-59238194D01*
X53138949Y-59199500D01*
X53138948Y-59199500D01*
X52781052Y-59199500D01*
X52781050Y-59199500D01*
X52425255Y-59238194D01*
X52075726Y-59315131D01*
X51819970Y-59401306D01*
X51736565Y-59429409D01*
X51736563Y-59429410D01*
X51736552Y-59429414D01*
X51411755Y-59579680D01*
X51411751Y-59579682D01*
X51183367Y-59717096D01*
X51105081Y-59764200D01*
X51016768Y-59831333D01*
X50820172Y-59980781D01*
X50820163Y-59980789D01*
X50560331Y-60226914D01*
X50328641Y-60499680D01*
X50328634Y-60499690D01*
X50127790Y-60795913D01*
X50127784Y-60795922D01*
X49960151Y-61112111D01*
X49960142Y-61112129D01*
X49827674Y-61444600D01*
X49827672Y-61444607D01*
X49731932Y-61789434D01*
X49731926Y-61789460D01*
X49674029Y-62142614D01*
X49674028Y-62142627D01*
X49674028Y-62142629D01*
X49673980Y-62143518D01*
X49654652Y-62499997D01*
X31231362Y-62499997D01*
X31065170Y-62410059D01*
X31065159Y-62410054D01*
X30830049Y-62329340D01*
X30659794Y-62300930D01*
X30596909Y-62270479D01*
X30560470Y-62210865D01*
X30561988Y-62143518D01*
X30561385Y-62143341D01*
X30562043Y-62141099D01*
X30562045Y-62141013D01*
X30562142Y-62140759D01*
X30563883Y-62134832D01*
X30563884Y-62134830D01*
X30584365Y-61992373D01*
X30563884Y-61849916D01*
X30536274Y-61789460D01*
X30504097Y-61719002D01*
X30504096Y-61719001D01*
X30504096Y-61719000D01*
X30466477Y-61672317D01*
X30466472Y-61672312D01*
X30466468Y-61672307D01*
X28984564Y-60190406D01*
X28984558Y-60190401D01*
X28984554Y-60190397D01*
X28937878Y-60152781D01*
X28806964Y-60092994D01*
X28806960Y-60092993D01*
X28664505Y-60072513D01*
X28522049Y-60092993D01*
X28522045Y-60092994D01*
X28391134Y-60152780D01*
X28344439Y-60190409D01*
X26862538Y-61672313D01*
X26862529Y-61672323D01*
X26824913Y-61718999D01*
X26765126Y-61849913D01*
X26765125Y-61849917D01*
X26744645Y-61992373D01*
X23971914Y-61992373D01*
X23830202Y-61742625D01*
X23827565Y-61737725D01*
X23678214Y-61444607D01*
X23432806Y-60962965D01*
X23430410Y-60957990D01*
X23200480Y-60451784D01*
X23070818Y-60166323D01*
X23068631Y-60161206D01*
X22744932Y-59354235D01*
X22742977Y-59349026D01*
X22455787Y-58528288D01*
X22454075Y-58523020D01*
X22204004Y-57690242D01*
X22202524Y-57684878D01*
X21990077Y-56841762D01*
X21988838Y-56836337D01*
X21985024Y-56817710D01*
X21814414Y-55984454D01*
X21813432Y-55979039D01*
X21743895Y-55540000D01*
X22703593Y-55540000D01*
X22786398Y-55717576D01*
X22921894Y-55911082D01*
X23088917Y-56078105D01*
X23282422Y-56213600D01*
X23282424Y-56213601D01*
X23459999Y-56296405D01*
X23460000Y-56296405D01*
X24460000Y-56296405D01*
X24637575Y-56213601D01*
X24637577Y-56213600D01*
X24831082Y-56078105D01*
X24998105Y-55911082D01*
X25133601Y-55717576D01*
X25216406Y-55540000D01*
X26703593Y-55540000D01*
X26786398Y-55717576D01*
X26921894Y-55911082D01*
X27088917Y-56078105D01*
X27282422Y-56213600D01*
X27282424Y-56213601D01*
X27459999Y-56296405D01*
X27460000Y-56296405D01*
X28460000Y-56296405D01*
X28637575Y-56213601D01*
X28637577Y-56213600D01*
X28831082Y-56078105D01*
X28998105Y-55911082D01*
X29133601Y-55717576D01*
X29216406Y-55540000D01*
X28460000Y-55540000D01*
X28460000Y-56296405D01*
X27460000Y-56296405D01*
X27460000Y-55540000D01*
X26703593Y-55540000D01*
X25216406Y-55540000D01*
X24460000Y-55540000D01*
X24460000Y-56296405D01*
X23460000Y-56296405D01*
X23460000Y-55540000D01*
X22703593Y-55540000D01*
X21743895Y-55540000D01*
X21677406Y-55120207D01*
X21676666Y-55114743D01*
X21579306Y-54250651D01*
X21578814Y-54245187D01*
X21520320Y-53377594D01*
X21520073Y-53372098D01*
X21500562Y-52502762D01*
X21500562Y-52499999D01*
X22604341Y-52499999D01*
X22604341Y-52500000D01*
X22624936Y-52735403D01*
X22624938Y-52735413D01*
X22686094Y-52963655D01*
X22686096Y-52963659D01*
X22686097Y-52963663D01*
X22704750Y-53003664D01*
X22785965Y-53177830D01*
X22785967Y-53177834D01*
X22921501Y-53371395D01*
X22921506Y-53371402D01*
X23088597Y-53538493D01*
X23088603Y-53538498D01*
X23274594Y-53668730D01*
X23318219Y-53723307D01*
X23325413Y-53792805D01*
X23293890Y-53855160D01*
X23274595Y-53871880D01*
X23088922Y-54001890D01*
X23088920Y-54001891D01*
X22921891Y-54168920D01*
X22921886Y-54168926D01*
X22786402Y-54362417D01*
X22786400Y-54362421D01*
X22703594Y-54539999D01*
X22703594Y-54540000D01*
X23894174Y-54540000D01*
X23767007Y-54574075D01*
X23652993Y-54639901D01*
X23559901Y-54732993D01*
X23494075Y-54847007D01*
X23460000Y-54974174D01*
X23460000Y-55105826D01*
X23494075Y-55232993D01*
X23559901Y-55347007D01*
X23652993Y-55440099D01*
X23767007Y-55505925D01*
X23894174Y-55540000D01*
X24025826Y-55540000D01*
X24152993Y-55505925D01*
X24267007Y-55440099D01*
X24360099Y-55347007D01*
X24425925Y-55232993D01*
X24460000Y-55105826D01*
X24460000Y-54974174D01*
X24425925Y-54847007D01*
X24360099Y-54732993D01*
X24267007Y-54639901D01*
X24152993Y-54574075D01*
X24025826Y-54540000D01*
X25216406Y-54540000D01*
X25216405Y-54539999D01*
X25133599Y-54362421D01*
X25133597Y-54362417D01*
X24998113Y-54168926D01*
X24998108Y-54168920D01*
X24831078Y-54001890D01*
X24645405Y-53871879D01*
X24601780Y-53817302D01*
X24594588Y-53747804D01*
X24626110Y-53685449D01*
X24645406Y-53668730D01*
X24831401Y-53538495D01*
X24998495Y-53371401D01*
X25134035Y-53177830D01*
X25233903Y-52963663D01*
X25295063Y-52735408D01*
X25315659Y-52500000D01*
X25295063Y-52264592D01*
X25233903Y-52036337D01*
X25134035Y-51822171D01*
X25031335Y-51675500D01*
X24998496Y-51628600D01*
X24962868Y-51592972D01*
X24876567Y-51506671D01*
X24843084Y-51445351D01*
X24848068Y-51375659D01*
X24889939Y-51319725D01*
X24920915Y-51302810D01*
X25052331Y-51253796D01*
X25167546Y-51167546D01*
X25253796Y-51052331D01*
X25304091Y-50917483D01*
X25310500Y-50857873D01*
X25310500Y-50684500D01*
X25330185Y-50617461D01*
X25382989Y-50571706D01*
X25434500Y-50560500D01*
X26485501Y-50560500D01*
X26552540Y-50580185D01*
X26598295Y-50632989D01*
X26609501Y-50684500D01*
X26609501Y-50857876D01*
X26615908Y-50917483D01*
X26666202Y-51052328D01*
X26666206Y-51052335D01*
X26752452Y-51167544D01*
X26752455Y-51167547D01*
X26867664Y-51253793D01*
X26867671Y-51253797D01*
X26999081Y-51302810D01*
X27055015Y-51344681D01*
X27079432Y-51410145D01*
X27064580Y-51478418D01*
X27043430Y-51506673D01*
X26921503Y-51628600D01*
X26785965Y-51822169D01*
X26785964Y-51822171D01*
X26686098Y-52036335D01*
X26686094Y-52036344D01*
X26624938Y-52264586D01*
X26624936Y-52264596D01*
X26604341Y-52499999D01*
X26604341Y-52500000D01*
X26624936Y-52735403D01*
X26624938Y-52735413D01*
X26686094Y-52963655D01*
X26686096Y-52963659D01*
X26686097Y-52963663D01*
X26704750Y-53003664D01*
X26785965Y-53177830D01*
X26785967Y-53177834D01*
X26921501Y-53371395D01*
X26921506Y-53371402D01*
X27088597Y-53538493D01*
X27088603Y-53538498D01*
X27274594Y-53668730D01*
X27318219Y-53723307D01*
X27325413Y-53792805D01*
X27293890Y-53855160D01*
X27274595Y-53871880D01*
X27088922Y-54001890D01*
X27088920Y-54001891D01*
X26921891Y-54168920D01*
X26921886Y-54168926D01*
X26786402Y-54362417D01*
X26786400Y-54362421D01*
X26703594Y-54539999D01*
X26703594Y-54540000D01*
X27894174Y-54540000D01*
X27767007Y-54574075D01*
X27652993Y-54639901D01*
X27559901Y-54732993D01*
X27494075Y-54847007D01*
X27460000Y-54974174D01*
X27460000Y-55105826D01*
X27494075Y-55232993D01*
X27559901Y-55347007D01*
X27652993Y-55440099D01*
X27767007Y-55505925D01*
X27894174Y-55540000D01*
X28025826Y-55540000D01*
X28152993Y-55505925D01*
X28267007Y-55440099D01*
X28360099Y-55347007D01*
X28425925Y-55232993D01*
X28460000Y-55105826D01*
X28460000Y-54974174D01*
X28425925Y-54847007D01*
X28360099Y-54732993D01*
X28352089Y-54724983D01*
X36109500Y-54724983D01*
X36109500Y-56275001D01*
X36109501Y-56275018D01*
X36120000Y-56377796D01*
X36120001Y-56377799D01*
X36165894Y-56516294D01*
X36175186Y-56544334D01*
X36267288Y-56693656D01*
X36391344Y-56817712D01*
X36540666Y-56909814D01*
X36707203Y-56964999D01*
X36809991Y-56975500D01*
X38110008Y-56975499D01*
X38212797Y-56964999D01*
X38379334Y-56909814D01*
X38528656Y-56817712D01*
X38652712Y-56693656D01*
X38744814Y-56544334D01*
X38744814Y-56544331D01*
X38748178Y-56538879D01*
X38800126Y-56492154D01*
X38869088Y-56480931D01*
X38933170Y-56508774D01*
X38941398Y-56516294D01*
X39080213Y-56655109D01*
X39252179Y-56780048D01*
X39252181Y-56780049D01*
X39252184Y-56780051D01*
X39441588Y-56876557D01*
X39643757Y-56942246D01*
X39853713Y-56975500D01*
X39853714Y-56975500D01*
X40066286Y-56975500D01*
X40066287Y-56975500D01*
X40276243Y-56942246D01*
X40478412Y-56876557D01*
X40667816Y-56780051D01*
X40689789Y-56764086D01*
X40839786Y-56655109D01*
X40839788Y-56655106D01*
X40839792Y-56655104D01*
X40990104Y-56504792D01*
X41109683Y-56340204D01*
X41165011Y-56297540D01*
X41234624Y-56291561D01*
X41296420Y-56324166D01*
X41310313Y-56340199D01*
X41412560Y-56480931D01*
X41429896Y-56504792D01*
X41580213Y-56655109D01*
X41752179Y-56780048D01*
X41752181Y-56780049D01*
X41752184Y-56780051D01*
X41941588Y-56876557D01*
X42143757Y-56942246D01*
X42353713Y-56975500D01*
X42353714Y-56975500D01*
X42566286Y-56975500D01*
X42566287Y-56975500D01*
X42776243Y-56942246D01*
X42978412Y-56876557D01*
X43167816Y-56780051D01*
X43189789Y-56764086D01*
X43339786Y-56655109D01*
X43339788Y-56655106D01*
X43339792Y-56655104D01*
X43490104Y-56504792D01*
X43609683Y-56340204D01*
X43665011Y-56297540D01*
X43734624Y-56291561D01*
X43796420Y-56324166D01*
X43810313Y-56340199D01*
X43912560Y-56480931D01*
X43929896Y-56504792D01*
X44080213Y-56655109D01*
X44252179Y-56780048D01*
X44252181Y-56780049D01*
X44252184Y-56780051D01*
X44441588Y-56876557D01*
X44643757Y-56942246D01*
X44853713Y-56975500D01*
X44853714Y-56975500D01*
X45066286Y-56975500D01*
X45066287Y-56975500D01*
X45276243Y-56942246D01*
X45478412Y-56876557D01*
X45667816Y-56780051D01*
X45689789Y-56764086D01*
X45839786Y-56655109D01*
X45839788Y-56655106D01*
X45839792Y-56655104D01*
X45990104Y-56504792D01*
X45990106Y-56504788D01*
X45990109Y-56504786D01*
X46115048Y-56332820D01*
X46115047Y-56332820D01*
X46115051Y-56332816D01*
X46211557Y-56143412D01*
X46277246Y-55941243D01*
X46310500Y-55731287D01*
X46310500Y-55580000D01*
X52703593Y-55580000D01*
X52786398Y-55757576D01*
X52921894Y-55951082D01*
X53088917Y-56118105D01*
X53282422Y-56253600D01*
X53282424Y-56253601D01*
X53459999Y-56336405D01*
X53460000Y-56336405D01*
X54460000Y-56336405D01*
X54637575Y-56253601D01*
X54637577Y-56253600D01*
X54831082Y-56118105D01*
X54998105Y-55951082D01*
X55133601Y-55757576D01*
X55216406Y-55580000D01*
X54460000Y-55580000D01*
X54460000Y-56336405D01*
X53460000Y-56336405D01*
X53460000Y-55580000D01*
X52703593Y-55580000D01*
X46310500Y-55580000D01*
X46310500Y-55268713D01*
X46277246Y-55058757D01*
X46211557Y-54856588D01*
X46115051Y-54667184D01*
X46115049Y-54667181D01*
X46115048Y-54667179D01*
X45990109Y-54495213D01*
X45839786Y-54344890D01*
X45667820Y-54219951D01*
X45478414Y-54123444D01*
X45478413Y-54123443D01*
X45478412Y-54123443D01*
X45276243Y-54057754D01*
X45276241Y-54057753D01*
X45276240Y-54057753D01*
X45114957Y-54032208D01*
X45066287Y-54024500D01*
X44853713Y-54024500D01*
X44805042Y-54032208D01*
X44643760Y-54057753D01*
X44441585Y-54123444D01*
X44252179Y-54219951D01*
X44080213Y-54344890D01*
X43929894Y-54495209D01*
X43929890Y-54495214D01*
X43810318Y-54659793D01*
X43754989Y-54702459D01*
X43685375Y-54708438D01*
X43623580Y-54675833D01*
X43609682Y-54659793D01*
X43490109Y-54495214D01*
X43490105Y-54495209D01*
X43339786Y-54344890D01*
X43167820Y-54219951D01*
X42978414Y-54123444D01*
X42978413Y-54123443D01*
X42978412Y-54123443D01*
X42776243Y-54057754D01*
X42776241Y-54057753D01*
X42776240Y-54057753D01*
X42614957Y-54032208D01*
X42566287Y-54024500D01*
X42353713Y-54024500D01*
X42305042Y-54032208D01*
X42143760Y-54057753D01*
X41941585Y-54123444D01*
X41752179Y-54219951D01*
X41580213Y-54344890D01*
X41429894Y-54495209D01*
X41429890Y-54495214D01*
X41310318Y-54659793D01*
X41254989Y-54702459D01*
X41185375Y-54708438D01*
X41123580Y-54675833D01*
X41109682Y-54659793D01*
X40990109Y-54495214D01*
X40990105Y-54495209D01*
X40839786Y-54344890D01*
X40667820Y-54219951D01*
X40478414Y-54123444D01*
X40478413Y-54123443D01*
X40478412Y-54123443D01*
X40276243Y-54057754D01*
X40276241Y-54057753D01*
X40276240Y-54057753D01*
X40114957Y-54032208D01*
X40066287Y-54024500D01*
X39853713Y-54024500D01*
X39805042Y-54032208D01*
X39643760Y-54057753D01*
X39441585Y-54123444D01*
X39252179Y-54219951D01*
X39080215Y-54344889D01*
X38941398Y-54483706D01*
X38880075Y-54517190D01*
X38810383Y-54512206D01*
X38754450Y-54470334D01*
X38748178Y-54461120D01*
X38652712Y-54306344D01*
X38528657Y-54182289D01*
X38528656Y-54182288D01*
X38379334Y-54090186D01*
X38212797Y-54035001D01*
X38212795Y-54035000D01*
X38110010Y-54024500D01*
X36809998Y-54024500D01*
X36809981Y-54024501D01*
X36707203Y-54035000D01*
X36707200Y-54035001D01*
X36540668Y-54090185D01*
X36540663Y-54090187D01*
X36391342Y-54182289D01*
X36267289Y-54306342D01*
X36175187Y-54455663D01*
X36175185Y-54455668D01*
X36170325Y-54470334D01*
X36120001Y-54622203D01*
X36120001Y-54622204D01*
X36120000Y-54622204D01*
X36109500Y-54724983D01*
X28352089Y-54724983D01*
X28267007Y-54639901D01*
X28152993Y-54574075D01*
X28025826Y-54540000D01*
X29216406Y-54540000D01*
X29216405Y-54539999D01*
X29133599Y-54362421D01*
X29133597Y-54362417D01*
X28998113Y-54168926D01*
X28998108Y-54168920D01*
X28831078Y-54001890D01*
X28645405Y-53871879D01*
X28601780Y-53817302D01*
X28594588Y-53747804D01*
X28626110Y-53685449D01*
X28645406Y-53668730D01*
X28831401Y-53538495D01*
X28998495Y-53371401D01*
X29134035Y-53177830D01*
X29233903Y-52963663D01*
X29295063Y-52735408D01*
X29312159Y-52539999D01*
X52604341Y-52539999D01*
X52604341Y-52540000D01*
X52624936Y-52775403D01*
X52624938Y-52775413D01*
X52686094Y-53003655D01*
X52686096Y-53003659D01*
X52686097Y-53003663D01*
X52767313Y-53177830D01*
X52785965Y-53217830D01*
X52785967Y-53217834D01*
X52921501Y-53411395D01*
X52921506Y-53411402D01*
X53088597Y-53578493D01*
X53088603Y-53578498D01*
X53274594Y-53708730D01*
X53318219Y-53763307D01*
X53325413Y-53832805D01*
X53293890Y-53895160D01*
X53274595Y-53911880D01*
X53088922Y-54041890D01*
X53088920Y-54041891D01*
X52921891Y-54208920D01*
X52921886Y-54208926D01*
X52786402Y-54402417D01*
X52786400Y-54402421D01*
X52703594Y-54579999D01*
X52703594Y-54580000D01*
X53894174Y-54580000D01*
X53767007Y-54614075D01*
X53652993Y-54679901D01*
X53559901Y-54772993D01*
X53494075Y-54887007D01*
X53460000Y-55014174D01*
X53460000Y-55145826D01*
X53494075Y-55272993D01*
X53559901Y-55387007D01*
X53652993Y-55480099D01*
X53767007Y-55545925D01*
X53894174Y-55580000D01*
X54025826Y-55580000D01*
X54152993Y-55545925D01*
X54163255Y-55540000D01*
X56703593Y-55540000D01*
X56786398Y-55717576D01*
X56921894Y-55911082D01*
X57088917Y-56078105D01*
X57282422Y-56213600D01*
X57282424Y-56213601D01*
X57459999Y-56296405D01*
X57460000Y-56296405D01*
X58460000Y-56296405D01*
X58637575Y-56213601D01*
X58637577Y-56213600D01*
X58831082Y-56078105D01*
X58998105Y-55911082D01*
X59133601Y-55717576D01*
X59216406Y-55540000D01*
X58460000Y-55540000D01*
X58460000Y-56296405D01*
X57460000Y-56296405D01*
X57460000Y-55540000D01*
X56703593Y-55540000D01*
X54163255Y-55540000D01*
X54267007Y-55480099D01*
X54360099Y-55387007D01*
X54425925Y-55272993D01*
X54460000Y-55145826D01*
X54460000Y-55014174D01*
X54425925Y-54887007D01*
X54360099Y-54772993D01*
X54267007Y-54679901D01*
X54152993Y-54614075D01*
X54025826Y-54580000D01*
X55216406Y-54580000D01*
X55216405Y-54579999D01*
X55133599Y-54402421D01*
X55133597Y-54402417D01*
X54998113Y-54208926D01*
X54998108Y-54208920D01*
X54831078Y-54041890D01*
X54645405Y-53911879D01*
X54601780Y-53857302D01*
X54594588Y-53787804D01*
X54626110Y-53725449D01*
X54645406Y-53708730D01*
X54678655Y-53685449D01*
X54831401Y-53578495D01*
X54998495Y-53411401D01*
X55134035Y-53217830D01*
X55233903Y-53003663D01*
X55295063Y-52775408D01*
X55315659Y-52540000D01*
X55295063Y-52304592D01*
X55233903Y-52076337D01*
X55134035Y-51862171D01*
X55106025Y-51822169D01*
X54998496Y-51668600D01*
X54948689Y-51618793D01*
X54876567Y-51546671D01*
X54843084Y-51485351D01*
X54848068Y-51415659D01*
X54889939Y-51359725D01*
X54920915Y-51342810D01*
X55052331Y-51293796D01*
X55167546Y-51207546D01*
X55253796Y-51092331D01*
X55304091Y-50957483D01*
X55310500Y-50897873D01*
X55310500Y-50684500D01*
X55330185Y-50617461D01*
X55382989Y-50571706D01*
X55434500Y-50560500D01*
X56485501Y-50560500D01*
X56552540Y-50580185D01*
X56598295Y-50632989D01*
X56609501Y-50684500D01*
X56609501Y-50857876D01*
X56615908Y-50917483D01*
X56666202Y-51052328D01*
X56666206Y-51052335D01*
X56752452Y-51167544D01*
X56752455Y-51167547D01*
X56867664Y-51253793D01*
X56867671Y-51253797D01*
X56999081Y-51302810D01*
X57055015Y-51344681D01*
X57079432Y-51410145D01*
X57064580Y-51478418D01*
X57043430Y-51506673D01*
X56921503Y-51628600D01*
X56785965Y-51822169D01*
X56785964Y-51822171D01*
X56686098Y-52036335D01*
X56686094Y-52036344D01*
X56624938Y-52264586D01*
X56624936Y-52264596D01*
X56604341Y-52499999D01*
X56604341Y-52500000D01*
X56624936Y-52735403D01*
X56624938Y-52735413D01*
X56686094Y-52963655D01*
X56686096Y-52963659D01*
X56686097Y-52963663D01*
X56704750Y-53003664D01*
X56785965Y-53177830D01*
X56785967Y-53177834D01*
X56921501Y-53371395D01*
X56921506Y-53371402D01*
X57088597Y-53538493D01*
X57088603Y-53538498D01*
X57274594Y-53668730D01*
X57318219Y-53723307D01*
X57325413Y-53792805D01*
X57293890Y-53855160D01*
X57274595Y-53871880D01*
X57088922Y-54001890D01*
X57088920Y-54001891D01*
X56921891Y-54168920D01*
X56921886Y-54168926D01*
X56786402Y-54362417D01*
X56786400Y-54362421D01*
X56703594Y-54539999D01*
X56703594Y-54540000D01*
X57894174Y-54540000D01*
X57767007Y-54574075D01*
X57652993Y-54639901D01*
X57559901Y-54732993D01*
X57494075Y-54847007D01*
X57460000Y-54974174D01*
X57460000Y-55105826D01*
X57494075Y-55232993D01*
X57559901Y-55347007D01*
X57652993Y-55440099D01*
X57767007Y-55505925D01*
X57894174Y-55540000D01*
X58025826Y-55540000D01*
X58152993Y-55505925D01*
X58267007Y-55440099D01*
X58360099Y-55347007D01*
X58425925Y-55232993D01*
X58460000Y-55105826D01*
X58460000Y-54974174D01*
X58425925Y-54847007D01*
X58360099Y-54732993D01*
X58267007Y-54639901D01*
X58152993Y-54574075D01*
X58025826Y-54540000D01*
X59216406Y-54540000D01*
X59216405Y-54539999D01*
X59133599Y-54362421D01*
X59133597Y-54362417D01*
X58998113Y-54168926D01*
X58998108Y-54168920D01*
X58831078Y-54001890D01*
X58645405Y-53871879D01*
X58601780Y-53817302D01*
X58594588Y-53747804D01*
X58626110Y-53685449D01*
X58645406Y-53668730D01*
X58831401Y-53538495D01*
X58998495Y-53371401D01*
X59134035Y-53177830D01*
X59233903Y-52963663D01*
X59295063Y-52735408D01*
X59315659Y-52500000D01*
X59295063Y-52264592D01*
X59233903Y-52036337D01*
X59134035Y-51822171D01*
X59031335Y-51675500D01*
X58998496Y-51628600D01*
X58962868Y-51592972D01*
X58876567Y-51506671D01*
X58843084Y-51445351D01*
X58848068Y-51375659D01*
X58889939Y-51319725D01*
X58920915Y-51302810D01*
X59052331Y-51253796D01*
X59167546Y-51167546D01*
X59253796Y-51052331D01*
X59304091Y-50917483D01*
X59310500Y-50857873D01*
X59310499Y-49062128D01*
X59304091Y-49002517D01*
X59253796Y-48867669D01*
X59253795Y-48867668D01*
X59253793Y-48867664D01*
X59167547Y-48752455D01*
X59167544Y-48752452D01*
X59052335Y-48666206D01*
X59052328Y-48666202D01*
X58917482Y-48615908D01*
X58917483Y-48615908D01*
X58857883Y-48609501D01*
X58857881Y-48609500D01*
X58857873Y-48609500D01*
X58857864Y-48609500D01*
X57062129Y-48609500D01*
X57062123Y-48609501D01*
X57002516Y-48615908D01*
X56867671Y-48666202D01*
X56867664Y-48666206D01*
X56752455Y-48752452D01*
X56752452Y-48752455D01*
X56666206Y-48867664D01*
X56666202Y-48867671D01*
X56615908Y-49002517D01*
X56611608Y-49042516D01*
X56609501Y-49062123D01*
X56609500Y-49062135D01*
X56609500Y-49235500D01*
X56589815Y-49302539D01*
X56537011Y-49348294D01*
X56485500Y-49359500D01*
X55434499Y-49359500D01*
X55367460Y-49339815D01*
X55321705Y-49287011D01*
X55310499Y-49235500D01*
X55310499Y-49102129D01*
X55310498Y-49102123D01*
X55310497Y-49102116D01*
X55304091Y-49042517D01*
X55253796Y-48907669D01*
X55253795Y-48907668D01*
X55253793Y-48907664D01*
X55167547Y-48792455D01*
X55167544Y-48792452D01*
X55052335Y-48706206D01*
X55052328Y-48706202D01*
X54917482Y-48655908D01*
X54917483Y-48655908D01*
X54857883Y-48649501D01*
X54857881Y-48649500D01*
X54857873Y-48649500D01*
X54857864Y-48649500D01*
X53062129Y-48649500D01*
X53062123Y-48649501D01*
X53002516Y-48655908D01*
X52867671Y-48706202D01*
X52867664Y-48706206D01*
X52752455Y-48792452D01*
X52752452Y-48792455D01*
X52666206Y-48907664D01*
X52666202Y-48907671D01*
X52615908Y-49042517D01*
X52609501Y-49102116D01*
X52609501Y-49102123D01*
X52609500Y-49102135D01*
X52609500Y-50897870D01*
X52609501Y-50897876D01*
X52615908Y-50957483D01*
X52666202Y-51092328D01*
X52666206Y-51092335D01*
X52752452Y-51207544D01*
X52752455Y-51207547D01*
X52867664Y-51293793D01*
X52867671Y-51293797D01*
X52999081Y-51342810D01*
X53055015Y-51384681D01*
X53079432Y-51450145D01*
X53064580Y-51518418D01*
X53043430Y-51546673D01*
X52921503Y-51668600D01*
X52785965Y-51862169D01*
X52785964Y-51862171D01*
X52686098Y-52076335D01*
X52686094Y-52076344D01*
X52624938Y-52304586D01*
X52624936Y-52304596D01*
X52604341Y-52539999D01*
X29312159Y-52539999D01*
X29315659Y-52500000D01*
X29295063Y-52264592D01*
X29233903Y-52036337D01*
X29134035Y-51822171D01*
X29031335Y-51675500D01*
X28998496Y-51628600D01*
X28962868Y-51592972D01*
X28876567Y-51506671D01*
X28843084Y-51445351D01*
X28848068Y-51375659D01*
X28889939Y-51319725D01*
X28920915Y-51302810D01*
X29052331Y-51253796D01*
X29167546Y-51167546D01*
X29253796Y-51052331D01*
X29304091Y-50917483D01*
X29310500Y-50857873D01*
X29310499Y-49777135D01*
X36784500Y-49777135D01*
X36784500Y-51222870D01*
X36784501Y-51222876D01*
X36790908Y-51282483D01*
X36841202Y-51417328D01*
X36841206Y-51417335D01*
X36927452Y-51532544D01*
X36927455Y-51532547D01*
X37042664Y-51618793D01*
X37042671Y-51618797D01*
X37177517Y-51669091D01*
X37177516Y-51669091D01*
X37184444Y-51669835D01*
X37237127Y-51675500D01*
X38682872Y-51675499D01*
X38742483Y-51669091D01*
X38877331Y-51618796D01*
X38992546Y-51532546D01*
X39054785Y-51449404D01*
X39110718Y-51407535D01*
X39180410Y-51402551D01*
X39237588Y-51432078D01*
X39248568Y-51442088D01*
X39248570Y-51442089D01*
X39248571Y-51442090D01*
X39433786Y-51556770D01*
X39433792Y-51556773D01*
X39456664Y-51565633D01*
X39636931Y-51635470D01*
X39851074Y-51675500D01*
X39851076Y-51675500D01*
X40068924Y-51675500D01*
X40068926Y-51675500D01*
X40283069Y-51635470D01*
X40486210Y-51556772D01*
X40671432Y-51442088D01*
X40832427Y-51295322D01*
X40861047Y-51257422D01*
X40917153Y-51215787D01*
X40986865Y-51211094D01*
X41048048Y-51244836D01*
X41058946Y-51257414D01*
X41087573Y-51295322D01*
X41087576Y-51295325D01*
X41087578Y-51295327D01*
X41158220Y-51359725D01*
X41248568Y-51442088D01*
X41248575Y-51442092D01*
X41248576Y-51442093D01*
X41433786Y-51556770D01*
X41433792Y-51556773D01*
X41456664Y-51565633D01*
X41636931Y-51635470D01*
X41851074Y-51675500D01*
X41851076Y-51675500D01*
X42068924Y-51675500D01*
X42068926Y-51675500D01*
X42283069Y-51635470D01*
X42486210Y-51556772D01*
X42671432Y-51442088D01*
X42832427Y-51295322D01*
X42861047Y-51257422D01*
X42917153Y-51215787D01*
X42986865Y-51211094D01*
X43048048Y-51244836D01*
X43058946Y-51257414D01*
X43087573Y-51295322D01*
X43087576Y-51295325D01*
X43087578Y-51295327D01*
X43158220Y-51359725D01*
X43248568Y-51442088D01*
X43248575Y-51442092D01*
X43248576Y-51442093D01*
X43433786Y-51556770D01*
X43433792Y-51556773D01*
X43456664Y-51565633D01*
X43636931Y-51635470D01*
X43851074Y-51675500D01*
X43851076Y-51675500D01*
X44068924Y-51675500D01*
X44068926Y-51675500D01*
X44283069Y-51635470D01*
X44486210Y-51556772D01*
X44671432Y-51442088D01*
X44832427Y-51295322D01*
X44963712Y-51121472D01*
X45060817Y-50926459D01*
X45120435Y-50716923D01*
X45140536Y-50500000D01*
X45120435Y-50283077D01*
X45060817Y-50073541D01*
X44963712Y-49878528D01*
X44832427Y-49704678D01*
X44805016Y-49679690D01*
X44715996Y-49598537D01*
X44671432Y-49557912D01*
X44671428Y-49557909D01*
X44671423Y-49557906D01*
X44486213Y-49443229D01*
X44486207Y-49443226D01*
X44401113Y-49410260D01*
X44283069Y-49364530D01*
X44068926Y-49324500D01*
X43851074Y-49324500D01*
X43636931Y-49364530D01*
X43593896Y-49381202D01*
X43433792Y-49443226D01*
X43433786Y-49443229D01*
X43248576Y-49557906D01*
X43248566Y-49557913D01*
X43087573Y-49704676D01*
X43058953Y-49742576D01*
X43002844Y-49784211D01*
X42933132Y-49788902D01*
X42871950Y-49755159D01*
X42861047Y-49742576D01*
X42832426Y-49704676D01*
X42671433Y-49557913D01*
X42671423Y-49557906D01*
X42486213Y-49443229D01*
X42486207Y-49443226D01*
X42401113Y-49410260D01*
X42283069Y-49364530D01*
X42068926Y-49324500D01*
X41851074Y-49324500D01*
X41636931Y-49364530D01*
X41593896Y-49381202D01*
X41433792Y-49443226D01*
X41433786Y-49443229D01*
X41248576Y-49557906D01*
X41248566Y-49557913D01*
X41087573Y-49704676D01*
X41058953Y-49742576D01*
X41002844Y-49784211D01*
X40933132Y-49788902D01*
X40871950Y-49755159D01*
X40861047Y-49742576D01*
X40832426Y-49704676D01*
X40671433Y-49557913D01*
X40671423Y-49557906D01*
X40486213Y-49443229D01*
X40486207Y-49443226D01*
X40401113Y-49410260D01*
X40283069Y-49364530D01*
X40068926Y-49324500D01*
X39851074Y-49324500D01*
X39636931Y-49364530D01*
X39593896Y-49381202D01*
X39433792Y-49443226D01*
X39433786Y-49443229D01*
X39248565Y-49557913D01*
X39237585Y-49567923D01*
X39174780Y-49598537D01*
X39105393Y-49590336D01*
X39054785Y-49550594D01*
X39028848Y-49515948D01*
X38992546Y-49467454D01*
X38992544Y-49467453D01*
X38992544Y-49467452D01*
X38877335Y-49381206D01*
X38877328Y-49381202D01*
X38742482Y-49330908D01*
X38742483Y-49330908D01*
X38682883Y-49324501D01*
X38682881Y-49324500D01*
X38682873Y-49324500D01*
X38682864Y-49324500D01*
X37237129Y-49324500D01*
X37237123Y-49324501D01*
X37177516Y-49330908D01*
X37042671Y-49381202D01*
X37042664Y-49381206D01*
X36927455Y-49467452D01*
X36927452Y-49467455D01*
X36841206Y-49582664D01*
X36841202Y-49582671D01*
X36790908Y-49717517D01*
X36784501Y-49777116D01*
X36784500Y-49777135D01*
X29310499Y-49777135D01*
X29310499Y-49062128D01*
X29304091Y-49002517D01*
X29253796Y-48867669D01*
X29253795Y-48867668D01*
X29253793Y-48867664D01*
X29167547Y-48752455D01*
X29167544Y-48752452D01*
X29052335Y-48666206D01*
X29052328Y-48666202D01*
X28917482Y-48615908D01*
X28917483Y-48615908D01*
X28857883Y-48609501D01*
X28857881Y-48609500D01*
X28857873Y-48609500D01*
X28857864Y-48609500D01*
X27062129Y-48609500D01*
X27062123Y-48609501D01*
X27002516Y-48615908D01*
X26867671Y-48666202D01*
X26867664Y-48666206D01*
X26752455Y-48752452D01*
X26752452Y-48752455D01*
X26666206Y-48867664D01*
X26666202Y-48867671D01*
X26615908Y-49002517D01*
X26611608Y-49042516D01*
X26609501Y-49062123D01*
X26609500Y-49062135D01*
X26609500Y-49235500D01*
X26589815Y-49302539D01*
X26537011Y-49348294D01*
X26485500Y-49359500D01*
X25434499Y-49359500D01*
X25367460Y-49339815D01*
X25321705Y-49287011D01*
X25310499Y-49235500D01*
X25310499Y-49062129D01*
X25310498Y-49062123D01*
X25310497Y-49062116D01*
X25304091Y-49002517D01*
X25253796Y-48867669D01*
X25253795Y-48867668D01*
X25253793Y-48867664D01*
X25167547Y-48752455D01*
X25167544Y-48752452D01*
X25052335Y-48666206D01*
X25052328Y-48666202D01*
X24917482Y-48615908D01*
X24917483Y-48615908D01*
X24857883Y-48609501D01*
X24857881Y-48609500D01*
X24857873Y-48609500D01*
X24857864Y-48609500D01*
X23062129Y-48609500D01*
X23062123Y-48609501D01*
X23002516Y-48615908D01*
X22867671Y-48666202D01*
X22867664Y-48666206D01*
X22752455Y-48752452D01*
X22752452Y-48752455D01*
X22666206Y-48867664D01*
X22666202Y-48867671D01*
X22615908Y-49002517D01*
X22611608Y-49042516D01*
X22609501Y-49062123D01*
X22609500Y-49062135D01*
X22609500Y-50857870D01*
X22609501Y-50857876D01*
X22615908Y-50917483D01*
X22666202Y-51052328D01*
X22666206Y-51052335D01*
X22752452Y-51167544D01*
X22752455Y-51167547D01*
X22867664Y-51253793D01*
X22867671Y-51253797D01*
X22999081Y-51302810D01*
X23055015Y-51344681D01*
X23079432Y-51410145D01*
X23064580Y-51478418D01*
X23043430Y-51506673D01*
X22921503Y-51628600D01*
X22785965Y-51822169D01*
X22785964Y-51822171D01*
X22686098Y-52036335D01*
X22686094Y-52036344D01*
X22624938Y-52264586D01*
X22624936Y-52264596D01*
X22604341Y-52499999D01*
X21500562Y-52499999D01*
X21500562Y-52497218D01*
X21520073Y-51627899D01*
X21520320Y-51622407D01*
X21578814Y-50754808D01*
X21579306Y-50749352D01*
X21676667Y-49885250D01*
X21677405Y-49879798D01*
X21813433Y-49020952D01*
X21814413Y-49015553D01*
X21988841Y-48163648D01*
X21990077Y-48158237D01*
X22202524Y-47315121D01*
X22204004Y-47309757D01*
X22261050Y-47119784D01*
X22454079Y-46476966D01*
X22455787Y-46471711D01*
X22742977Y-45650973D01*
X22744932Y-45645764D01*
X22795697Y-45519210D01*
X23045022Y-44897648D01*
X35159500Y-44897648D01*
X35159500Y-45102351D01*
X35191522Y-45304534D01*
X35254781Y-45499223D01*
X35347715Y-45681613D01*
X35468028Y-45847213D01*
X35612786Y-45991971D01*
X35767749Y-46104556D01*
X35778390Y-46112287D01*
X35894607Y-46171503D01*
X35960776Y-46205218D01*
X35960778Y-46205218D01*
X35960781Y-46205220D01*
X36065137Y-46239127D01*
X36155465Y-46268477D01*
X36256557Y-46284488D01*
X36357648Y-46300500D01*
X36357649Y-46300500D01*
X36562351Y-46300500D01*
X36562352Y-46300500D01*
X36764534Y-46268477D01*
X36959219Y-46205220D01*
X37141610Y-46112287D01*
X37234590Y-46044732D01*
X37307213Y-45991971D01*
X37307215Y-45991968D01*
X37307219Y-45991966D01*
X37451966Y-45847219D01*
X37451968Y-45847215D01*
X37451971Y-45847213D01*
X37532916Y-45735800D01*
X37572287Y-45681610D01*
X37665220Y-45499219D01*
X37728477Y-45304534D01*
X37760500Y-45102352D01*
X37760500Y-44897648D01*
X44159500Y-44897648D01*
X44159500Y-45102351D01*
X44191522Y-45304534D01*
X44254781Y-45499223D01*
X44347715Y-45681613D01*
X44468028Y-45847213D01*
X44612786Y-45991971D01*
X44767749Y-46104556D01*
X44778390Y-46112287D01*
X44894607Y-46171503D01*
X44960776Y-46205218D01*
X44960778Y-46205218D01*
X44960781Y-46205220D01*
X45065137Y-46239127D01*
X45155465Y-46268477D01*
X45256557Y-46284488D01*
X45357648Y-46300500D01*
X45357649Y-46300500D01*
X45562351Y-46300500D01*
X45562352Y-46300500D01*
X45764534Y-46268477D01*
X45959219Y-46205220D01*
X46141610Y-46112287D01*
X46234590Y-46044732D01*
X46307213Y-45991971D01*
X46307215Y-45991968D01*
X46307219Y-45991966D01*
X46451966Y-45847219D01*
X46451968Y-45847215D01*
X46451971Y-45847213D01*
X46532916Y-45735800D01*
X46572287Y-45681610D01*
X46665220Y-45499219D01*
X46728477Y-45304534D01*
X46760500Y-45102352D01*
X46760500Y-44897648D01*
X46728477Y-44695466D01*
X46718459Y-44664635D01*
X46699127Y-44605137D01*
X46665220Y-44500781D01*
X46665218Y-44500778D01*
X46665218Y-44500776D01*
X46607694Y-44387880D01*
X46572287Y-44318390D01*
X46564556Y-44307749D01*
X46451971Y-44152786D01*
X46307213Y-44008028D01*
X46141613Y-43887715D01*
X46141612Y-43887714D01*
X46141610Y-43887713D01*
X46084653Y-43858691D01*
X45959223Y-43794781D01*
X45764534Y-43731522D01*
X45589995Y-43703878D01*
X45562352Y-43699500D01*
X45357648Y-43699500D01*
X45333329Y-43703351D01*
X45155465Y-43731522D01*
X44960776Y-43794781D01*
X44778386Y-43887715D01*
X44612786Y-44008028D01*
X44468028Y-44152786D01*
X44347715Y-44318386D01*
X44254781Y-44500776D01*
X44191522Y-44695465D01*
X44159500Y-44897648D01*
X37760500Y-44897648D01*
X37728477Y-44695466D01*
X37718459Y-44664635D01*
X37699127Y-44605137D01*
X37665220Y-44500781D01*
X37665218Y-44500778D01*
X37665218Y-44500776D01*
X37607694Y-44387880D01*
X37572287Y-44318390D01*
X37564556Y-44307749D01*
X37451971Y-44152786D01*
X37307213Y-44008028D01*
X37141613Y-43887715D01*
X37141612Y-43887714D01*
X37141610Y-43887713D01*
X37084653Y-43858691D01*
X36959223Y-43794781D01*
X36764534Y-43731522D01*
X36589995Y-43703878D01*
X36562352Y-43699500D01*
X36357648Y-43699500D01*
X36333329Y-43703351D01*
X36155465Y-43731522D01*
X35960776Y-43794781D01*
X35778386Y-43887715D01*
X35612786Y-44008028D01*
X35468028Y-44152786D01*
X35347715Y-44318386D01*
X35254781Y-44500776D01*
X35191522Y-44695465D01*
X35159500Y-44897648D01*
X23045022Y-44897648D01*
X23068632Y-44838789D01*
X23070818Y-44833676D01*
X23133596Y-44695466D01*
X23430418Y-44041992D01*
X23432797Y-44037051D01*
X23827572Y-43262259D01*
X23830202Y-43257374D01*
X23866285Y-43193783D01*
X24086199Y-42806216D01*
X25754905Y-42806216D01*
X25754905Y-42981651D01*
X25754906Y-42981662D01*
X25795365Y-43152366D01*
X25795365Y-43152367D01*
X25874101Y-43309143D01*
X25874104Y-43309148D01*
X25939361Y-43389256D01*
X27070744Y-44520638D01*
X27104598Y-44548216D01*
X27150849Y-44585894D01*
X27150857Y-44585899D01*
X27307633Y-44664634D01*
X27478345Y-44705095D01*
X27478348Y-44705095D01*
X27653784Y-44705095D01*
X27653787Y-44705095D01*
X27746184Y-44683195D01*
X27824496Y-44664635D01*
X27824497Y-44664634D01*
X27824499Y-44664634D01*
X27981281Y-44585896D01*
X28061388Y-44520639D01*
X28980638Y-43601388D01*
X29045896Y-43521281D01*
X29124634Y-43364499D01*
X29126324Y-43357371D01*
X29148863Y-43262274D01*
X29165095Y-43193787D01*
X29165095Y-43018345D01*
X29160747Y-43000000D01*
X49654652Y-43000000D01*
X49671413Y-43309148D01*
X49674028Y-43357368D01*
X49674029Y-43357385D01*
X49731926Y-43710539D01*
X49731932Y-43710565D01*
X49827672Y-44055392D01*
X49827674Y-44055399D01*
X49960142Y-44387870D01*
X49960151Y-44387888D01*
X50127784Y-44704077D01*
X50127787Y-44704082D01*
X50127789Y-44704085D01*
X50219123Y-44838793D01*
X50328634Y-45000309D01*
X50328641Y-45000319D01*
X50415308Y-45102351D01*
X50560332Y-45273086D01*
X50820163Y-45519211D01*
X51105081Y-45735800D01*
X51411747Y-45920315D01*
X51411749Y-45920316D01*
X51411751Y-45920317D01*
X51411755Y-45920319D01*
X51736552Y-46070585D01*
X51736565Y-46070591D01*
X52075726Y-46184868D01*
X52425254Y-46261805D01*
X52781052Y-46300500D01*
X52781058Y-46300500D01*
X53138942Y-46300500D01*
X53138948Y-46300500D01*
X53494746Y-46261805D01*
X53844274Y-46184868D01*
X54183435Y-46070591D01*
X54508253Y-45920315D01*
X54814919Y-45735800D01*
X55099837Y-45519211D01*
X55359668Y-45273086D01*
X55591365Y-45000311D01*
X55792211Y-44704085D01*
X55959853Y-44387880D01*
X56092324Y-44055403D01*
X56188071Y-43710552D01*
X56240745Y-43389256D01*
X56245970Y-43357385D01*
X56245970Y-43357382D01*
X56245972Y-43357371D01*
X56265348Y-43000000D01*
X56245972Y-42642629D01*
X56244803Y-42635501D01*
X56188073Y-42289460D01*
X56188072Y-42289459D01*
X56188071Y-42289448D01*
X56092324Y-41944597D01*
X56049868Y-41838041D01*
X55959857Y-41612129D01*
X55959848Y-41612111D01*
X55792215Y-41295922D01*
X55792213Y-41295919D01*
X55792211Y-41295915D01*
X55591365Y-40999689D01*
X55591361Y-40999684D01*
X55591358Y-40999680D01*
X55359668Y-40726914D01*
X55099837Y-40480789D01*
X55099830Y-40480783D01*
X55099827Y-40480781D01*
X55000117Y-40404984D01*
X54814919Y-40264200D01*
X54508253Y-40079685D01*
X54508252Y-40079684D01*
X54508248Y-40079682D01*
X54508244Y-40079680D01*
X54183447Y-39929414D01*
X54183441Y-39929411D01*
X54183435Y-39929409D01*
X53999993Y-39867600D01*
X53844273Y-39815131D01*
X53494744Y-39738194D01*
X53138949Y-39699500D01*
X53138948Y-39699500D01*
X52781052Y-39699500D01*
X52781050Y-39699500D01*
X52425255Y-39738194D01*
X52075726Y-39815131D01*
X51872019Y-39883769D01*
X51736565Y-39929409D01*
X51736563Y-39929410D01*
X51736552Y-39929414D01*
X51411755Y-40079680D01*
X51411751Y-40079682D01*
X51183367Y-40217096D01*
X51105081Y-40264200D01*
X51016768Y-40331333D01*
X50820172Y-40480781D01*
X50820163Y-40480789D01*
X50560331Y-40726914D01*
X50328641Y-40999680D01*
X50328634Y-40999690D01*
X50127790Y-41295913D01*
X50127784Y-41295922D01*
X49960151Y-41612111D01*
X49960142Y-41612129D01*
X49827674Y-41944600D01*
X49827672Y-41944607D01*
X49731932Y-42289434D01*
X49731926Y-42289460D01*
X49674029Y-42642614D01*
X49674028Y-42642627D01*
X49674028Y-42642629D01*
X49670135Y-42714425D01*
X49655647Y-42981655D01*
X49654652Y-43000000D01*
X29160747Y-43000000D01*
X29139147Y-42908866D01*
X29123038Y-42840896D01*
X29126731Y-42771124D01*
X29167559Y-42714425D01*
X29232560Y-42688800D01*
X29243695Y-42688299D01*
X29440079Y-42688299D01*
X29649960Y-42655056D01*
X29649963Y-42655056D01*
X29852049Y-42589394D01*
X29869122Y-42580694D01*
X29227767Y-41939340D01*
X28454835Y-41166407D01*
X28727767Y-41166407D01*
X28727767Y-41298059D01*
X28761842Y-41425226D01*
X28827668Y-41539240D01*
X28920760Y-41632332D01*
X29034774Y-41698158D01*
X29161941Y-41732233D01*
X29293593Y-41732233D01*
X29420760Y-41698158D01*
X29534774Y-41632332D01*
X29627866Y-41539240D01*
X29693692Y-41425226D01*
X29727767Y-41298059D01*
X29727767Y-41232232D01*
X29934874Y-41232232D01*
X29934874Y-41232233D01*
X30576228Y-41873588D01*
X30584928Y-41856515D01*
X30650590Y-41654429D01*
X30650590Y-41654426D01*
X30683833Y-41444545D01*
X30683833Y-41232052D01*
X30650590Y-41022172D01*
X30584928Y-40820081D01*
X30584927Y-40820078D01*
X30504625Y-40662479D01*
X29934874Y-41232232D01*
X29727767Y-41232232D01*
X29727767Y-41166407D01*
X29693692Y-41039240D01*
X29627866Y-40925226D01*
X29534774Y-40832134D01*
X29420760Y-40766308D01*
X29293593Y-40732233D01*
X29161941Y-40732233D01*
X29034774Y-40766308D01*
X28920760Y-40832134D01*
X28827668Y-40925226D01*
X28761842Y-41039240D01*
X28727767Y-41166407D01*
X28454835Y-41166407D01*
X27879304Y-40590876D01*
X27879303Y-40590877D01*
X27870609Y-40607941D01*
X27870604Y-40607953D01*
X27804943Y-40810036D01*
X27804943Y-40810039D01*
X27771701Y-41019920D01*
X27771701Y-41216305D01*
X27752016Y-41283344D01*
X27699212Y-41329099D01*
X27630054Y-41339043D01*
X27619104Y-41336962D01*
X27441662Y-41294906D01*
X27441657Y-41294905D01*
X27441655Y-41294905D01*
X27266213Y-41294905D01*
X27266211Y-41294905D01*
X27266205Y-41294906D01*
X27095503Y-41335364D01*
X26938716Y-41414105D01*
X26858622Y-41479352D01*
X26858604Y-41479368D01*
X25939369Y-42398604D01*
X25939350Y-42398625D01*
X25874109Y-42478711D01*
X25874105Y-42478717D01*
X25795364Y-42635503D01*
X25754906Y-42806205D01*
X25754905Y-42806216D01*
X24086199Y-42806216D01*
X24259317Y-42501119D01*
X24262142Y-42496390D01*
X24724776Y-41760111D01*
X24727815Y-41755508D01*
X25222994Y-41040759D01*
X25226260Y-41036265D01*
X25753001Y-40344461D01*
X25756431Y-40340159D01*
X26137452Y-39883770D01*
X28586410Y-39883770D01*
X29227767Y-40525126D01*
X29227768Y-40525126D01*
X29797518Y-39955373D01*
X29639921Y-39875072D01*
X29639918Y-39875071D01*
X29437829Y-39809409D01*
X29227947Y-39776167D01*
X29015455Y-39776167D01*
X28805573Y-39809409D01*
X28805570Y-39809409D01*
X28603487Y-39875070D01*
X28603475Y-39875075D01*
X28586411Y-39883769D01*
X28586410Y-39883770D01*
X26137452Y-39883770D01*
X26313726Y-39672628D01*
X26317339Y-39668493D01*
X26904011Y-39026648D01*
X26907814Y-39022671D01*
X27328350Y-38602135D01*
X37069500Y-38602135D01*
X37069500Y-40397870D01*
X37069501Y-40397876D01*
X37075908Y-40457483D01*
X37126202Y-40592328D01*
X37126206Y-40592335D01*
X37212452Y-40707544D01*
X37212455Y-40707547D01*
X37327664Y-40793793D01*
X37327671Y-40793797D01*
X37462517Y-40844091D01*
X37462516Y-40844091D01*
X37469444Y-40844835D01*
X37522127Y-40850500D01*
X39317872Y-40850499D01*
X39377483Y-40844091D01*
X39512331Y-40793796D01*
X39627546Y-40707546D01*
X39713796Y-40592331D01*
X39762810Y-40460916D01*
X39804681Y-40404984D01*
X39870145Y-40380566D01*
X39938418Y-40395417D01*
X39966673Y-40416569D01*
X40088599Y-40538495D01*
X40185384Y-40606265D01*
X40282165Y-40674032D01*
X40282167Y-40674033D01*
X40282170Y-40674035D01*
X40496337Y-40773903D01*
X40724592Y-40835063D01*
X40901034Y-40850500D01*
X40959999Y-40855659D01*
X40960000Y-40855659D01*
X40960001Y-40855659D01*
X41018966Y-40850500D01*
X41195408Y-40835063D01*
X41423663Y-40773903D01*
X41637830Y-40674035D01*
X41831401Y-40538495D01*
X41998495Y-40371401D01*
X42128730Y-40185405D01*
X42183307Y-40141781D01*
X42252805Y-40134587D01*
X42315160Y-40166110D01*
X42331879Y-40185405D01*
X42461890Y-40371078D01*
X42628917Y-40538105D01*
X42822422Y-40673600D01*
X42822424Y-40673601D01*
X42999999Y-40756405D01*
X43000000Y-40756405D01*
X44000000Y-40756405D01*
X44177575Y-40673601D01*
X44177577Y-40673600D01*
X44371082Y-40538105D01*
X44538105Y-40371082D01*
X44673601Y-40177576D01*
X44756406Y-40000000D01*
X44000000Y-40000000D01*
X44000000Y-40756405D01*
X43000000Y-40756405D01*
X43000000Y-39565826D01*
X43034075Y-39692993D01*
X43099901Y-39807007D01*
X43192993Y-39900099D01*
X43307007Y-39965925D01*
X43434174Y-40000000D01*
X43565826Y-40000000D01*
X43692993Y-39965925D01*
X43807007Y-39900099D01*
X43900099Y-39807007D01*
X43965925Y-39692993D01*
X44000000Y-39565826D01*
X44000000Y-39434174D01*
X43965925Y-39307007D01*
X43900099Y-39192993D01*
X43807007Y-39099901D01*
X43692993Y-39034075D01*
X43565826Y-39000000D01*
X44000000Y-39000000D01*
X44756406Y-39000000D01*
X44756405Y-38999999D01*
X44673599Y-38822421D01*
X44673597Y-38822417D01*
X44538113Y-38628926D01*
X44538108Y-38628920D01*
X44371082Y-38461894D01*
X44177576Y-38326398D01*
X44000000Y-38243593D01*
X44000000Y-39000000D01*
X43565826Y-39000000D01*
X43434174Y-39000000D01*
X43307007Y-39034075D01*
X43192993Y-39099901D01*
X43099901Y-39192993D01*
X43034075Y-39307007D01*
X43000000Y-39434174D01*
X43000000Y-38243593D01*
X42999999Y-38243593D01*
X42822422Y-38326399D01*
X42822420Y-38326400D01*
X42628926Y-38461886D01*
X42628920Y-38461891D01*
X42461891Y-38628920D01*
X42461890Y-38628922D01*
X42331880Y-38814595D01*
X42277303Y-38858219D01*
X42207804Y-38865412D01*
X42145450Y-38833890D01*
X42128730Y-38814594D01*
X41998494Y-38628597D01*
X41831402Y-38461506D01*
X41831395Y-38461501D01*
X41637834Y-38325967D01*
X41637830Y-38325965D01*
X41637828Y-38325964D01*
X41423663Y-38226097D01*
X41423659Y-38226096D01*
X41423655Y-38226094D01*
X41195413Y-38164938D01*
X41195403Y-38164936D01*
X40960001Y-38144341D01*
X40959999Y-38144341D01*
X40724596Y-38164936D01*
X40724586Y-38164938D01*
X40496344Y-38226094D01*
X40496335Y-38226098D01*
X40282171Y-38325964D01*
X40282169Y-38325965D01*
X40088600Y-38461503D01*
X39966673Y-38583430D01*
X39905350Y-38616914D01*
X39835658Y-38611930D01*
X39779725Y-38570058D01*
X39762810Y-38539081D01*
X39713797Y-38407671D01*
X39713793Y-38407664D01*
X39627547Y-38292455D01*
X39627544Y-38292452D01*
X39512335Y-38206206D01*
X39512328Y-38206202D01*
X39377482Y-38155908D01*
X39377483Y-38155908D01*
X39317883Y-38149501D01*
X39317881Y-38149500D01*
X39317873Y-38149500D01*
X39317864Y-38149500D01*
X37522129Y-38149500D01*
X37522123Y-38149501D01*
X37462516Y-38155908D01*
X37327671Y-38206202D01*
X37327664Y-38206206D01*
X37212455Y-38292452D01*
X37212452Y-38292455D01*
X37126206Y-38407664D01*
X37126202Y-38407671D01*
X37075908Y-38542517D01*
X37069501Y-38602116D01*
X37069500Y-38602135D01*
X27328350Y-38602135D01*
X27522671Y-38407814D01*
X27526648Y-38404011D01*
X28168493Y-37817339D01*
X28172628Y-37813726D01*
X28840159Y-37256431D01*
X28844461Y-37253001D01*
X29536272Y-36726254D01*
X29540767Y-36722989D01*
X30255508Y-36227815D01*
X30260111Y-36224776D01*
X30996390Y-35762142D01*
X31001119Y-35759317D01*
X31757388Y-35330194D01*
X31762259Y-35327572D01*
X32537051Y-34932797D01*
X32541992Y-34930418D01*
X33264728Y-34602135D01*
X37069500Y-34602135D01*
X37069500Y-36397870D01*
X37069501Y-36397876D01*
X37075908Y-36457483D01*
X37126202Y-36592328D01*
X37126206Y-36592335D01*
X37212452Y-36707544D01*
X37212455Y-36707547D01*
X37327664Y-36793793D01*
X37327671Y-36793797D01*
X37462517Y-36844091D01*
X37462516Y-36844091D01*
X37469444Y-36844835D01*
X37522127Y-36850500D01*
X39317872Y-36850499D01*
X39377483Y-36844091D01*
X39512331Y-36793796D01*
X39627546Y-36707546D01*
X39713796Y-36592331D01*
X39762810Y-36460916D01*
X39804681Y-36404984D01*
X39870145Y-36380566D01*
X39938418Y-36395417D01*
X39966673Y-36416569D01*
X40088599Y-36538495D01*
X40185384Y-36606265D01*
X40282165Y-36674032D01*
X40282167Y-36674033D01*
X40282170Y-36674035D01*
X40496337Y-36773903D01*
X40724592Y-36835063D01*
X40901034Y-36850500D01*
X40959999Y-36855659D01*
X40960000Y-36855659D01*
X40960001Y-36855659D01*
X41018966Y-36850500D01*
X41195408Y-36835063D01*
X41423663Y-36773903D01*
X41637830Y-36674035D01*
X41831401Y-36538495D01*
X41998495Y-36371401D01*
X42128730Y-36185405D01*
X42183307Y-36141781D01*
X42252805Y-36134587D01*
X42315160Y-36166110D01*
X42331879Y-36185405D01*
X42461890Y-36371078D01*
X42628917Y-36538105D01*
X42822422Y-36673600D01*
X42822424Y-36673601D01*
X42999999Y-36756405D01*
X43000000Y-36756405D01*
X44000000Y-36756405D01*
X44177575Y-36673601D01*
X44177577Y-36673600D01*
X44371082Y-36538105D01*
X44538105Y-36371082D01*
X44673601Y-36177576D01*
X44756406Y-36000000D01*
X44000000Y-36000000D01*
X44000000Y-36756405D01*
X43000000Y-36756405D01*
X43000000Y-35565826D01*
X43034075Y-35692993D01*
X43099901Y-35807007D01*
X43192993Y-35900099D01*
X43307007Y-35965925D01*
X43434174Y-36000000D01*
X43565826Y-36000000D01*
X43692993Y-35965925D01*
X43807007Y-35900099D01*
X43900099Y-35807007D01*
X43965925Y-35692993D01*
X44000000Y-35565826D01*
X44000000Y-35434174D01*
X43965925Y-35307007D01*
X43900099Y-35192993D01*
X43807007Y-35099901D01*
X43692993Y-35034075D01*
X43565826Y-35000000D01*
X44000000Y-35000000D01*
X44756406Y-35000000D01*
X44756405Y-34999999D01*
X44673599Y-34822421D01*
X44673597Y-34822417D01*
X44538113Y-34628926D01*
X44538108Y-34628920D01*
X44371082Y-34461894D01*
X44177576Y-34326398D01*
X44000000Y-34243593D01*
X44000000Y-35000000D01*
X43565826Y-35000000D01*
X43434174Y-35000000D01*
X43307007Y-35034075D01*
X43192993Y-35099901D01*
X43099901Y-35192993D01*
X43034075Y-35307007D01*
X43000000Y-35434174D01*
X43000000Y-34243593D01*
X42999999Y-34243593D01*
X42822422Y-34326399D01*
X42822420Y-34326400D01*
X42628926Y-34461886D01*
X42628920Y-34461891D01*
X42461891Y-34628920D01*
X42461890Y-34628922D01*
X42331880Y-34814595D01*
X42277303Y-34858219D01*
X42207804Y-34865412D01*
X42145450Y-34833890D01*
X42128730Y-34814594D01*
X41998494Y-34628597D01*
X41831402Y-34461506D01*
X41831395Y-34461501D01*
X41637834Y-34325967D01*
X41637830Y-34325965D01*
X41637828Y-34325964D01*
X41423663Y-34226097D01*
X41423659Y-34226096D01*
X41423655Y-34226094D01*
X41195413Y-34164938D01*
X41195403Y-34164936D01*
X40960001Y-34144341D01*
X40959999Y-34144341D01*
X40724596Y-34164936D01*
X40724586Y-34164938D01*
X40496344Y-34226094D01*
X40496335Y-34226098D01*
X40282171Y-34325964D01*
X40282169Y-34325965D01*
X40088600Y-34461503D01*
X39966673Y-34583430D01*
X39905350Y-34616914D01*
X39835658Y-34611930D01*
X39779725Y-34570058D01*
X39762810Y-34539081D01*
X39713797Y-34407671D01*
X39713793Y-34407664D01*
X39627547Y-34292455D01*
X39627544Y-34292452D01*
X39512335Y-34206206D01*
X39512328Y-34206202D01*
X39377482Y-34155908D01*
X39377483Y-34155908D01*
X39317883Y-34149501D01*
X39317881Y-34149500D01*
X39317873Y-34149500D01*
X39317864Y-34149500D01*
X37522129Y-34149500D01*
X37522123Y-34149501D01*
X37462516Y-34155908D01*
X37327671Y-34206202D01*
X37327664Y-34206206D01*
X37212455Y-34292452D01*
X37212452Y-34292455D01*
X37126206Y-34407664D01*
X37126202Y-34407671D01*
X37075908Y-34542517D01*
X37069501Y-34602116D01*
X37069500Y-34602135D01*
X33264728Y-34602135D01*
X33333679Y-34570816D01*
X33338793Y-34568631D01*
X34145769Y-34244930D01*
X34150973Y-34242977D01*
X34971711Y-33955787D01*
X34976966Y-33954079D01*
X35809763Y-33704002D01*
X35815114Y-33702525D01*
X36658252Y-33490073D01*
X36663648Y-33488841D01*
X37515553Y-33314413D01*
X37520952Y-33313433D01*
X38379798Y-33177405D01*
X38385250Y-33176667D01*
X39249352Y-33079306D01*
X39254808Y-33078814D01*
X40122407Y-33020320D01*
X40127899Y-33020073D01*
X40997238Y-33000562D01*
X41002762Y-33000562D01*
X41872098Y-33020073D01*
G37*
%TD.AperFunction*%
%TD*%
M02*
